# This file uses centimeters as units for non-parametric coordinates.

mtllib ClusterPile.mtl
g default
v -0.050000 -0.050000 0.050000
v 0.050000 -0.050000 0.050000
v -0.050000 0.050000 0.050000
v 0.050000 0.050000 0.050000
v -0.050000 0.050000 -0.050000
v 0.050000 0.050000 -0.050000
v -0.050000 -0.050000 -0.050000
v 0.050000 -0.050000 -0.050000
vt 0.375000 0.000000
vt 0.625000 0.000000
vt 0.375000 0.250000
vt 0.625000 0.250000
vt 0.375000 0.500000
vt 0.625000 0.500000
vt 0.375000 0.750000
vt 0.625000 0.750000
vt 0.375000 1.000000
vt 0.625000 1.000000
vt 0.875000 0.000000
vt 0.875000 0.250000
vt 0.125000 0.000000
vt 0.125000 0.250000
vn 0.000000 0.000000 1.000000
vn 0.000000 0.000000 1.000000
vn 0.000000 0.000000 1.000000
vn 0.000000 0.000000 1.000000
vn 0.000000 1.000000 0.000000
vn 0.000000 1.000000 0.000000
vn 0.000000 1.000000 0.000000
vn 0.000000 1.000000 0.000000
vn 0.000000 0.000000 -1.000000
vn 0.000000 0.000000 -1.000000
vn 0.000000 0.000000 -1.000000
vn 0.000000 0.000000 -1.000000
vn 0.000000 -1.000000 0.000000
vn 0.000000 -1.000000 0.000000
vn 0.000000 -1.000000 0.000000
vn 0.000000 -1.000000 0.000000
vn 1.000000 0.000000 0.000000
vn 1.000000 0.000000 0.000000
vn 1.000000 0.000000 0.000000
vn 1.000000 0.000000 0.000000
vn -1.000000 0.000000 0.000000
vn -1.000000 0.000000 0.000000
vn -1.000000 0.000000 0.000000
vn -1.000000 0.000000 0.000000
s off
g pivot
usemtl initialShadingGroup
f 1/1/1 2/2/2 4/4/3 3/3/4
f 3/3/5 4/4/6 6/6/7 5/5/8
f 5/5/9 6/6/10 8/8/11 7/7/12
f 7/7/13 8/8/14 2/10/15 1/9/16
f 2/2/17 8/11/18 6/12/19 4/4/20
f 7/13/21 1/1/22 3/3/23 5/14/24
g default
v -0.221629 -0.038403 0.374712
v 0.274431 -0.038403 0.263227
v -0.058353 0.340926 0.124886
v 0.108476 0.340926 0.086248
v -0.109100 0.340926 -0.085712
v 0.061472 0.340926 -0.125216
v -0.414351 -0.038403 -0.069994
v 0.207004 -0.038403 -0.362411
v -0.223072 0.016123 0.392028
v -0.422923 0.016123 -0.089466
v 0.213149 0.016123 -0.380600
v 0.284974 0.016123 0.279007
v -0.144813 0.204800 0.275177
v -0.271777 0.204800 -0.148726
v 0.150513 0.204800 -0.255436
v 0.221875 0.204800 0.180789
v -0.123485 0.352372 0.036125
v -0.288852 0.204800 0.084074
v -0.416128 0.016123 0.184213
v -0.401823 -0.038403 0.180055
v 0.386993 -0.038403 0.041853
v 0.409642 0.016123 0.044884
v 0.296981 0.204800 -0.051606
v 0.127954 0.352372 -0.022109
v 0.029479 0.352372 0.127240
v 0.001703 0.378127 0.008627
v -0.029386 0.352372 -0.126869
v -0.069610 0.204800 -0.295689
v -0.100622 0.016123 -0.425558
v -0.097163 -0.038403 -0.410928
v 0.003495 -0.111317 0.027765
v 0.017502 -0.038403 0.411794
v 0.020828 0.016123 0.426454
v 0.028686 0.204800 0.296364
v 0.027732 0.090980 0.401656
v -0.199966 0.090980 0.377621
v -0.392147 0.090980 0.177167
v -0.393784 0.090980 -0.086412
v -0.089224 0.104181 -0.390562
v 0.201419 0.090980 -0.354800
v 0.371070 0.090980 0.039645
v 0.267164 0.090980 0.257173
v 0.365074 0.090980 -0.150506
v 0.392437 0.016123 -0.174612
v 0.372090 -0.038403 -0.167590
v -0.319316 -0.038403 -0.247655
v -0.339861 0.016123 -0.255013
v -0.334409 0.090980 -0.232912
vt 0.281386 0.179110
vt 0.522523 0.147316
vt 0.528320 0.093085
vt 0.248382 0.125969
vt 0.428479 0.353948
vt 0.551558 0.351186
vt 0.512636 0.490400
vt 0.337211 0.458126
vt 0.182880 0.712729
vt 0.114337 0.744024
vt 0.388926 0.906930
vt 0.406897 0.852720
vt 0.099681 0.346010
vt 0.505020 0.481156
vt 0.781607 0.274698
vt 0.895114 0.464504
vt 0.974586 0.457562
vt 0.831497 0.233927
vt 0.026800 0.324475
vt 0.230038 0.057315
vt -0.039263 0.292586
vt 0.041645 0.773893
vt 0.385220 0.958926
vt 1.030226 0.453995
vt 0.884623 0.198684
vt 0.549109 0.029106
vt 0.105484 0.401850
vt 0.307324 0.177553
vt 0.357369 0.601125
vt 0.469070 0.649431
vt 0.412705 0.847574
vt 0.129411 0.675085
vt 0.821160 0.288335
vt 0.926406 0.561096
vt 0.689550 0.526475
vt 0.662255 0.399297
vt 0.550446 0.152686
vt 0.019002 0.585894
vt -0.041556 0.601948
vt 0.087048 0.560402
vt 0.954839 0.667226
vt 0.880085 0.644081
vt 0.713615 0.811121
vt 0.749059 0.863986
vt 1.021824 0.677174
vt 0.792496 0.916952
vt 0.721161 0.800329
vt 0.596389 0.647491
vn -0.214132 -0.899734 0.380297
vn 0.097010 -0.884022 0.457267
vn 0.217952 0.042360 0.975040
vn -0.480545 0.072130 0.873999
vn -0.315372 0.815491 0.485299
vn 0.145350 0.831939 0.535491
vn 0.000041 1.000000 0.000808
vn -0.522482 0.841242 0.139013
vn -0.287514 -0.916860 -0.276953
vn -0.709417 0.067554 -0.701544
vn -0.220951 0.098607 -0.970287
vn -0.091669 -0.904377 -0.416771
vn -0.384768 -0.908062 0.165463
vn 0.004462 -0.999973 0.005797
vn 0.328337 -0.885129 0.329760
vn 0.426186 -0.899564 0.095657
vn 0.969059 0.088427 0.230446
vn 0.699042 0.067101 0.711925
vn -0.917377 0.112597 0.381760
vn -0.387592 0.590987 0.707465
vn -0.726408 0.612229 0.312263
vn -0.593125 0.520149 -0.614531
vn -0.184328 0.568004 -0.802119
vn 0.823811 0.518707 0.228644
vn 0.617843 0.524914 0.585436
vn 0.202055 0.526926 0.825544
vn -0.629894 0.755432 0.180433
vn -0.344426 0.753739 0.559685
vn -0.494418 0.816619 -0.297797
vn -0.127553 0.842828 -0.522850
vn -0.163178 0.724720 -0.669443
vn -0.580420 0.741513 -0.336559
vn 0.578413 0.676176 0.456316
vn 0.681935 0.722196 -0.115752
vn 0.544875 0.831562 -0.107777
vn 0.506223 0.783139 0.361153
vn 0.175682 0.702555 0.689602
vn -0.981059 0.070223 -0.180531
vn -0.826131 0.554644 -0.099381
vn -0.403827 -0.912112 -0.070533
vn 0.902485 0.096673 -0.419732
vn 0.370122 -0.912722 -0.173056
vn 0.184618 -0.912566 -0.364882
vn 0.438292 0.103852 -0.892813
vn 0.729651 0.572980 -0.373235
vn 0.394248 0.578218 -0.714306
vn 0.374521 0.727108 -0.575368
vn 0.328533 0.804306 -0.495133
s 1
g pCube4
usemtl lambert4SG
f 9/15/25 40/16/26 41/17/27 17/18/28
f 11/19/29 33/20/30 34/21/31 25/22/32
f 54/23/33 55/24/34 37/25/35 38/26/36
f 28/27/37 39/28/38 9/15/25
f 10/29/39 29/30/40 30/31/41 20/32/42
f 28/27/37 9/15/25 17/18/28 27/33/43
f 27/33/43 17/18/28 44/34/44 45/35/45
f 55/24/34 56/36/46 47/37/47 37/25/35
f 20/32/42 30/31/41 49/38/48 50/39/49
f 17/18/28 41/17/27 43/40/50 44/34/44
f 26/41/51 21/42/52 11/19/29 25/22/32
f 13/43/53 35/44/54 36/45/55 22/46/56
f 24/47/57 31/48/58 32/49/59 12/50/60
f 21/42/52 42/51/61 33/20/30 11/19/29
f 22/46/56 26/41/51 25/22/32 13/43/53
f 18/52/62 27/33/43 45/35/45 46/53/63
f 15/54/64 28/27/37 27/33/43 18/52/62
f 39/28/38 54/23/33 38/26/36
f 52/55/65 53/56/66 16/57/67 19/58/68
f 51/59/69 52/55/65 19/58/68 48/60/70
f 32/49/59 31/48/58 23/61/71 14/62/72
f 25/22/32 34/21/31 35/44/54 13/43/53
f 33/20/30 12/50/60 32/49/59 34/21/31
f 35/44/54 34/21/31 32/49/59 14/62/72
f 36/45/55 35/44/54 14/62/72 23/61/71
f 37/25/35 47/37/47 48/60/70 19/58/68
f 38/26/36 37/25/35 19/58/68 16/57/67
f 39/28/38 38/26/36 16/57/67
f 10/29/39 39/28/38 29/30/40
f 41/17/27 40/16/26 10/29/39 20/32/42
f 50/39/49 43/40/50 41/17/27 20/32/42
f 33/20/30 42/51/61 24/47/57 12/50/60
f 44/34/44 43/40/50 42/51/61 21/42/52
f 45/35/45 44/34/44 21/42/52 26/41/51
f 46/53/63 45/35/45 26/41/51 22/46/56
f 22/46/56 36/45/55 47/37/47 56/36/46
f 48/60/70 47/37/47 36/45/55 23/61/71
f 31/48/58 51/59/69 48/60/70 23/61/71
f 50/39/49 49/38/48 31/48/58 24/47/57
f 42/51/61 43/40/50 50/39/49 24/47/57
f 39/28/38 16/57/67 53/56/66
f 9/15/25 39/28/38 40/16/26
f 40/16/26 39/28/38 10/29/39
f 15/54/64 39/28/38 28/27/37
f 31/48/58 49/38/48 51/59/69
f 49/38/48 30/31/41 52/55/65 51/59/69
f 30/31/41 29/30/40 53/56/66 52/55/65
f 39/28/38 53/56/66 29/30/40
f 15/54/64 54/23/33 39/28/38
f 18/52/62 55/24/34 54/23/33 15/54/64
f 46/53/63 56/36/46 55/24/34 18/52/62
f 22/46/56 56/36/46 46/53/63
g default
v -0.228003 -0.006159 0.386046
v 0.301204 -0.006159 0.245833
v -0.090919 0.351744 0.080506
v 0.068977 0.351744 0.106744
v -0.069243 0.351744 -0.106290
v 0.094713 0.351744 -0.073662
v -0.387260 -0.006159 -0.163647
v 0.245626 -0.006159 -0.343425
v -0.413654 -0.006159 0.185494
v 0.402134 -0.006159 -0.064785
v 0.094713 0.351744 -0.073662
v -0.099768 -0.006159 -0.423385
v 0.018369 -0.006159 0.424251
v 0.028909 0.076447 0.413805
v -0.205684 0.076447 0.389043
v -0.403684 0.076447 0.182519
v -0.384440 0.076447 -0.164510
v -0.091589 0.086346 -0.402402
v 0.239872 0.076447 -0.335583
v 0.390317 0.076447 -0.057122
v 0.293717 0.076447 0.239596
vt 0.375000 0.000000
vt 0.625000 0.000000
vt 0.336080 0.288920
vt 0.530608 0.308380
vt 0.437072 0.526296
vt 0.625000 0.500000
vt 0.395472 0.750000
vt 0.625000 0.750000
vt 0.375000 1.000000
vt 0.625000 1.000000
vt 0.875000 0.000000
vt 0.875000 0.250000
vt 0.125000 0.000000
vt 0.125000 0.197409
vt 0.258241 0.000000
vt 0.375000 0.883241
vt 0.625000 0.870222
vt 0.754778 0.000000
vt 0.741759 0.197409
vt 0.625000 0.366759
vt 0.499145 0.750000
vt 0.499145 0.941620
vt 0.499145 0.000000
vt 0.499145 0.075683
vt 0.375000 0.075683
vt 0.258241 0.075683
vt 0.125000 0.075683
vt 0.389062 0.674317
vt 0.499144 0.674317
vt 0.625000 0.674317
vt 0.875000 0.075683
vt 0.752717 0.075683
vt 0.625000 0.075683
vn -0.412805 -0.574158 0.707060
vn 0.085583 -0.941615 0.325632
vn 0.155177 0.591318 0.791368
vn -0.306672 0.632865 0.710939
vn -0.081911 -0.953767 -0.289169
vn -0.263594 -0.954276 -0.140983
vn -0.730655 0.601820 -0.322423
vn -0.153135 0.594208 -0.789599
vn -0.388867 -0.913579 0.118980
vn 0.558044 -0.706205 0.435730
vn 0.356510 -0.933517 -0.038027
vn 0.811377 0.583852 -0.028009
vn 0.691458 0.561083 0.455051
vn -0.747447 0.638865 0.182139
vn 0.153777 -0.962865 -0.221908
vn 0.415427 0.598200 -0.685257
vn -0.450950 0.853250 0.261931
vn 0.372407 0.821447 0.431901
vn -0.316885 0.854317 -0.411978
vn 0.690854 0.700959 0.177136
vn 0.149194 0.726344 -0.670944
s 1
g _coll group38
usemtl initialShadingGroup
f 57/63/73 69/85/74 70/86/75 71/87/76
f 68/83/77 63/69/78 73/90/79 74/91/80
f 65/78/81 69/84/74 57/71/73
f 58/64/82 66/80/83 76/94/84 77/95/85
f 65/77/81 57/63/73 71/87/76 72/88/86
f 63/75/78 65/77/81 72/88/86 73/89/79
f 69/84/74 63/69/78 68/83/77
f 76/94/84 66/80/83 64/73/87 75/93/88
f 59/65/89 60/66/90 61/67/91
f 61/67/91 60/66/90 67/82/92 62/68/93
f 64/70/87 68/83/77 74/91/80 75/92/88
f 69/84/74 68/83/77 64/70/87
f 58/72/82 69/84/74 66/79/83
f 69/85/74 58/64/82 77/95/85 70/86/75
f 59/65/89 71/87/76 70/86/75 60/66/90
f 59/65/89 72/88/86 71/87/76
f 61/76/91 73/89/79 72/88/86 59/65/89
f 61/67/91 74/91/80 73/90/79
f 62/68/93 75/92/88 74/91/80 61/67/91
f 67/81/92 76/94/84 75/93/88 62/74/93
f 60/66/90 77/95/85 76/94/84 67/81/92
f 60/66/90 70/86/75 77/95/85
f 69/84/74 64/70/87 66/79/83
f 63/69/78 69/84/74 65/78/81
