# This file uses centimeters as units for non-parametric coordinates.

mtllib Wood_Log_Clutter.mtl
g Improved_Workbench_Frame:default1
v -0.039012 0.145514 0.039012
v 0.039012 0.145514 0.039012
v -0.039012 0.223539 0.039012
v 0.039012 0.223539 0.039012
v -0.039012 0.223539 -0.039012
v 0.039012 0.223539 -0.039012
v -0.039012 0.145514 -0.039012
v 0.039012 0.145514 -0.039012
vt 0.375000 0.000000
vt 0.625000 0.000000
vt 0.625000 0.250000
vt 0.375000 0.250000
vt 0.625000 0.500000
vt 0.375000 0.500000
vt 0.625000 0.750000
vt 0.375000 0.750000
vt 0.625000 1.000000
vt 0.375000 1.000000
vt 0.875000 0.000000
vt 0.875000 0.250000
vt 0.125000 0.000000
vt 0.125000 0.250000
vn -0.577350 -0.577351 0.577350
vn 0.577350 -0.577351 0.577350
vn 0.577350 0.577351 0.577350
vn -0.577350 0.577351 0.577350
vn -0.577350 0.577351 0.577350
vn 0.577350 0.577351 0.577350
vn 0.577350 0.577351 -0.577350
vn -0.577350 0.577351 -0.577350
vn -0.577350 0.577351 -0.577350
vn 0.577350 0.577351 -0.577350
vn 0.577350 -0.577351 -0.577350
vn -0.577350 -0.577351 -0.577350
vn -0.577350 -0.577351 -0.577350
vn 0.577350 -0.577351 -0.577350
vn 0.577350 -0.577351 0.577350
vn -0.577350 -0.577351 0.577350
vn 0.577350 -0.577351 0.577350
vn 0.577350 -0.577351 -0.577350
vn 0.577350 0.577351 -0.577350
vn 0.577350 0.577351 0.577350
vn -0.577350 -0.577351 -0.577350
vn -0.577350 -0.577351 0.577350
vn -0.577350 0.577351 0.577350
vn -0.577350 0.577351 -0.577350
s off
g Improved_Workbench_Frame:pivot pivot Improved_Workbench_Frame:polySurface1
usemtl initialShadingGroup
f 1/1/1 2/2/2 4/3/3 3/4/4
f 3/4/5 4/3/6 6/5/7 5/6/8
f 5/6/9 6/5/10 8/7/11 7/8/12
f 7/8/13 8/7/14 2/9/15 1/10/16
f 2/2/17 8/11/18 6/12/19 4/3/20
f 7/13/21 1/1/22 3/4/23 5/14/24
g Improved_Workbench_Frame:default1
v -0.162350 0.209842 0.486961
v -0.080053 0.303338 0.475760
v -0.150319 0.206749 -0.496012
v -0.054853 0.311709 -0.479435
v 0.062039 0.290872 0.458458
v 0.122985 0.215850 0.451449
v 0.180299 0.214167 -0.434616
v 0.109695 0.298083 -0.448435
v -0.080627 0.057097 0.477491
v -0.162609 0.111730 0.487833
v -0.150672 0.096813 -0.495055
v -0.055496 0.035794 -0.477496
v 0.122726 0.118004 0.452321
v 0.061479 0.056645 0.460192
v 0.109037 0.035628 -0.446502
v 0.179945 0.104529 -0.433659
v -0.096495 0.317693 0.401101
v 0.062721 0.303725 0.381713
v 0.131012 0.219662 0.373859
v 0.130722 0.110024 0.374837
v 0.062093 0.041270 0.383656
v -0.097138 0.041778 0.403040
v -0.189000 0.102993 0.414628
v -0.188710 0.212930 0.413651
v -0.072252 0.313947 -0.123988
v 0.088048 0.300154 -0.118145
v 0.156815 0.216166 -0.115148
v 0.156493 0.106527 -0.114178
v 0.087405 0.037699 -0.116206
v -0.072896 0.038031 -0.122049
v -0.165504 0.099146 -0.125047
v -0.165182 0.209083 -0.126016
v -0.068708 0.319575 -0.315804
v 0.099707 0.305084 -0.309666
v 0.171955 0.216844 -0.306517
v 0.171617 0.101657 -0.305498
v 0.089103 0.029460 -0.337302
v -0.069384 0.029694 -0.313767
v -0.166679 0.093902 -0.316916
v -0.166341 0.209403 -0.317935
v 0.013476 0.162666 -0.405540
v -0.018389 0.170531 0.447522
v -0.221500 0.127646 -0.261073
v -0.221358 0.176117 -0.261500
v -0.221007 0.129847 -0.180552
v -0.220872 0.175983 -0.180959
v -0.146640 0.244968 -0.221975
v -0.146929 0.063501 -0.214424
v -0.221241 0.103238 -0.218805
v -0.221116 0.204137 -0.221404
vt 0.769516 0.225882
vt 0.640538 0.233231
vt 0.636109 0.102037
vt 0.745882 0.093517
vt 0.649254 0.520879
vt 0.778729 0.520211
vt 0.763146 0.653634
vt 0.675703 0.643085
vt 0.654077 0.729866
vt 0.755424 0.732936
vt 0.754843 0.819740
vt 0.653360 0.820371
vt 0.786193 0.428321
vt 0.646232 0.432015
vt 0.644162 0.345549
vt 0.784665 0.339583
vt 0.631877 0.012481
vt 0.734234 0.005794
vt 0.077549 0.256073
vt 0.015120 0.249986
vt 0.028030 0.129893
vt 0.091098 0.131278
vt 0.030538 0.049971
vt 0.094935 0.045611
vt 0.053162 0.734866
vt 0.116303 0.731694
vt 0.116254 0.818301
vt 0.052993 0.814335
vt 0.044039 0.662123
vt 0.107071 0.655826
vt 0.021924 0.543452
vt 0.085176 0.532048
vt 0.009188 0.453036
vt 0.072437 0.447727
vt 0.069866 0.363822
vt 0.005929 0.360703
vt 0.490013 0.238177
vt 0.485245 0.110521
vt 0.481067 0.024689
vt 0.502705 0.729980
vt 0.502710 0.816648
vt 0.501526 0.652644
vt 0.498543 0.525397
vt 0.495223 0.437214
vt 0.492870 0.349658
vt 0.568250 0.460370
vt 0.080887 0.883392
vt 0.083643 0.906509
vt 0.064660 0.916562
vt 0.046576 0.906548
vt 0.045048 0.884995
vt 0.062443 0.872467
vt 0.568581 0.317359
vt 0.857989 0.718273
vt 0.778420 0.642263
vt 0.894683 0.581941
vt 0.790819 0.514108
vt 0.856626 0.459805
vt 0.940824 0.461258
vt 0.994071 0.516784
vt 0.992679 0.646048
vt 0.942216 0.718510
vt 0.814156 0.970335
vt 0.768790 0.903587
vt 0.863099 0.850296
vt 0.768642 0.784760
vt 0.819640 0.733070
vt 0.900664 0.732811
vt 0.962819 0.784032
vt 0.972937 0.902659
vt 0.895514 0.971412
vt 0.128387 0.849516
vt 0.126450 0.930610
vt 0.063573 0.959963
vt 0.009851 0.930528
vt 0.005929 0.863765
vt 0.059733 0.826045
vn -0.282861 0.841777 -0.459784
vn -0.242671 0.969634 -0.030343
vn 0.374625 0.820875 -0.431068
vn 0.376431 0.926250 0.018974
vn -0.175157 -0.984433 -0.014531
vn -0.180019 -0.864907 -0.468540
vn 0.253331 -0.967191 0.019122
vn 0.296653 -0.845133 -0.444688
vn 0.911711 -0.405184 0.067894
vn 0.841002 -0.324007 -0.433284
vn 0.938137 0.340125 0.064916
vn 0.851131 0.285633 -0.440443
vn -0.838528 -0.515127 -0.177527
vn -0.886105 0.432627 -0.166289
vn -0.766034 -0.436605 -0.471772
vn -0.786449 0.363532 -0.499343
vn -0.242671 0.969634 -0.030343
vn -0.282861 0.841777 -0.459784
vn -0.886105 0.432627 -0.166289
vn -0.786449 0.363532 -0.499343
vn 0.938137 0.340125 0.064916
vn 0.851131 0.285633 -0.440443
vn 0.376431 0.926250 0.018974
vn 0.374625 0.820875 -0.431068
vn -0.175157 -0.984433 -0.014531
vn -0.838528 -0.515127 -0.177527
vn -0.180019 -0.864907 -0.468540
vn -0.766034 -0.436605 -0.471772
vn 0.911711 -0.405184 0.067894
vn 0.253331 -0.967191 0.019122
vn 0.841002 -0.324007 -0.433284
vn 0.296653 -0.845133 -0.444688
vn -0.161837 0.706687 0.688769
vn 0.362175 0.687288 0.629655
vn -0.383081 0.923679 0.008133
vn 0.363140 0.931308 0.028202
vn 0.362175 0.687288 0.629655
vn 0.741729 0.242552 0.625305
vn 0.363140 0.931308 0.028202
vn 0.938138 0.341928 0.054606
vn 0.925567 -0.373668 0.060819
vn 0.938138 0.341928 0.054606
vn 0.738932 -0.251744 0.624983
vn 0.741729 0.242552 0.625305
vn 0.281038 -0.724681 0.629170
vn 0.255748 -0.965936 0.039514
vn 0.738932 -0.251744 0.624983
vn 0.925567 -0.373668 0.060819
vn -0.082401 -0.719674 0.689405
vn -0.265122 -0.963894 0.024888
vn 0.281038 -0.724681 0.629170
vn 0.255748 -0.965936 0.039514
vn -0.082401 -0.719674 0.689405
vn -0.538105 -0.342019 0.770368
vn -0.265122 -0.963894 0.024888
vn -0.892339 -0.451262 0.009692
vn -0.892339 -0.451262 0.009692
vn -0.538105 -0.342019 0.770368
vn -0.923524 0.383539 0.000772
vn -0.550323 0.294914 0.781134
vn -0.161837 0.706687 0.688769
vn -0.383081 0.923679 0.008133
vn -0.550323 0.294914 0.781134
vn -0.923524 0.383539 0.000772
vn -0.383081 0.923679 0.008133
vn 0.363140 0.931308 0.028202
vn -0.292436 0.956236 -0.009657
vn 0.390377 0.920366 0.023087
vn 0.363140 0.931308 0.028202
vn 0.938138 0.341928 0.054606
vn 0.390377 0.920366 0.023087
vn 0.941298 0.333042 0.055145
vn 0.925567 -0.373668 0.060819
vn 0.926135 -0.372838 0.057153
vn 0.938138 0.341928 0.054606
vn 0.941298 0.333042 0.055145
vn 0.255748 -0.965936 0.039514
vn 0.286124 -0.957746 0.029251
vn 0.925567 -0.373668 0.060819
vn 0.926135 -0.372838 0.057153
vn -0.265122 -0.963894 0.024888
vn -0.203470 -0.979041 0.008863
vn 0.255748 -0.965936 0.039514
vn 0.286124 -0.957746 0.029251
vn -0.892339 -0.451262 0.009692
vn -0.872983 -0.487511 0.015307
vn -0.265122 -0.963894 0.024888
vn -0.203470 -0.979041 0.008863
vn -0.910913 0.412592 -0.002367
vn -0.872983 -0.487511 0.015307
vn -0.923524 0.383539 0.000772
vn -0.892339 -0.451262 0.009692
vn -0.923524 0.383539 0.000772
vn -0.383081 0.923679 0.008133
vn -0.910913 0.412592 -0.002367
vn -0.292436 0.956236 -0.009657
vn 0.390377 0.920366 0.023087
vn 0.941298 0.333042 0.055145
vn 0.376431 0.926250 0.018974
vn 0.938137 0.340125 0.064916
vn 0.911711 -0.405184 0.067894
vn 0.938137 0.340125 0.064916
vn 0.926135 -0.372838 0.057153
vn 0.941298 0.333042 0.055145
vn 0.926135 -0.372838 0.057153
vn 0.286124 -0.957746 0.029251
vn 0.911711 -0.405184 0.067894
vn 0.253331 -0.967191 0.019122
vn -0.203470 -0.979041 0.008863
vn -0.175157 -0.984433 -0.014531
vn 0.286124 -0.957746 0.029251
vn 0.253331 -0.967191 0.019122
vn -0.203470 -0.979041 0.008863
vn -0.496828 -0.867304 0.030748
vn -0.175157 -0.984433 -0.014531
vn -0.811292 0.584610 0.005981
vn -0.886259 0.274331 -0.373212
vn -0.882248 0.283324 0.375986
vn -0.814308 -0.580173 0.017376
vn -0.885123 -0.268675 0.379962
vn -0.882537 -0.301435 -0.360924
vn -0.910913 0.412592 -0.002367
vn -0.292436 0.956236 -0.009657
vn -0.680847 0.732412 0.004498
vn -0.786449 0.363532 -0.499343
vn -0.282861 0.841777 -0.459784
vn 0.186344 -0.011062 -0.982422
vn -0.282861 0.841777 -0.459784
vn 0.374625 0.820875 -0.431068
vn 0.186344 -0.011062 -0.982422
vn 0.374625 0.820875 -0.431068
vn 0.851131 0.285633 -0.440443
vn 0.186344 -0.011062 -0.982422
vn 0.851131 0.285633 -0.440443
vn 0.841002 -0.324007 -0.433284
vn 0.186344 -0.011062 -0.982422
vn 0.841002 -0.324007 -0.433284
vn 0.296653 -0.845133 -0.444688
vn 0.186344 -0.011062 -0.982422
vn 0.296653 -0.845133 -0.444688
vn -0.180019 -0.864907 -0.468540
vn 0.186344 -0.011062 -0.982422
vn -0.180019 -0.864907 -0.468540
vn -0.766034 -0.436605 -0.471772
vn 0.186344 -0.011062 -0.982422
vn -0.766034 -0.436605 -0.471772
vn -0.786449 0.363532 -0.499343
vn 0.186344 -0.011062 -0.982422
vn -0.538105 -0.342019 0.770368
vn -0.082401 -0.719674 0.689405
vn 0.125654 0.005372 0.992060
vn -0.082401 -0.719674 0.689405
vn 0.281038 -0.724681 0.629170
vn 0.125654 0.005372 0.992060
vn 0.281038 -0.724681 0.629170
vn 0.738932 -0.251744 0.624983
vn 0.125654 0.005372 0.992060
vn 0.738932 -0.251744 0.624983
vn 0.741729 0.242552 0.625305
vn 0.125654 0.005372 0.992060
vn 0.741729 0.242552 0.625305
vn 0.362175 0.687288 0.629655
vn 0.125654 0.005372 0.992060
vn 0.362175 0.687288 0.629655
vn -0.161837 0.706687 0.688769
vn 0.125654 0.005372 0.992060
vn -0.161837 0.706687 0.688769
vn -0.550323 0.294914 0.781134
vn 0.125654 0.005372 0.992060
vn -0.550323 0.294914 0.781134
vn -0.538105 -0.342019 0.770368
vn 0.125654 0.005372 0.992060
vn -0.886105 0.432627 -0.166289
vn -0.838528 -0.515127 -0.177527
vn -0.886259 0.274331 -0.373212
vn -0.882537 -0.301435 -0.360924
vn -0.814308 -0.580173 0.017376
vn -0.496828 -0.867304 0.030748
vn -0.885123 -0.268675 0.379962
vn -0.872983 -0.487511 0.015307
vn -0.910913 0.412592 -0.002367
vn -0.882248 0.283324 0.375986
vn -0.872983 -0.487511 0.015307
vn -0.885123 -0.268675 0.379962
vn -0.811292 0.584610 0.005981
vn -0.680847 0.732412 0.004498
vn -0.886259 0.274331 -0.373212
vn -0.886105 0.432627 -0.166289
vn -0.680847 0.732412 0.004498
vn -0.242671 0.969634 -0.030343
vn -0.886105 0.432627 -0.166289
vn -0.680847 0.732412 0.004498
vn -0.292436 0.956236 -0.009657
vn -0.242671 0.969634 -0.030343
vn -0.292436 0.956236 -0.009657
vn 0.390377 0.920366 0.023087
vn -0.242671 0.969634 -0.030343
vn 0.376431 0.926250 0.018974
vn -0.203470 -0.979041 0.008863
vn -0.872983 -0.487511 0.015307
vn -0.496828 -0.867304 0.030748
vn -0.175157 -0.984433 -0.014531
vn -0.496828 -0.867304 0.030748
vn -0.838528 -0.515127 -0.177527
vn -0.838528 -0.515127 -0.177527
vn -0.496828 -0.867304 0.030748
vn -0.882537 -0.301435 -0.360924
vn -0.814308 -0.580173 0.017376
vn -0.910913 0.412592 -0.002367
vn -0.680847 0.732412 0.004498
vn -0.882248 0.283324 0.375986
vn -0.811292 0.584610 0.005981
s 1
g Improved_Workbench_Frame:group87 Improved_Workbench_Frame:pasted__polySurface149 Improved_Workbench_Frame:polySurface1 _coll
usemtl initialShadingGroup
f 12/15/25 41/16/26 16/18/27
f 16/18/27 41/16/26 42/17/28
s 2
f 46/19/29 20/20/30 45/22/31
f 45/22/31 20/20/30 23/21/32
s 3
f 44/23/33 24/24/34 43/26/35
f 43/26/35 24/24/34 15/25/36
s 4
f 47/28/37 48/29/38 19/27/39
f 19/27/39 48/29/38 11/30/40
s 5
f 41/16/41 12/15/42 48/29/43
f 48/29/43 12/15/42 11/30/44
s 6
f 43/31/45 15/32/46 42/17/47
f 42/17/47 15/32/46 16/18/48
s 7
f 46/19/49 47/28/50 20/20/51
f 20/20/51 47/28/50 19/27/52
s 8
f 44/23/53 45/22/54 24/24/55
f 24/24/55 45/22/54 23/21/56
s 9
f 10/34/57 13/35/58 25/33/59
f 25/33/59 13/35/58 26/36/60
s 10
f 13/35/61 14/37/62 26/36/63
f 26/36/63 14/37/62 27/38/64
s 11
f 28/40/65 27/41/66 21/39/67
f 21/39/67 27/41/66 14/42/68
s 12
f 22/43/69 29/44/70 21/39/71
f 21/39/71 29/44/70 28/40/72
s 13
f 17/45/73 30/46/74 22/43/75
f 22/43/75 30/46/74 29/44/76
s 14
f 17/45/77 18/47/78 30/46/79
f 30/46/79 18/47/78 31/48/80
s 15
f 31/48/81 18/47/82 32/49/83
f 32/49/83 18/47/82 9/50/84
s 16
f 10/34/85 25/33/86 9/50/87
f 9/50/87 25/33/86 32/49/88
s 17
f 25/33/89 26/36/90 33/51/91
f 33/51/91 26/36/90 34/52/92
s 18
f 26/36/93 27/38/94 34/52/95
f 34/52/95 27/38/94 35/53/96
s 19
f 28/40/97 36/54/98 27/41/99
f 27/41/99 36/54/98 35/55/100
s 20
f 29/44/101 37/56/102 28/40/103
f 28/40/103 37/56/102 36/54/104
s 21
f 30/46/105 38/57/106 29/44/107
f 29/44/107 38/57/106 37/56/108
s 22
f 31/48/109 39/58/110 30/46/111
f 30/46/111 39/58/110 38/57/112
s 23
f 40/59/113 39/58/114 32/49/115
f 32/49/115 39/58/114 31/48/116
s 24
f 32/49/117 25/33/118 40/59/119
f 40/59/119 25/33/118 33/51/120
s 25
f 34/52/121 35/53/122 42/17/123
f 42/17/123 35/53/122 43/31/124
s 26
f 44/23/125 43/26/126 36/54/127
f 36/54/127 43/26/126 35/55/128
s 27
f 36/54/129 37/56/130 44/23/131
f 44/23/131 37/56/130 45/22/132
s 28
f 38/57/133 46/19/134 37/56/135
f 37/56/135 46/19/134 45/22/136
s off
f 38/57/137 56/60/138 46/19/139
s 29
f 58/66/140 52/61/141 54/65/142
f 57/63/143 53/64/144 51/62/145
f 51/62/145 53/64/144 52/61/141
f 52/61/141 53/64/144 54/65/142
s off
f 40/59/146 33/51/147 55/67/148
f 11/68/149 12/69/150 49/70/151
f 12/69/152 16/71/153 49/70/154
f 16/71/155 15/72/156 49/70/157
f 15/72/158 24/73/159 49/70/160
f 24/73/161 23/74/162 49/70/163
f 23/74/164 20/75/165 49/70/166
f 20/75/167 19/76/168 49/70/169
f 19/76/170 11/68/171 49/70/172
f 18/77/173 17/78/174 50/79/175
f 17/78/176 22/80/177 50/79/178
f 22/80/179 21/81/180 50/79/181
f 21/81/182 14/82/183 50/79/184
f 14/82/185 13/83/186 50/79/187
f 13/83/188 10/84/189 50/79/190
f 10/84/191 9/85/192 50/79/193
f 9/85/194 18/77/195 50/79/196
s 31
f 48/86/197 47/87/198 52/61/199
f 52/61/199 47/87/198 51/62/200
s 32
f 57/63/201 56/88/202 53/64/203
f 53/64/203 56/88/202 39/89/204
s 33
f 40/90/205 54/65/206 39/89/207
f 39/89/207 54/65/206 53/64/208
s 34
f 58/66/209 55/91/210 52/61/211
f 52/61/211 55/91/210 48/86/212
s off
f 55/67/213 41/16/214 48/29/215
f 55/67/216 33/51/217 41/16/218
s 35
f 33/51/219 34/52/220 41/16/221
f 41/16/221 34/52/220 42/17/222
s off
f 38/57/223 39/58/224 56/60/225
f 46/19/226 56/60/227 47/28/228
s 36
f 47/87/229 56/88/230 51/62/231
f 51/62/231 56/88/230 57/63/232
s 37
f 40/90/233 55/91/234 54/65/235
f 54/65/235 55/91/234 58/66/236
g Improved_Workbench_Frame:default1
v -0.161931 0.210150 0.486961
v -0.079634 0.303646 0.475760
v -0.149900 0.207057 -0.496012
v -0.054433 0.312017 -0.479435
v 0.062459 0.291180 0.458458
v 0.123404 0.216158 0.451449
v 0.180718 0.214475 -0.434616
v 0.110114 0.298391 -0.448435
v -0.080208 0.057405 0.477491
v -0.162190 0.112037 0.487833
v -0.150253 0.097121 -0.495055
v -0.055077 0.036102 -0.477496
v 0.123145 0.118312 0.452321
v 0.061898 0.056953 0.460192
v 0.109456 0.035936 -0.446502
v 0.180364 0.104837 -0.433659
v -0.096076 0.318001 0.401101
v -0.096719 0.042086 0.403040
v -0.188581 0.103301 0.414628
v -0.188291 0.213238 0.413651
v -0.071833 0.314255 -0.123988
v -0.072477 0.038339 -0.122049
v -0.165084 0.099454 -0.125047
v -0.164763 0.209391 -0.126016
v -0.068289 0.319883 -0.315804
v -0.068965 0.030002 -0.313767
v -0.166260 0.094210 -0.316916
v -0.165922 0.209711 -0.317935
v 0.013895 0.162974 -0.405540
v -0.017970 0.170839 0.447522
v -0.220762 0.153351 -0.220563
v -0.146220 0.245276 -0.221975
v -0.146510 0.063809 -0.214424
vt 0.987183 0.565081
vt 0.933913 0.568116
vt 0.912264 0.514803
vt 0.937513 0.686919
vt 0.990988 0.686643
vt 0.921497 0.740455
vt 0.994071 0.648691
vt 0.936265 0.650217
vt 0.935410 0.614505
vt 0.993440 0.612041
vt 0.701390 0.577550
vt 0.675606 0.575036
vt 0.693962 0.525722
vt 0.678416 0.696242
vt 0.704540 0.691532
vt 0.700567 0.743954
vt 0.673156 0.658899
vt 0.699279 0.656706
vt 0.698217 0.622052
vt 0.671810 0.620764
vt 0.871744 0.570159
vt 0.695272 0.491526
vt 0.909761 0.478774
vt 0.704357 0.774644
vt 0.918710 0.773574
vt 0.918577 0.809780
vt 0.704312 0.808940
vt 0.875267 0.688785
vt 0.873896 0.652364
vt 0.872924 0.616202
vt 0.904057 0.661928
vt 0.904194 0.602862
vt 0.280394 0.627095
vt 0.247531 0.595702
vt 0.295549 0.570788
vt 0.252652 0.542772
vt 0.279831 0.520344
vt 0.314606 0.520944
vt 0.336598 0.543877
vt 0.336023 0.597265
vt 0.315181 0.627193
vt 0.168117 0.627812
vt 0.149380 0.600244
vt 0.188331 0.578234
vt 0.149319 0.551167
vt 0.170382 0.529818
vt 0.203846 0.529711
vt 0.229517 0.550866
vt 0.233696 0.599861
vt 0.201719 0.628257
vt 0.264716 0.636875
vt 0.263916 0.670368
vt 0.238039 0.655635
vt 0.237947 0.682491
vt 0.215759 0.670334
vt 0.214139 0.642760
vt 0.236361 0.627181
vn -0.383504 0.732220 -0.562831
vn -0.352773 0.935120 -0.033208
vn 0.603111 0.792112 -0.093889
vn -0.220947 -0.975130 -0.017405
vn -0.217699 -0.800520 -0.558368
vn 0.509425 -0.856833 -0.079524
vn -0.766034 -0.436605 -0.471772
vn -0.861198 -0.490434 -0.133463
vn -0.902610 0.411425 -0.126586
vn -0.786449 0.363532 -0.499343
vn -0.902610 0.411425 -0.126586
vn -0.352773 0.935120 -0.033208
vn -0.383504 0.732220 -0.562831
vn -0.786449 0.363532 -0.499343
vn -0.220947 -0.975130 -0.017405
vn -0.861198 -0.490434 -0.133463
vn -0.766034 -0.436605 -0.471772
vn -0.217699 -0.800520 -0.558368
vn -0.231205 0.972878 0.007256
vn -0.234898 0.554439 0.798386
vn 0.467279 0.878637 0.098221
vn -0.112853 -0.572507 0.812096
vn -0.157100 -0.987340 0.021885
vn 0.368058 -0.924100 0.102826
vn -0.112853 -0.572507 0.812096
vn -0.538105 -0.342019 0.770368
vn -0.892339 -0.451262 0.009692
vn -0.157100 -0.987340 0.021885
vn -0.923524 0.383539 0.000772
vn -0.892339 -0.451262 0.009692
vn -0.538105 -0.342019 0.770368
vn -0.550323 0.294914 0.781134
vn -0.550323 0.294914 0.781134
vn -0.234898 0.554439 0.798386
vn -0.231205 0.972878 0.007256
vn -0.923524 0.383539 0.000772
vn -0.131190 0.991356 -0.001806
vn -0.231205 0.972878 0.007256
vn 0.467279 0.878637 0.098221
vn 0.603111 0.792112 -0.093889
vn 0.467279 0.878637 0.098221
vn 0.930591 0.346687 0.117509
vn 0.938747 0.343982 -0.020775
vn 0.603111 0.792112 -0.093889
vn 0.918083 -0.377227 0.121748
vn 0.926300 -0.376559 -0.013126
vn 0.938747 0.343982 -0.020775
vn 0.930591 0.346687 0.117509
vn 0.918083 -0.377227 0.121748
vn 0.368058 -0.924100 0.102826
vn 0.509425 -0.856833 -0.079524
vn 0.926300 -0.376559 -0.013126
vn -0.157100 -0.987340 0.021885
vn -0.093429 -0.995517 0.014732
vn 0.509425 -0.856833 -0.079524
vn 0.368058 -0.924100 0.102826
vn -0.157100 -0.987340 0.021885
vn -0.892339 -0.451262 0.009692
vn -0.878686 -0.477391 -0.003028
vn -0.093429 -0.995517 0.014732
vn -0.915013 0.403039 -0.017646
vn -0.878686 -0.477391 -0.003028
vn -0.892339 -0.451262 0.009692
vn -0.923524 0.383539 0.000772
vn -0.923524 0.383539 0.000772
vn -0.231205 0.972878 0.007256
vn -0.131190 0.991356 -0.001806
vn -0.915013 0.403039 -0.017646
vn -0.093429 -0.995517 0.014732
vn -0.220947 -0.975130 -0.017405
vn 0.509425 -0.856833 -0.079524
vn -0.093429 -0.995517 0.014732
vn -0.574213 -0.818222 0.028152
vn -0.220947 -0.975130 -0.017405
vn -0.915013 0.403039 -0.017646
vn -0.131190 0.991356 -0.001806
vn -0.737258 0.675595 0.004714
vn -0.786449 0.363532 -0.499343
vn -0.383504 0.732220 -0.562831
vn 0.186344 -0.011062 -0.982422
vn -0.383504 0.732220 -0.562831
vn 0.603111 0.792112 -0.093889
vn 0.186344 -0.011062 -0.982422
vn 0.603111 0.792112 -0.093889
vn 0.938747 0.343982 -0.020775
vn 0.186344 -0.011062 -0.982422
vn 0.938747 0.343982 -0.020775
vn 0.926300 -0.376559 -0.013126
vn 0.186344 -0.011062 -0.982422
vn 0.926300 -0.376559 -0.013126
vn 0.509425 -0.856833 -0.079524
vn 0.186344 -0.011062 -0.982422
vn 0.509425 -0.856833 -0.079524
vn -0.217699 -0.800520 -0.558368
vn 0.186344 -0.011062 -0.982422
vn -0.217699 -0.800520 -0.558368
vn -0.766034 -0.436605 -0.471772
vn 0.186344 -0.011062 -0.982422
vn -0.766034 -0.436605 -0.471772
vn -0.786449 0.363532 -0.499343
vn 0.186344 -0.011062 -0.982422
vn -0.538105 -0.342019 0.770368
vn -0.112853 -0.572507 0.812096
vn 0.125654 0.005372 0.992060
vn -0.112853 -0.572507 0.812096
vn 0.368058 -0.924100 0.102826
vn 0.125654 0.005372 0.992060
vn 0.368058 -0.924100 0.102826
vn 0.918083 -0.377227 0.121748
vn 0.125654 0.005372 0.992060
vn 0.918083 -0.377227 0.121748
vn 0.930591 0.346687 0.117509
vn 0.125654 0.005372 0.992060
vn 0.930591 0.346687 0.117509
vn 0.467279 0.878637 0.098221
vn 0.125654 0.005372 0.992060
vn 0.467279 0.878637 0.098221
vn -0.234898 0.554439 0.798386
vn 0.125654 0.005372 0.992060
vn -0.234898 0.554439 0.798386
vn -0.550323 0.294914 0.781134
vn 0.125654 0.005372 0.992060
vn -0.550323 0.294914 0.781134
vn -0.538105 -0.342019 0.770368
vn 0.125654 0.005372 0.992060
vn -0.902610 0.411425 -0.126586
vn -0.861198 -0.490434 -0.133463
vn -0.999995 0.001911 0.002461
vn -0.999995 0.001911 0.002461
vn -0.574213 -0.818222 0.028152
vn -0.878686 -0.477391 -0.003028
vn -0.878686 -0.477391 -0.003028
vn -0.915013 0.403039 -0.017646
vn -0.999995 0.001911 0.002461
vn -0.999995 0.001911 0.002461
vn -0.737258 0.675595 0.004714
vn -0.902610 0.411425 -0.126586
vn -0.737258 0.675595 0.004714
vn -0.352773 0.935120 -0.033208
vn -0.902610 0.411425 -0.126586
vn -0.737258 0.675595 0.004714
vn -0.131190 0.991356 -0.001806
vn -0.352773 0.935120 -0.033208
vn -0.352773 0.935120 -0.033208
vn -0.131190 0.991356 -0.001806
vn 0.603111 0.792112 -0.093889
vn -0.093429 -0.995517 0.014732
vn -0.878686 -0.477391 -0.003028
vn -0.574213 -0.818222 0.028152
vn -0.220947 -0.975130 -0.017405
vn -0.574213 -0.818222 0.028152
vn -0.861198 -0.490434 -0.133463
vn -0.861198 -0.490434 -0.133463
vn -0.574213 -0.818222 0.028152
vn -0.999995 0.001911 0.002461
vn -0.915013 0.403039 -0.017646
vn -0.737258 0.675595 0.004714
vn -0.999995 0.001911 0.002461
s off
g Improved_Workbench_Frame:_coll Improved_Workbench_Frame:polySurface1 polySurface11
usemtl initialShadingGroup
f 62/92/237 83/93/238 66/94/239
f 84/95/240 70/96/241 73/97/242
f 69/98/243 85/99/244 86/100/245 61/101/246
f 86/100/247 83/93/248 62/92/249 61/101/250
f 84/95/251 85/99/252 69/98/253 70/96/254
f 75/102/255 60/103/256 63/104/257
f 67/105/258 76/106/259 72/107/260
f 67/105/261 68/108/262 77/109/263 76/106/264
f 78/110/265 77/109/266 68/108/267 59/111/268
f 59/111/269 60/103/270 75/102/271 78/110/272
f 79/112/273 75/102/274 63/104/275 66/94/276
f 63/104/277 64/113/278 65/114/279 66/94/280
f 71/115/281 74/116/282 65/117/283 64/118/284
f 71/115/285 72/107/286 73/97/287 74/116/288
f 76/106/289 80/119/290 73/97/291 72/107/292
f 76/106/293 77/109/294 81/120/295 80/119/296
f 82/121/297 81/120/298 77/109/299 78/110/300
f 78/110/301 75/102/302 79/112/303 82/121/304
f 80/119/305 84/95/306 73/97/307
f 80/119/308 91/122/309 84/95/310
f 82/121/311 79/112/312 90/123/313
f 61/124/314 62/125/315 87/126/316
f 62/125/317 66/127/318 87/126/319
f 66/127/320 65/128/321 87/126/322
f 65/128/323 74/129/324 87/126/325
f 74/129/326 73/130/327 87/126/328
f 73/130/329 70/131/330 87/126/331
f 70/131/332 69/132/333 87/126/334
f 69/132/335 61/124/336 87/126/337
f 68/133/338 67/134/339 88/135/340
f 67/134/341 72/136/342 88/135/343
f 72/136/344 71/137/345 88/135/346
f 71/137/347 64/138/348 88/135/349
f 64/138/350 63/139/351 88/135/352
f 63/139/353 60/140/354 88/135/355
f 60/140/356 59/141/357 88/135/358
f 59/141/359 68/133/360 88/135/361
f 86/142/362 85/143/363 89/144/364
f 89/144/365 91/145/366 81/146/367
f 81/146/368 82/147/369 89/144/370
f 89/144/371 90/148/372 86/142/373
f 90/123/374 83/93/375 86/100/376
f 90/123/377 79/112/378 83/93/379
f 83/93/380 79/112/381 66/94/382
f 80/119/383 81/120/384 91/122/385
f 84/95/386 91/122/387 85/99/388
f 85/143/389 91/145/390 89/144/391
f 82/147/392 90/148/393 89/144/394
