# This file uses centimeters as units for non-parametric coordinates.

mtllib Anvil_Bronze.mtl
g Anvil_Bronze:default1
v -0.050000 0.433819 0.050000
v 0.050000 0.433819 0.050000
v -0.050000 0.533819 0.050000
v 0.050000 0.533819 0.050000
v -0.050000 0.533819 -0.050000
v 0.050000 0.533819 -0.050000
v -0.050000 0.433819 -0.050000
v 0.050000 0.433819 -0.050000
vt 0.375000 0.000000
vt 0.625000 0.000000
vt 0.625000 0.250000
vt 0.375000 0.250000
vt 0.625000 0.500000
vt 0.375000 0.500000
vt 0.625000 0.750000
vt 0.375000 0.750000
vt 0.625000 1.000000
vt 0.375000 1.000000
vt 0.875000 0.000000
vt 0.875000 0.250000
vt 0.125000 0.000000
vt 0.125000 0.250000
vn -0.577350 -0.577351 0.577350
vn 0.577350 -0.577351 0.577350
vn 0.577350 0.577351 0.577350
vn -0.577350 0.577351 0.577350
vn -0.577350 0.577351 0.577350
vn 0.577350 0.577351 0.577350
vn 0.577350 0.577351 -0.577350
vn -0.577350 0.577351 -0.577350
vn -0.577350 0.577351 -0.577350
vn 0.577350 0.577351 -0.577350
vn 0.577350 -0.577351 -0.577350
vn -0.577350 -0.577351 -0.577350
vn -0.577350 -0.577351 -0.577350
vn 0.577350 -0.577351 -0.577350
vn 0.577350 -0.577351 0.577350
vn -0.577350 -0.577351 0.577350
vn 0.577350 -0.577351 0.577350
vn 0.577350 -0.577351 -0.577350
vn 0.577350 0.577351 -0.577350
vn 0.577350 0.577351 0.577350
vn -0.577350 -0.577351 -0.577350
vn -0.577350 -0.577351 0.577350
vn -0.577350 0.577351 0.577350
vn -0.577350 0.577351 -0.577350
s off
g Anvil_Bronze:pivot pivot Anvil_Bronze:polySurface1
usemtl initialShadingGroup
f 1/1/1 2/2/2 4/3/3 3/4/4
f 3/4/5 4/3/6 6/5/7 5/6/8
f 5/6/9 6/5/10 8/7/11 7/8/12
f 7/8/13 8/7/14 2/9/15 1/10/16
f 2/2/17 8/11/18 6/12/19 4/3/20
f 7/13/21 1/1/22 3/4/23 5/14/24
g default
v -0.050000 1.349473 0.050000
v 0.050000 1.349473 0.050000
v -0.050000 1.449473 0.050000
v 0.050000 1.449473 0.050000
v -0.050000 1.449473 -0.050000
v 0.050000 1.449473 -0.050000
v -0.050000 1.349473 -0.050000
v 0.050000 1.349473 -0.050000
vt 0.375000 0.000000
vt 0.625000 0.000000
vt 0.375000 0.250000
vt 0.625000 0.250000
vt 0.375000 0.500000
vt 0.625000 0.500000
vt 0.375000 0.750000
vt 0.625000 0.750000
vt 0.375000 1.000000
vt 0.625000 1.000000
vt 0.875000 0.000000
vt 0.875000 0.250000
vt 0.125000 0.000000
vt 0.125000 0.250000
vn 0.000000 0.000000 1.000000
vn 0.000000 0.000000 1.000000
vn 0.000000 0.000000 1.000000
vn 0.000000 0.000000 1.000000
vn 0.000000 1.000000 0.000000
vn 0.000000 1.000000 0.000000
vn 0.000000 1.000000 0.000000
vn 0.000000 1.000000 0.000000
vn 0.000000 0.000000 -1.000000
vn 0.000000 0.000000 -1.000000
vn 0.000000 0.000000 -1.000000
vn 0.000000 0.000000 -1.000000
vn 0.000000 -1.000000 0.000000
vn 0.000000 -1.000000 0.000000
vn 0.000000 -1.000000 0.000000
vn 0.000000 -1.000000 0.000000
vn 1.000000 0.000000 0.000000
vn 1.000000 0.000000 0.000000
vn 1.000000 0.000000 0.000000
vn 1.000000 0.000000 0.000000
vn -1.000000 0.000000 0.000000
vn -1.000000 0.000000 0.000000
vn -1.000000 0.000000 0.000000
vn -1.000000 0.000000 0.000000
s off
g craft_atch
usemtl initialShadingGroup
f 9/15/25 10/16/26 12/18/27 11/17/28
f 11/17/29 12/18/30 14/20/31 13/19/32
f 13/19/33 14/20/34 16/22/35 15/21/36
f 15/21/37 16/22/38 10/24/39 9/23/40
f 10/16/41 16/25/42 14/26/43 12/18/44
f 15/27/45 9/15/46 11/17/47 13/28/48
g Anvil_Bronze:default1
v 0.549682 0.000000 0.422586
v 0.549682 0.069777 0.422586
v 0.549682 0.069777 -0.422586
v 0.549682 0.000000 -0.422586
v 0.571058 0.639574 0.439020
v 0.571058 0.639574 -0.439019
v 0.798177 0.980762 0.439020
v 0.798177 0.980762 -0.439019
v 0.415752 0.565821 -0.319623
v 0.415752 0.565821 0.319623
v 0.434139 0.120433 -0.333758
v 0.434139 0.120433 0.333759
v 0.344238 0.482191 -0.264644
v 0.344238 0.482191 0.264645
v 0.347603 0.184043 -0.267231
v 0.347603 0.184043 0.267232
v 0.302232 0.373857 -0.232350
v 0.303818 0.277400 -0.233570
v 0.302232 0.373857 0.232351
v 0.303818 0.277400 0.233571
v 0.798177 0.741933 0.439020
v 0.798177 0.741933 -0.439019
v 0.903400 0.797124 0.347820
v 0.903400 0.797124 -0.347819
v 0.903400 0.980762 -0.347819
v 0.903400 0.980762 0.347820
v -0.549682 0.000000 0.422586
v -0.549682 0.069777 0.422586
v -0.549682 0.069777 -0.422586
v -0.549682 0.000000 -0.422586
v -0.571058 0.639574 0.439020
v -0.571058 0.639574 -0.439019
v -0.798177 0.980762 0.439020
v -0.798177 0.980762 -0.439019
v -0.415752 0.565821 -0.319623
v -0.415752 0.565821 0.319623
v -0.434139 0.120433 -0.333758
v -0.434139 0.120433 0.333759
v -0.344238 0.482191 -0.264644
v -0.344238 0.482191 0.264645
v -0.347603 0.184043 -0.267231
v -0.347603 0.184043 0.267232
v -0.302232 0.373857 -0.232350
v -0.303818 0.277400 -0.233570
v -0.302232 0.373857 0.232351
v -0.303818 0.277400 0.233571
v -0.798177 0.639574 0.439020
v -0.798177 0.639574 -0.439019
v -0.903400 0.639574 0.347820
v -0.903400 0.639574 -0.347819
v -0.903400 0.980762 -0.347819
v -0.903400 0.980762 0.347820
vt 0.994071 0.406765
vt 0.994071 0.425473
vt 0.725962 0.425472
vt 0.725962 0.406765
vt 0.586074 0.542552
vt 0.381532 0.542557
vt 0.352770 0.510601
vt 0.614897 0.510673
vt 0.900429 0.395488
vt 0.873510 0.364569
vt 0.873446 0.138756
vt 0.900349 0.107895
vt 0.034860 0.057015
vt 0.034860 0.007780
vt 0.255533 0.007780
vt 0.255533 0.057015
vt 0.742028 0.359744
vt 0.705050 0.400998
vt 0.704937 0.102330
vt 0.741965 0.143633
vt 0.617142 0.719392
vt 0.350649 0.719426
vt 0.387264 0.676446
vt 0.580609 0.676286
vt 0.849224 0.341442
vt 0.849125 0.161879
vt 0.564478 0.569389
vt 0.403219 0.569268
vt 0.768430 0.340734
vt 0.768362 0.162616
vt 0.404771 0.649030
vt 0.562941 0.649084
vt 0.415251 0.619713
vt 0.414770 0.595097
vt 0.553099 0.595434
vt 0.552292 0.619976
vt 0.393091 0.332165
vt 0.366980 0.343414
vt 0.367093 0.164044
vt 0.393178 0.175310
vt 0.447817 0.342704
vt 0.418189 0.331846
vt 0.418254 0.175596
vt 0.447866 0.164690
vt 0.798075 0.329856
vt 0.797988 0.173511
vt 0.823164 0.330170
vt 0.823047 0.173211
vt 0.351013 0.783996
vt 0.616733 0.783995
vt 0.616006 0.043571
vt 0.677899 0.043344
vt 0.379361 0.814422
vt 0.588335 0.814289
vt 0.662859 0.005701
vt 0.615816 0.005621
vt 0.284464 0.085226
vt 0.005929 0.085226
vt 0.600174 0.045477
vt 0.538262 0.045279
vt 0.553386 0.007690
vt 0.600481 0.007593
vt 0.725962 0.720222
vt 0.994070 0.720222
vt 0.994070 0.738930
vt 0.725962 0.738929
vt 0.245741 0.910346
vt 0.275179 0.942422
vt 0.008453 0.942471
vt 0.037755 0.910266
vt 0.255533 0.632909
vt 0.034860 0.632910
vt 0.034860 0.541434
vt 0.255533 0.541434
vt 0.277701 0.732702
vt 0.240322 0.775725
vt 0.043397 0.775500
vt 0.005929 0.732676
vt 0.223619 0.883351
vt 0.059866 0.883362
vt 0.222370 0.803076
vt 0.061284 0.802989
vt 0.072517 0.832514
vt 0.210915 0.832264
vt 0.211692 0.857096
vt 0.072071 0.857407
vt 0.006195 0.674088
vt 0.277383 0.674054
vt 0.035371 0.647420
vt 0.248193 0.647424
vt 0.616312 0.459843
vt 0.704179 0.497793
vt 0.616176 0.497580
vt 0.005929 0.513223
vt 0.284464 0.513223
vt 0.511785 0.462195
vt 0.599943 0.462041
vt 0.600042 0.499731
vt 0.297768 0.110218
vt 0.315844 0.110115
vt 0.315716 0.397310
vt 0.297615 0.397201
vt 0.918407 0.107985
vt 0.918514 0.395381
vt 0.342774 0.140965
vt 0.342660 0.366481
vt 0.511178 0.403079
vt 0.474207 0.361731
vt 0.474235 0.145639
vt 0.511226 0.104304
vt 0.704459 0.460088
vt 0.512010 0.499918
vn 1.000000 0.000000 0.000000
vn 1.000000 0.000000 0.000000
vn 1.000000 0.000000 0.000000
vn 1.000000 0.000000 0.000000
vn 0.445124 0.895469 0.000000
vn 0.445124 0.895469 0.000000
vn 0.401528 0.915847 0.000000
vn 0.401528 0.915847 0.000000
vn -0.000000 0.868672 -0.495388
vn -0.000000 0.842471 -0.538741
vn -0.000000 0.842471 -0.538741
vn -0.000000 0.868672 -0.495388
vn 0.757198 0.643074 0.114481
vn 0.984232 0.000000 0.176880
vn 0.984232 0.000000 -0.176880
vn 0.757198 0.643074 -0.114481
vn 0.000000 -0.806113 -0.591762
vn 0.000000 -0.084857 -0.996393
vn 0.000000 -0.086642 -0.996240
vn 0.000000 -0.806113 -0.591762
vn 0.415440 -0.909621 0.000000
vn 0.415440 -0.909621 0.000000
vn 0.496598 -0.867981 0.000000
vn 0.496598 -0.867981 0.000000
vn -0.000000 0.842471 -0.538741
vn -0.000000 0.616202 -0.787588
vn -0.000000 0.616202 -0.787588
vn -0.000000 0.842471 -0.538741
vn 0.705819 0.708392 0.000000
vn 0.705819 0.708392 0.000000
vn 0.445124 0.895469 0.000000
vn 0.445124 0.895469 0.000000
vn 0.000000 -0.461163 -0.887315
vn 0.000000 -0.806113 -0.591762
vn 0.000000 -0.806113 -0.591762
vn 0.000000 -0.461163 -0.887315
vn 0.496598 -0.867981 0.000000
vn 0.496598 -0.867981 0.000000
vn 0.830781 -0.556599 0.000000
vn 0.830781 -0.556599 0.000000
vn 0.976400 -0.215969 0.000000
vn 0.964951 0.262431 0.000000
vn 0.964951 0.262431 0.000000
vn 0.976400 -0.215969 0.000000
vn 0.000000 0.206313 0.978486
vn 0.000000 0.616203 0.787587
vn 0.000000 0.616203 0.787587
vn 0.000000 0.206313 0.978486
vn 0.705819 0.708392 0.000000
vn 0.705819 0.708392 0.000000
vn 0.964951 0.262431 0.000000
vn 0.964951 0.262431 0.000000
vn 0.000000 -0.461163 0.887316
vn 0.000000 -0.168815 0.985648
vn 0.000000 -0.168815 0.985648
vn 0.000000 -0.461163 0.887316
vn 0.976400 -0.215969 0.000000
vn 0.976400 -0.215969 0.000000
vn 0.830781 -0.556599 0.000000
vn 0.830781 -0.556599 0.000000
vn 0.000000 -0.168814 -0.985648
vn 0.000000 -0.461163 -0.887315
vn 0.000000 -0.461163 -0.887315
vn 0.000000 -0.168814 -0.985648
vn -0.000000 0.616202 -0.787588
vn 0.000000 0.206313 -0.978486
vn 0.000000 0.206313 -0.978486
vn -0.000000 0.616202 -0.787588
vn 0.420908 -0.907103 0.000000
vn 0.415440 -0.909621 0.000000
vn 0.415440 -0.909621 0.000000
vn 0.420908 -0.907103 0.000000
vn 0.000000 -0.086642 -0.996240
vn 0.013028 0.975480 -0.219702
vn 0.277991 0.000000 -0.960584
vn 0.464502 -0.885572 0.000000
vn 0.420908 -0.907103 0.000000
vn 0.420908 -0.907103 0.000000
vn 0.464502 -0.885572 0.000000
vn 0.984232 0.000000 -0.176880
vn 0.277991 0.000000 -0.960584
vn 0.013028 0.975480 -0.219702
vn 0.757198 0.643074 -0.114481
vn 0.757198 0.643074 -0.114481
vn 0.013028 0.975480 -0.219702
vn 0.013028 0.975480 0.219702
vn 0.757198 0.643074 0.114481
vn 0.013028 0.975480 0.219702
vn 0.277991 0.000000 0.960584
vn 0.984232 0.000000 0.176880
vn 0.757198 0.643074 0.114481
vn -1.000000 0.000000 0.000000
vn -1.000000 0.000000 0.000000
vn -1.000000 0.000000 0.000000
vn -1.000000 0.000000 0.000000
vn -0.445124 0.895469 0.000000
vn -0.401529 0.915846 0.000000
vn -0.401529 0.915846 0.000000
vn -0.445124 0.895469 0.000000
vn -0.997491 0.000000 -0.070799
vn -0.997491 0.000000 0.070799
vn -0.894871 0.441782 0.063515
vn -0.894871 0.441782 -0.063515
vn -0.117575 -0.993064 0.000000
vn -0.496598 -0.867981 0.000000
vn -0.496598 -0.867981 0.000000
vn -0.117575 -0.993064 0.000000
vn -0.705819 0.708392 0.000000
vn -0.445124 0.895469 0.000000
vn -0.445124 0.895469 0.000000
vn -0.705819 0.708392 0.000000
vn -0.496598 -0.867981 0.000000
vn -0.830781 -0.556599 0.000000
vn -0.830781 -0.556599 0.000000
vn -0.496598 -0.867981 0.000000
vn -0.976400 -0.215969 0.000000
vn -0.976400 -0.215969 0.000000
vn -0.964951 0.262431 0.000000
vn -0.964951 0.262431 0.000000
vn -0.705819 0.708392 0.000000
vn -0.964951 0.262431 0.000000
vn -0.964951 0.262431 0.000000
vn -0.705819 0.708392 0.000000
vn -0.976400 -0.215969 0.000000
vn -0.830781 -0.556599 0.000000
vn -0.830781 -0.556599 0.000000
vn -0.976400 -0.215969 0.000000
vn -0.117575 -0.993064 0.000000
vn -0.117575 -0.993064 0.000000
vn 0.000000 -1.000000 0.000000
vn 0.000000 -1.000000 0.000000
vn 0.000000 -1.000000 0.000000
vn 0.000000 -1.000000 0.000000
vn 0.000000 -1.000000 0.000000
vn 0.000000 -1.000000 0.000000
vn -0.010522 0.975499 -0.219753
vn -0.997491 0.000000 -0.070799
vn -0.894871 0.441782 -0.063515
vn -0.010522 0.975499 0.219753
vn -0.010522 0.975499 -0.219753
vn -0.894871 0.441782 -0.063515
vn -0.894871 0.441782 0.063515
vn -0.264633 0.000000 0.964349
vn -0.010522 0.975499 0.219753
vn -0.894871 0.441782 0.063515
vn 0.000000 0.000000 1.000000
vn 0.000000 0.000000 1.000000
vn 0.000000 0.000000 1.000000
vn 0.000000 0.000000 1.000000
vn 0.013028 0.975480 0.219702
vn 0.013028 0.975480 -0.219702
vn -0.010522 0.975499 -0.219753
vn -0.010522 0.975499 0.219753
vn 0.000000 0.000000 -1.000000
vn 0.000000 0.000000 -1.000000
vn 0.000000 0.000000 -1.000000
vn 0.000000 0.000000 -1.000000
vn 0.000000 -1.000000 0.000000
vn 0.000000 -1.000000 0.000000
vn 0.000000 -1.000000 0.000000
vn 0.000000 -1.000000 0.000000
vn 0.000000 0.868672 0.495388
vn 0.000000 0.868672 0.495388
vn 0.000000 0.842471 0.538742
vn 0.000000 0.842471 0.538742
vn 0.000000 -0.084857 0.996393
vn -0.010522 0.975499 0.219753
vn -0.264633 0.000000 0.964349
vn 0.000000 -0.806113 0.591761
vn 0.000000 -0.806113 0.591761
vn 0.000000 -0.086642 0.996240
vn 0.000000 -0.084857 0.996393
vn 0.000000 0.842471 0.538742
vn 0.000000 0.842471 0.538742
vn 0.000000 0.616203 0.787587
vn 0.000000 0.616203 0.787587
vn 0.000000 -0.461163 0.887316
vn 0.000000 -0.461163 0.887316
vn 0.000000 -0.806113 0.591761
vn 0.000000 -0.806113 0.591761
vn 0.000000 0.206313 0.978486
vn 0.000000 0.206313 0.978486
vn 0.000000 -0.168815 0.985648
vn 0.000000 -0.168815 0.985648
vn 0.000000 -0.168814 -0.985648
vn 0.000000 -0.168814 -0.985648
vn 0.000000 0.206313 -0.978486
vn 0.000000 0.206313 -0.978486
vn 0.000000 -0.086642 0.996240
vn 0.277991 0.000000 0.960584
vn 0.013028 0.975480 0.219702
vn 0.000000 -0.086642 0.996240
vn 0.013028 0.975480 0.219702
vn -0.010522 0.975499 0.219753
vn 0.000000 -0.084857 0.996393
vn -0.010522 0.975499 -0.219753
vn 0.000000 -0.084857 -0.996393
vn -0.264633 0.000000 -0.964349
vn -0.010522 0.975499 -0.219753
vn 0.013028 0.975480 -0.219702
vn 0.000000 -0.086642 -0.996240
vn 0.000000 -0.084857 -0.996393
vn -0.010522 0.975499 -0.219753
vn -0.264633 0.000000 -0.964349
vn -0.997491 0.000000 -0.070799
vn -0.264633 0.000000 0.964349
vn -0.894871 0.441782 0.063515
vn -0.997491 0.000000 0.070799
s off
g Anvil_Bronze:group36 Anvil_Bronze:polySurface45 Anvil_Bronze:polySurface1 anvil_bronze
usemtl initialShadingGroup
f 18/29/49 17/30/50 20/31/51 19/32/52
f 27/33/53 28/34/54 18/35/55 19/36/56
f 45/37/57 53/38/58 27/39/59 19/40/60
f 42/41/61 39/42/62 40/43/63 41/44/64
f 51/45/65 48/46/66 22/47/67 25/48/68
f 22/49/69 21/50/70 26/51/71 25/52/72
f 53/38/73 57/53/74 31/54/75 27/39/76
f 31/55/77 32/56/78 28/34/79 27/33/80
f 55/57/81 51/45/82 25/48/83 29/58/84
f 25/52/85 26/51/86 30/59/87 29/60/88
f 35/61/89 36/62/90 34/63/91 33/64/92
f 62/65/93 58/66/94 32/67/95 36/68/96
f 32/56/97 31/55/98 34/63/99 36/62/100
f 56/69/101 61/70/102 35/71/103 30/72/104
f 35/61/105 33/64/106 29/60/107 30/59/108
f 59/73/109 55/57/110 29/58/111 33/74/112
f 57/53/113 60/75/114 34/76/115 31/54/116
f 37/77/117 21/50/118 22/49/119 38/78/120
f 22/47/121 24/79/122 38/80/123
f 39/81/124 37/77/125 38/78/126 40/82/127
f 40/83/128 38/80/129 24/79/130 41/84/131
f 41/44/132 24/85/133 23/86/134 42/41/135
f 23/87/136 37/88/137 39/89/138 42/90/139
f 46/91/140 43/92/141 44/93/142 45/94/143
f 53/95/144 45/96/145 44/97/146 54/98/147
f 66/99/148 65/100/149 68/101/150 67/102/151
f 48/103/152 51/104/153 52/105/154 47/106/155
f 57/107/156 53/95/157 54/98/158 58/108/159
f 51/104/160 55/109/161 56/110/162 52/105/163
f 61/111/164 59/112/165 60/113/166 62/114/167
f 58/108/168 62/114/169 60/113/170 57/107/171
f 61/111/172 56/110/173 55/109/174 59/112/175
f 48/103/176 47/106/177 63/115/178 64/116/179
f 64/116/180 63/115/181 65/117/182 66/118/183
f 50/119/184 66/120/185 67/121/186
f 49/122/187 50/123/188 67/102/189 68/101/190
f 63/124/191 49/125/192 68/126/193
f 17/127/194 18/128/195 44/129/196 43/130/197
f 23/86/198 24/85/199 50/123/200 49/122/201
f 19/40/202 20/131/203 46/132/204 45/37/205
f 20/31/206 17/30/207 43/92/208 46/91/209
f 44/129/210 18/128/211 28/133/212 54/134/213
f 47/135/214 49/125/215 63/124/216
f 52/136/217 26/137/218 21/138/219 47/135/220
f 54/134/221 28/133/222 32/67/223 58/66/224
f 56/69/225 30/72/226 26/137/227 52/136/228
f 62/65/229 36/68/230 35/71/231 61/70/232
f 59/73/233 33/74/234 34/76/235 60/75/236
f 21/138/237 37/88/238 23/87/239
f 21/138/240 23/87/241 49/125/242 47/135/243
f 50/119/244 48/46/245 64/139/246
f 50/119/247 24/79/248 22/47/249 48/46/250
f 50/119/251 64/139/252 66/120/253
f 63/124/254 68/126/255 65/140/256
g Anvil_Bronze:default1
v 0.549682 0.000000 0.422586
v 0.549682 0.000000 -0.422586
v 0.571058 0.639574 0.439020
v 0.571058 0.639574 -0.439020
v 0.798177 0.980762 0.439020
v 0.798177 0.980762 -0.439020
v 0.314559 0.453449 -0.241827
v 0.314559 0.453449 0.241827
v 0.303818 0.229446 -0.233570
v 0.303818 0.229446 0.233570
v 0.798177 0.741933 0.439020
v 0.798177 0.741933 -0.439020
v 0.903400 0.797124 0.347820
v 0.903400 0.797124 -0.347820
v 0.903400 0.980762 -0.347820
v 0.903400 0.980762 0.347820
v -0.549682 0.000000 0.422586
v -0.549682 0.000000 -0.422586
v -0.571058 0.639574 0.439020
v -0.571058 0.639574 -0.439020
v -0.798177 0.980762 0.439020
v -0.798177 0.980762 -0.439020
v -0.314559 0.453449 -0.241827
v -0.314559 0.453449 0.241827
v -0.303818 0.229446 -0.233570
v -0.303818 0.229446 0.233570
v -0.798177 0.639574 0.439020
v -0.798177 0.639574 -0.439020
v -0.903400 0.639574 0.347820
v -0.903400 0.639574 -0.347820
v -0.903400 0.980762 -0.347820
v -0.903400 0.980762 0.347820
vt 0.804230 0.981283
vt 0.668153 0.766013
vt 0.668153 0.233986
vt 0.804230 0.018716
vt 1.000000 0.103868
vt 1.000000 0.896132
vt 1.000000 0.896132
vt 1.000000 0.103868
vt 0.941763 1.000000
vt 0.816061 1.000000
vt 0.183939 1.000000
vt 0.058237 1.000000
vt 0.674097 0.775417
vt 0.325903 0.775417
vt 0.816061 -0.000000
vt 0.674097 0.224583
vt 0.325903 0.224583
vt 0.331847 0.233986
vt 0.331847 0.766013
vt 0.195770 0.981283
vt 0.941763 1.000000
vt 0.941763 -0.000000
vt 0.941763 -0.000000
vt 0.195770 0.018717
vt 0.000000 0.103868
vt 0.000000 0.103868
vt 0.000000 0.896132
vt 0.000000 0.896132
vt 0.183939 -0.000000
vt 0.058237 -0.000000
vt 0.058237 1.000000
vt 0.058237 -0.000000
vn 0.682276 0.731095 0.000000
vn 0.825339 0.564637 0.000000
vn 0.825339 0.564637 0.000000
vn 0.682276 0.731095 0.000000
vn 1.000000 0.000000 0.000000
vn 1.000000 0.000000 0.000000
vn 1.000000 0.000000 0.000000
vn 1.000000 0.000000 0.000000
vn -0.000000 0.000000 -1.000000
vn -0.000000 0.000000 -1.000000
vn 0.000000 0.000000 -1.000000
vn 0.000000 0.000000 -1.000000
vn 0.000000 -0.727220 -0.686405
vn 0.000000 -0.727220 -0.686405
vn 0.000000 -0.568983 -0.822349
vn 0.000000 -0.568983 -0.822349
vn 0.478527 -0.878073 0.000000
vn 0.747448 -0.664320 0.000000
vn 0.747448 -0.664320 0.000000
vn 0.478527 -0.878073 0.000000
vn 0.825339 0.564637 0.000000
vn 0.825339 0.564637 0.000000
vn 0.747448 -0.664320 0.000000
vn 0.747448 -0.664320 0.000000
vn 0.000000 0.469267 0.883056
vn 0.000000 -0.568983 0.822349
vn 0.000000 -0.568983 0.822349
vn 0.000000 0.469267 0.883056
vn -0.000000 0.469267 -0.883056
vn 0.000000 -0.568983 -0.822349
vn 0.000000 -0.568983 -0.822349
vn -0.000000 0.469267 -0.883056
vn -0.000000 0.635828 -0.771830
vn -0.000000 0.469267 -0.883056
vn -0.000000 0.469267 -0.883056
vn -0.000000 0.635828 -0.771830
vn 0.478527 -0.878073 0.000000
vn 0.478527 -0.878073 0.000000
vn 0.420908 -0.907103 0.000000
vn 0.420908 -0.907103 0.000000
vn -0.000000 0.000000 -1.000000
vn -0.000000 0.000000 -1.000000
vn -0.000000 0.000000 -1.000000
vn 0.000000 0.000000 1.000000
vn 0.000000 0.000000 1.000000
vn 0.000000 0.000000 1.000000
vn 0.420908 -0.907103 0.000000
vn 0.420908 -0.907103 0.000000
vn 0.464502 -0.885572 0.000000
vn 0.464502 -0.885572 0.000000
vn 0.654963 0.000000 -0.755661
vn 0.654963 0.000000 -0.755661
vn 0.654963 0.000000 -0.755661
vn 0.654963 0.000000 -0.755661
vn 0.000000 1.000000 0.000000
vn 0.000000 1.000000 0.000000
vn 0.000000 1.000000 0.000000
vn 0.000000 1.000000 0.000000
vn 0.654963 0.000000 0.755661
vn 0.654963 0.000000 0.755661
vn 0.654962 0.000000 0.755661
vn 0.654963 0.000000 0.755661
vn -0.682276 0.731095 0.000000
vn -0.682276 0.731095 0.000000
vn -0.825339 0.564637 0.000000
vn -0.825339 0.564637 0.000000
vn -1.000000 0.000000 0.000000
vn -1.000000 0.000000 0.000000
vn -1.000000 0.000000 0.000000
vn -1.000000 0.000000 0.000000
vn -0.241482 -0.970405 0.000000
vn -0.241482 -0.970405 0.000000
vn -0.747448 -0.664320 0.000000
vn -0.747448 -0.664320 0.000000
vn -0.825339 0.564637 0.000000
vn -0.747448 -0.664320 0.000000
vn -0.747448 -0.664320 0.000000
vn -0.825339 0.564637 0.000000
vn -0.241482 -0.970405 0.000000
vn 0.000000 -1.000000 0.000000
vn 0.000000 -1.000000 0.000000
vn -0.241482 -0.970405 0.000000
vn 0.000000 0.000000 -1.000000
vn 0.000000 0.000000 -1.000000
vn 0.000000 0.000000 -1.000000
vn 0.000000 0.000000 1.000000
vn 0.000000 0.000000 1.000000
vn 0.000000 0.000000 1.000000
vn 0.000000 -1.000000 0.000000
vn 0.000000 -1.000000 0.000000
vn 0.000000 -1.000000 0.000000
vn 0.000000 -1.000000 0.000000
vn -0.654963 0.000000 -0.755661
vn -0.654963 0.000000 -0.755661
vn -0.654963 0.000000 -0.755661
vn -0.654963 0.000000 -0.755661
vn 0.000000 1.000000 0.000000
vn 0.000000 1.000000 0.000000
vn 0.000000 1.000000 0.000000
vn 0.000000 1.000000 0.000000
vn -0.654963 0.000000 0.755661
vn -0.654963 0.000000 0.755661
vn -0.654963 0.000000 0.755661
vn -0.654963 0.000000 0.755661
vn 0.000000 0.635828 0.771830
vn 0.000000 0.635828 0.771830
vn 0.000000 0.469267 0.883056
vn 0.000000 0.469267 0.883056
vn 0.000000 1.000000 0.000000
vn 0.000000 1.000000 0.000000
vn 0.000000 1.000000 0.000000
vn 0.000000 1.000000 0.000000
vn 0.000000 -1.000000 0.000000
vn 0.000000 -1.000000 0.000000
vn 0.000000 -1.000000 0.000000
vn 0.000000 -1.000000 0.000000
vn 0.000000 0.000000 1.000000
vn 0.000000 0.000000 1.000000
vn 0.000000 0.000000 1.000000
vn 0.000000 0.000000 1.000000
vn 0.000000 -0.727220 0.686405
vn 0.000000 -0.727220 0.686405
vn 0.000000 -0.568983 0.822349
vn 0.000000 -0.568983 0.822349
s off
g Anvil_Bronze:_coll Anvil_Bronze:polySurface1 anvil_bronze_coll
usemtl initialShadingGroup
f 70/141/257 77/142/258 78/143/259 69/144/260
f 81/145/261 82/146/262 83/147/263 84/148/264
f 74/149/265 72/150/266 88/151/267 90/152/268
f 88/151/269 72/150/270 75/153/271 91/154/272
f 71/155/273 76/156/274 75/153/275 72/150/276
f 78/143/277 77/142/278 75/153/279 76/156/280
f 78/143/281 76/156/282 92/157/283 94/158/284
f 93/159/285 91/154/286 75/153/287 77/142/288
f 86/160/289 93/159/290 77/142/291 70/141/292
f 71/155/293 72/150/294 80/161/295 79/162/296
f 72/150/297 74/149/298 80/161/299
f 73/163/300 71/155/301 79/162/302
f 79/162/303 80/161/304 82/146/305 81/145/306
f 80/161/307 74/149/308 83/147/309 82/146/310
f 74/149/311 73/163/312 84/148/313 83/147/314
f 73/163/315 79/162/316 81/145/317 84/148/318
f 86/160/319 85/164/320 94/158/321 93/159/322
f 97/165/323 100/166/324 99/167/325 98/168/326
f 87/169/327 88/151/328 91/154/329 92/157/330
f 94/158/331 92/157/332 91/154/333 93/159/334
f 87/169/335 95/170/336 96/171/337 88/151/338
f 88/151/339 96/171/340 90/152/341
f 89/172/342 95/170/343 87/169/344
f 95/170/345 97/165/346 98/168/347 96/171/348
f 96/171/349 98/168/350 99/167/351 90/152/352
f 90/152/353 99/167/354 100/166/355 89/172/356
f 89/172/357 100/166/358 97/165/359 95/170/360
f 85/164/361 69/144/362 78/143/363 94/158/364
f 74/149/365 90/152/366 89/172/367 73/163/368
f 69/144/369 85/164/370 86/160/371 70/141/372
f 73/163/373 89/172/374 87/169/375 71/155/376
f 71/155/377 87/169/378 92/157/379 76/156/380
