# This file uses centimeters as units for non-parametric coordinates.

mtllib Sheet_Table_Pour.mtl
g default
v -0.050000 -0.050000 0.050000
v 0.050000 -0.050000 0.050000
v -0.050000 0.050000 0.050000
v 0.050000 0.050000 0.050000
v -0.050000 0.050000 -0.050000
v 0.050000 0.050000 -0.050000
v -0.050000 -0.050000 -0.050000
v 0.050000 -0.050000 -0.050000
vt 0.375000 0.000000
vt 0.625000 0.000000
vt 0.625000 0.250000
vt 0.375000 0.250000
vt 0.625000 0.500000
vt 0.375000 0.500000
vt 0.625000 0.750000
vt 0.375000 0.750000
vt 0.625000 1.000000
vt 0.375000 1.000000
vt 0.875000 0.000000
vt 0.875000 0.250000
vt 0.125000 0.000000
vt 0.125000 0.250000
vn 0.000000 0.000000 1.000000
vn 0.000000 0.000000 1.000000
vn 0.000000 0.000000 1.000000
vn 0.000000 0.000000 1.000000
vn 0.000000 1.000000 0.000000
vn 0.000000 1.000000 0.000000
vn 0.000000 1.000000 0.000000
vn 0.000000 1.000000 0.000000
vn 0.000000 0.000000 -1.000000
vn 0.000000 0.000000 -1.000000
vn 0.000000 0.000000 -1.000000
vn 0.000000 0.000000 -1.000000
vn 0.000000 -1.000000 0.000000
vn 0.000000 -1.000000 0.000000
vn 0.000000 -1.000000 0.000000
vn 0.000000 -1.000000 0.000000
vn 1.000000 0.000000 0.000000
vn 1.000000 0.000000 0.000000
vn 1.000000 0.000000 0.000000
vn 1.000000 0.000000 0.000000
vn -1.000000 0.000000 0.000000
vn -1.000000 0.000000 0.000000
vn -1.000000 0.000000 0.000000
vn -1.000000 0.000000 0.000000
s off
g pivot
usemtl initialShadingGroup
f 1/1/1 2/2/2 4/3/3 3/4/4
f 3/4/5 4/3/6 6/5/7 5/6/8
f 5/6/9 6/5/10 8/7/11 7/8/12
f 7/8/13 8/7/14 2/9/15 1/10/16
f 2/2/17 8/11/18 6/12/19 4/3/20
f 7/13/21 1/1/22 3/4/23 5/14/24
g default
v -1.219456 -0.022794 1.581592
v 1.219456 -0.022794 1.581592
v -1.219456 -0.022794 -1.581592
v 1.219456 -0.022794 -1.581592
v -1.219456 -0.022794 0.000000
v 1.219456 -0.022794 0.000000
v 0.000000 -0.022794 -1.581592
v 0.000000 -0.022794 0.000000
v 0.000000 -0.022794 1.581592
v 0.000000 0.022794 -1.581592
v 1.219456 0.022794 0.000000
v 1.219456 0.022794 -1.581592
v 0.000000 0.022794 1.581592
v 1.219456 0.022794 1.581592
v -1.219456 0.022794 0.000000
v -1.219456 0.022794 -1.581592
v -1.219456 0.022794 1.581592
v 0.000000 0.022794 0.000000
vt 0.984638 0.111269
vt 0.013105 0.880546
vt 0.984638 0.880546
vt 0.013105 0.880546
vt 0.984639 0.111269
vt 0.984639 0.880546
vt 0.013105 0.880546
vt 0.984639 0.111269
vt 0.984639 0.880546
vt 0.984638 0.880546
vt 0.984638 0.111269
vt 0.013105 0.880546
vt 0.013105 0.111270
vt 0.013105 0.111270
vt 0.013105 0.111270
vt 0.013105 0.111270
vt 0.984638 0.111269
vt 0.013105 0.880546
vt 0.984638 0.880546
vt 0.013105 0.880546
vt 0.984639 0.111269
vt 0.984639 0.880546
vt 0.013105 0.880546
vt 0.984639 0.111269
vt 0.984639 0.880546
vt 0.984638 0.880546
vt 0.984638 0.111269
vt 0.013105 0.880546
vt 0.013105 0.111270
vt 0.013105 0.111270
vt 0.013105 0.111270
vt 0.013105 0.111270
vt 0.013105 0.880546
vt 0.984638 0.880546
vt 0.984638 0.111269
vt 0.984639 0.111269
vt 0.984639 0.880546
vt 0.013105 0.880546
vt 0.984639 0.111269
vt 0.984639 0.880546
vt 0.013105 0.880546
vt 0.984638 0.880546
vt 0.984638 0.111269
vt 0.013105 0.880546
vn 0.000000 1.000000 0.000000
vn 0.000000 1.000000 0.000000
vn 0.000000 1.000000 0.000000
vn 0.000000 1.000000 0.000000
vn 0.000000 1.000000 0.000000
vn 0.000000 1.000000 0.000000
vn 0.000000 1.000000 0.000000
vn 0.000000 1.000000 0.000000
vn 0.000000 1.000000 0.000000
vn 0.000000 1.000000 0.000000
vn 0.000000 1.000000 0.000000
vn 0.000000 1.000000 0.000000
vn 0.000000 1.000000 0.000000
vn 0.000000 1.000000 0.000000
vn 0.000000 1.000000 0.000000
vn 0.000000 1.000000 0.000000
vn 0.000000 1.000000 0.000000
vn 0.000000 1.000000 0.000000
vn 0.000000 1.000000 0.000000
vn 0.000000 1.000000 0.000000
vn 0.000000 1.000000 0.000000
vn 0.000000 1.000000 0.000000
vn 0.000000 1.000000 0.000000
vn 0.000000 1.000000 0.000000
vn 0.000000 -1.000000 0.000000
vn 0.000000 -1.000000 0.000000
vn 0.000000 -1.000000 0.000000
vn 0.000000 -1.000000 0.000000
vn 0.000000 -1.000000 0.000000
vn 0.000000 -1.000000 0.000000
vn 0.000000 -1.000000 0.000000
vn 0.000000 -1.000000 0.000000
vn 0.000000 -1.000000 0.000000
vn 0.000000 -1.000000 0.000000
vn 0.000000 -1.000000 0.000000
vn 0.000000 -1.000000 0.000000
vn 0.000000 -1.000000 0.000000
vn 0.000000 -1.000000 0.000000
vn 0.000000 -1.000000 0.000000
vn 0.000000 -1.000000 0.000000
vn 0.000000 -1.000000 0.000000
vn 0.000000 -1.000000 0.000000
vn 0.000000 -1.000000 0.000000
vn 0.000000 -1.000000 0.000000
vn 0.000000 -1.000000 0.000000
vn 0.000000 -1.000000 0.000000
vn 0.000000 -1.000000 0.000000
vn 0.000000 -1.000000 0.000000
vn 1.000000 0.000000 0.000000
vn 1.000000 0.000000 0.000000
vn 1.000000 0.000000 0.000000
vn 1.000000 0.000000 0.000000
vn 0.000000 0.000000 -1.000000
vn 0.000000 0.000000 -1.000000
vn 0.000000 0.000000 -1.000000
vn 0.000000 0.000000 -1.000000
vn 0.000000 0.000000 1.000000
vn 0.000000 0.000000 1.000000
vn 0.000000 0.000000 1.000000
vn 0.000000 0.000000 1.000000
vn 1.000000 0.000000 0.000000
vn 1.000000 0.000000 0.000000
vn 0.000000 0.000000 -1.000000
vn 0.000000 0.000000 -1.000000
vn -1.000000 0.000000 0.000000
vn -1.000000 -0.000000 0.000000
vn -1.000000 -0.000000 0.000000
vn -1.000000 0.000000 0.000000
vn 0.000000 0.000000 1.000000
vn 0.000000 0.000000 1.000000
vn -1.000000 -0.000000 0.000000
vn -1.000000 -0.000000 0.000000
s off
g polySurface1704
usemtl initialShadingGroup
f 18/49/25 19/47/26 20/48/27
f 19/52/28 21/50/29 22/51/30
f 23/55/31 18/53/32 24/54/33
f 25/56/34 21/57/35 23/58/36
f 23/58/37 21/57/38 26/27/39
f 23/55/40 26/28/41 18/53/42
f 18/49/43 26/29/44 19/47/45
f 26/30/46 21/50/47 19/52/48
f 15/31/49 12/33/50 14/32/51
f 14/34/52 10/36/53 17/35/54
f 13/37/55 11/39/56 15/38/57
f 9/40/58 13/42/59 17/41/60
f 13/42/61 16/43/62 17/41/63
f 13/37/64 15/38/65 16/44/66
f 15/31/67 14/32/68 16/45/69
f 16/46/70 14/34/71 17/35/72
s 1
f 14/16/73 12/17/74 20/48/75 19/47/76
s 2
f 12/17/77 15/15/78 18/49/79 20/48/80
s 3
f 17/19/81 10/20/82 22/51/83 21/50/84
s 1
f 10/20/85 14/18/73 19/52/76 22/51/86
s 2
f 15/22/78 11/23/87 24/54/88 18/53/79
s 4
f 11/23/89 13/21/90 23/55/91 24/54/92
s 3
f 9/24/93 17/25/81 21/57/84 25/56/94
s 4
f 13/26/90 9/24/95 25/56/96 23/58/91
g default
v -1.219456 -0.024283 1.581592
v 1.219456 -0.024283 1.581592
v -1.219456 -0.024283 -1.581592
v 1.219456 -0.024283 -1.581592
v -1.219456 0.024283 1.581592
v 1.219456 0.024283 -1.581592
v -1.219456 0.024283 -1.581592
v 1.219456 0.024283 1.581592
vt 0.013105 0.880546
vt 0.984639 0.111269
vt 0.984639 0.880546
vt 0.013105 0.111270
vt 0.013105 0.880546
vt 0.984639 0.880546
vt 0.984639 0.111269
vt 0.013105 0.111270
vt 0.984639 0.111269
vt 0.984639 0.880546
vt 0.013105 0.880546
vt 0.013105 0.111270
vn 0.000000 1.000000 0.000000
vn 0.000000 1.000000 0.000000
vn 0.000000 1.000000 0.000000
vn 0.000000 1.000000 0.000000
vn 0.000000 1.000000 0.000000
vn 0.000000 1.000000 0.000000
vn 0.000000 -1.000000 0.000000
vn 0.000000 -1.000000 0.000000
vn 0.000000 -1.000000 0.000000
vn 0.000000 -1.000000 0.000000
vn 0.000000 -1.000000 0.000000
vn 0.000000 -1.000000 0.000000
vn 0.000000 0.000000 -1.000000
vn 0.000000 0.000000 -1.000000
vn 0.000000 0.000000 -1.000000
vn 0.000000 0.000000 -1.000000
vn -1.000000 0.000000 0.000000
vn -1.000000 0.000000 0.000000
vn -1.000000 0.000000 0.000000
vn -1.000000 0.000000 0.000000
vn 0.000000 0.000000 1.000000
vn 0.000000 0.000000 1.000000
vn 0.000000 0.000000 1.000000
vn 0.000000 0.000000 1.000000
vn 1.000000 0.000000 0.000000
vn 1.000000 0.000000 0.000000
vn 1.000000 0.000000 0.000000
vn 1.000000 0.000000 0.000000
s off
g _coll
usemtl initialShadingGroup
f 31/59/97 32/60/98 33/61/99
f 31/59/100 34/62/101 32/60/102
f 27/63/103 29/64/104 30/65/105
f 27/63/106 30/65/107 28/66/108
f 30/67/109 29/68/110 33/61/111 32/60/112
f 29/68/113 27/69/114 31/59/115 33/61/116
f 27/69/117 28/70/118 34/62/119 31/59/120
f 28/70/121 30/67/122 32/60/123 34/62/124
