# This file uses centimeters as units for non-parametric coordinates.

mtllib Wooden_Mallet.mtl
g default
v 0.918895 0.058988 -0.299633
v 0.881171 0.106293 -0.299633
v 0.826657 0.132545 -0.299633
v 0.766152 0.132545 -0.299633
v 0.711638 0.106293 -0.299633
v 0.673913 0.058988 -0.299633
v 0.660451 0.000000 -0.299633
v 0.673913 -0.058988 -0.299633
v 0.711638 -0.106293 -0.299633
v 0.766152 -0.132545 -0.299633
v 0.826657 -0.132545 -0.299633
v 0.881171 -0.106293 -0.299633
v 0.918895 -0.058988 -0.299633
v 0.932360 -0.000000 -0.299633
v 0.918895 0.058988 0.299633
v 0.881171 0.106293 0.299633
v 0.826657 0.132545 0.299633
v 0.766152 0.132545 0.299633
v 0.711638 0.106293 0.299633
v 0.673913 0.058988 0.299633
v 0.660451 0.000000 0.299633
v 0.673913 -0.058988 0.299633
v 0.711638 -0.106293 0.299633
v 0.766152 -0.132545 0.299633
v 0.826657 -0.132545 0.299633
v 0.881171 -0.106293 0.299633
v 0.918895 -0.058988 0.299633
v 0.932360 -0.000000 0.299633
v 0.796405 -0.000000 -0.318353
v 0.796405 -0.000000 0.318353
v 0.752181 0.193756 0.265295
v 0.840629 0.193756 0.265295
v 0.920316 0.155380 0.265295
v 0.975463 0.086229 0.265295
v 0.995144 -0.000000 0.265295
v 0.975463 -0.086229 0.265295
v 0.920316 -0.155380 0.265295
v 0.840629 -0.193756 0.265295
v 0.752181 -0.193756 0.265295
v 0.672494 -0.155380 0.265295
v 0.617347 -0.086229 0.265295
v 0.597667 0.000000 0.265295
v 0.617347 0.086229 0.265295
v 0.672494 0.155380 0.265295
v 0.752181 0.193756 -0.263405
v 0.840629 0.193756 -0.263405
v 0.920316 0.155380 -0.263405
v 0.975463 0.086229 -0.263405
v 0.995144 -0.000000 -0.263405
v 0.975463 -0.086229 -0.263405
v 0.920316 -0.155380 -0.263405
v 0.840629 -0.193756 -0.263405
v 0.752181 -0.193756 -0.263405
v 0.672494 -0.155380 -0.263405
v 0.617347 -0.086229 -0.263405
v 0.597667 0.000000 -0.263405
v 0.617347 0.086229 -0.263405
v 0.672494 0.155380 -0.263405
v -0.539814 -0.047444 0.046988
v -0.539814 -0.026824 0.064029
v 0.378653 -0.047444 0.046988
v 0.378653 -0.026824 0.064029
v -0.539814 0.047444 0.046988
v -0.539814 0.026824 0.064029
v 0.378653 0.047444 0.046988
v 0.378653 0.026824 0.064029
v -0.539814 0.026824 -0.064029
v -0.539814 0.047444 -0.046988
v 0.378653 0.047444 -0.046988
v 0.378653 0.026824 -0.064029
v -0.539814 -0.047444 -0.046988
v -0.539814 -0.026824 -0.064029
v 0.378653 -0.026824 -0.064029
v 0.378653 -0.047444 -0.046988
v 0.608325 0.041245 0.038621
v 0.603795 0.020625 0.055662
v 0.603795 0.020625 -0.055662
v 0.608325 0.041245 -0.038621
v 0.608325 -0.041245 -0.038621
v 0.603795 -0.020625 -0.055662
v 0.603795 -0.020625 0.055662
v 0.608325 -0.041245 0.038621
v -0.577497 0.024258 0.042492
v -0.577497 -0.024258 0.042492
v -0.577497 0.024258 -0.042492
v -0.577497 -0.024258 -0.042492
vt 0.773999 0.064574
vt 0.741070 0.090643
vt 0.702050 0.060244
vt 0.752034 0.020255
vt 0.814644 0.149746
vt 0.722712 0.128419
vt 0.674367 0.117960
vt 0.814979 0.055372
vt 0.814418 0.005913
vt 0.722563 0.170420
vt 0.674468 0.181972
vt 0.855894 0.064865
vt 0.876847 0.020059
vt 0.740651 0.208323
vt 0.702332 0.239600
vt 0.888636 0.091167
vt 0.926956 0.059891
vt 0.773396 0.234628
vt 0.752441 0.279432
vt 0.906725 0.129074
vt 0.954820 0.117520
vt 0.814308 0.244118
vt 0.814870 0.293578
vt 0.906575 0.171073
vt 0.954920 0.181532
vt 0.855289 0.234919
vt 0.877254 0.279236
vt 0.888219 0.208848
vt 0.927237 0.239247
vt 0.895228 0.359149
vt 0.928099 0.385550
vt 0.853822 0.444365
vt 0.916016 0.314704
vt 0.966115 0.354530
vt 0.946262 0.423602
vt 0.854148 0.349621
vt 0.993972 0.412148
vt 0.853599 0.300559
vt 0.946114 0.465772
vt 0.813011 0.358862
vt 0.994071 0.476149
vt 0.791227 0.314897
vt 0.927692 0.503691
vt 0.779955 0.385036
vt 0.966391 0.533852
vt 0.741251 0.354877
vt 0.894630 0.529870
vt 0.761527 0.422963
vt 0.916417 0.573833
vt 0.713572 0.412582
vt 0.853492 0.539107
vt 0.761381 0.465126
vt 0.854044 0.588170
vt 0.713671 0.476581
vt 0.812419 0.529584
vt 0.779542 0.503178
vt 0.791627 0.574025
vt 0.741528 0.534199
vt 0.292583 0.256326
vt 0.292402 0.193606
vt 0.660340 0.193612
vt 0.660150 0.256324
vt 0.292275 0.130860
vt 0.660476 0.130881
vt 0.292922 0.318945
vt 0.659809 0.318921
vt 0.292188 0.068090
vt 0.660565 0.068111
vt 0.293637 0.381640
vt 0.659103 0.381582
vt 0.293040 0.444203
vt 0.660604 0.883394
vt 0.292141 0.883364
vt 0.659704 0.444180
vt 0.292691 0.506881
vt 0.660047 0.506880
vt 0.292471 0.569640
vt 0.660257 0.569648
vt 0.292328 0.632442
vt 0.078097 0.867346
vt 0.078098 0.902576
vt 0.660392 0.632460
vt 0.292232 0.695154
vt 0.660485 0.695173
vt 0.292155 0.757924
vt 0.660567 0.757953
vt 0.292123 0.820623
vt 0.660612 0.820646
vt 0.292143 0.005383
vt 0.139810 0.902574
vt 0.139809 0.867345
vt 0.660605 0.005413
vt 0.274355 0.867346
vt 0.212643 0.867346
vt 0.020903 0.839981
vt 0.020903 0.173029
vt 0.059859 0.173029
vt 0.059859 0.839981
vt 0.005929 0.839981
vt 0.005929 0.173029
vt 0.025404 0.009541
vt 0.055358 0.009541
vt 0.074833 0.839981
vt 0.074833 0.173029
vt 0.057996 0.867346
vt 0.022766 0.867346
vt 0.010431 0.006251
vt 0.075620 0.006251
vt 0.277620 0.839981
vt 0.277619 0.173029
vt 0.143074 0.173029
vt 0.143074 0.839981
vt 0.192541 0.867345
vt 0.136998 0.006251
vt 0.155448 0.839981
vt 0.155448 0.173029
vt 0.271544 0.006251
vt 0.210165 0.006251
vt 0.154661 0.009540
vt 0.209379 0.173029
vt 0.157312 0.867345
vt 0.194405 0.173029
vt 0.194405 0.839981
vt 0.209379 0.839981
vt 0.189903 0.009540
vn 0.334915 0.161290 -0.928341
vn 0.231769 0.290631 -0.928341
vn 0.621331 0.779125 -0.083140
vn 0.897849 0.432383 -0.083140
vn 0.082717 0.362410 -0.928341
vn 0.221750 0.971553 -0.083140
vn -0.082717 0.362410 -0.928341
vn -0.221751 0.971553 -0.083140
vn -0.231769 0.290632 -0.928340
vn -0.621331 0.779125 -0.083140
vn -0.334921 0.161287 -0.928340
vn -0.897850 0.432381 -0.083138
vn -0.371731 -0.000000 -0.928340
vn -0.996538 -0.000001 -0.083139
vn -0.334921 -0.161287 -0.928340
vn -0.897850 -0.432381 -0.083138
vn -0.231770 -0.290632 -0.928340
vn -0.621332 -0.779124 -0.083140
vn -0.082717 -0.362410 -0.928341
vn -0.221751 -0.971552 -0.083140
vn 0.082717 -0.362410 -0.928341
vn 0.221750 -0.971553 -0.083140
vn 0.231769 -0.290631 -0.928341
vn 0.621330 -0.779125 -0.083140
vn 0.334915 -0.161290 -0.928341
vn 0.897849 -0.432383 -0.083140
vn 0.371732 -0.000000 -0.928340
vn 0.996538 -0.000000 -0.083140
vn 0.000000 -0.000000 -1.000000
vn 0.321919 0.155031 0.933988
vn 0.222775 0.279352 0.933988
vn 0.000000 -0.000000 1.000000
vn 0.079507 0.348347 0.933988
vn -0.079507 0.348346 0.933988
vn -0.222776 0.279354 0.933987
vn -0.321924 0.155028 0.933987
vn -0.357306 -0.000000 0.933987
vn -0.321925 -0.155028 0.933986
vn -0.222776 -0.279354 0.933987
vn -0.079507 -0.348346 0.933988
vn 0.079507 -0.348347 0.933988
vn 0.222776 -0.279352 0.933988
vn 0.321919 -0.155031 0.933988
vn 0.357306 -0.000000 0.933987
vn 0.221749 0.971547 0.083202
vn -0.221750 0.971547 0.083202
vn 0.621328 0.779121 0.083202
vn 0.897844 0.432381 0.083202
vn 0.996533 -0.000000 0.083202
vn 0.897844 -0.432381 0.083202
vn 0.621327 -0.779121 0.083202
vn 0.221749 -0.971548 0.083202
vn -0.221750 -0.971547 0.083202
vn -0.621328 -0.779120 0.083202
vn -0.897845 -0.432379 0.083200
vn -0.996533 -0.000000 0.083201
vn -0.897845 0.432379 0.083200
vn -0.621328 0.779121 0.083202
vn -0.869839 -0.426997 0.247092
vn -0.019895 -0.983536 0.179612
vn -0.017460 -0.220532 0.975223
vn 0.006263 -0.982559 0.185847
vn 0.007796 -0.227676 0.973706
vn 0.033044 -0.983978 0.175202
vn 0.042760 -0.256593 0.965573
vn -0.019895 0.983536 0.179612
vn -0.017460 0.220532 0.975223
vn 0.007796 0.227676 0.973706
vn 0.006263 0.982559 0.185847
vn 0.042760 0.256593 0.965573
vn 0.033044 0.983978 0.175202
vn -0.017460 0.220532 -0.975223
vn -0.019895 0.983536 -0.179612
vn 0.006263 0.982559 -0.185847
vn 0.007796 0.227676 -0.973706
vn 0.033044 0.983978 -0.175202
vn 0.042760 0.256593 -0.965573
vn -0.019895 -0.983536 -0.179612
vn -0.017460 -0.220532 -0.975223
vn 0.007796 -0.227676 -0.973706
vn 0.006263 -0.982559 -0.185847
vn 0.042760 -0.256593 -0.965573
vn 0.033044 -0.983978 -0.175202
vn -0.869839 0.426997 0.247092
vn -0.869839 0.426997 -0.247092
vn -0.869839 -0.426997 -0.247092
s 1
g pCylinder4
usemtl initialShadingGroup
f 1/1/1 2/2/2 47/3/3 48/4/4
f 2/2/2 3/6/5 46/7/6 47/3/3
f 3/6/5 4/10/7 45/11/8 46/7/6
f 4/10/7 5/14/9 58/15/10 45/11/8
f 5/14/9 6/18/11 57/19/12 58/15/10
f 6/18/11 7/22/13 56/23/14 57/19/12
f 7/22/13 8/26/15 55/27/16 56/23/14
f 8/26/15 9/28/17 54/29/18 55/27/16
f 9/28/17 10/24/19 53/25/20 54/29/18
f 10/24/19 11/20/21 52/21/22 53/25/20
f 11/20/21 12/16/23 51/17/24 52/21/22
f 12/16/23 13/12/25 50/13/26 51/17/24
f 13/12/25 14/8/27 49/9/28 50/13/26
f 14/8/27 1/1/1 48/4/4 49/9/28
f 2/2/2 1/1/1 29/5/29
f 3/6/5 2/2/2 29/5/29
f 4/10/7 3/6/5 29/5/29
f 5/14/9 4/10/7 29/5/29
f 6/18/11 5/14/9 29/5/29
f 7/22/13 6/18/11 29/5/29
f 8/26/15 7/22/13 29/5/29
f 9/28/17 8/26/15 29/5/29
f 10/24/19 9/28/17 29/5/29
f 11/20/21 10/24/19 29/5/29
f 12/16/23 11/20/21 29/5/29
f 13/12/25 12/16/23 29/5/29
f 14/8/27 13/12/25 29/5/29
f 1/1/1 14/8/27 29/5/29
f 15/30/30 16/31/31 30/32/32
f 16/31/31 17/35/33 30/32/32
f 17/35/33 18/39/34 30/32/32
f 18/39/34 19/43/35 30/32/32
f 19/43/35 20/47/36 30/32/32
f 20/47/36 21/51/37 30/32/32
f 21/51/37 22/55/38 30/32/32
f 22/55/38 23/56/39 30/32/32
f 23/56/39 24/52/40 30/32/32
f 24/52/40 25/48/41 30/32/32
f 25/48/41 26/44/42 30/32/32
f 26/44/42 27/40/43 30/32/32
f 27/40/43 28/36/44 30/32/32
f 28/36/44 15/30/30 30/32/32
f 32/37/45 31/41/46 18/39/34 17/35/33
f 33/34/47 32/37/45 17/35/33 16/31/31
f 34/33/48 33/34/47 16/31/31 15/30/30
f 35/38/49 34/33/48 15/30/30 28/36/44
f 36/42/50 35/38/49 28/36/44 27/40/43
f 37/46/51 36/42/50 27/40/43 26/44/42
f 38/50/52 37/46/51 26/44/42 25/48/41
f 39/54/53 38/50/52 25/48/41 24/52/40
f 40/58/54 39/54/53 24/52/40 23/56/39
f 41/57/55 40/58/54 23/56/39 22/55/38
f 42/53/56 41/57/55 22/55/38 21/51/37
f 43/49/57 42/53/56 21/51/37 20/47/36
f 44/45/58 43/49/57 20/47/36 19/43/35
f 31/41/46 44/45/58 19/43/35 18/39/34
f 46/59/6 45/60/8 31/61/46 32/62/45
f 47/65/3 46/59/6 32/62/45 33/66/47
f 48/69/4 47/65/3 33/66/47 34/70/48
f 49/71/28 48/69/4 34/70/48 35/74/49
f 50/75/26 49/71/28 35/74/49 36/76/50
f 51/77/24 50/75/26 36/76/50 37/78/51
f 52/79/22 51/77/24 37/78/51 38/82/52
f 53/83/20 52/79/22 38/82/52 39/84/53
f 54/85/18 53/83/20 39/84/53 40/86/54
f 55/87/16 54/85/18 40/86/54 41/88/55
f 56/73/14 55/87/16 41/88/55 42/72/56
f 57/67/12 56/89/14 42/92/56 43/68/57
f 58/63/10 57/67/12 43/68/57 44/64/58
f 45/60/8 58/63/10 44/64/58 31/61/46
s 3
f 84/106/59 59/99/60 60/95/61
f 60/95/61 59/99/60 61/100/62 62/96/63
f 62/96/63 61/100/62 82/107/64 81/101/65
f 63/103/66 64/98/67 66/97/68 65/104/69
f 65/104/69 66/97/68 76/102/70 75/108/71
f 67/115/72 68/112/73 69/111/74 70/116/75
f 70/116/75 69/111/74 78/114/76 77/119/77
f 71/124/78 72/123/79 73/122/80 74/120/81
f 74/120/81 73/122/80 80/125/82 79/118/83
f 60/95/61 62/96/63 66/97/68 64/98/67
f 63/103/66 65/104/69 69/111/74 68/112/73
f 67/115/72 70/116/75 73/122/80 72/123/79
f 71/124/78 74/120/81 61/110/62 59/109/60
f 65/104/69 75/108/71 78/114/76 69/111/74
f 73/122/80 70/116/75 77/119/77 80/125/82
f 61/110/62 74/120/81 79/118/83 82/117/64
f 66/97/68 62/96/63 81/101/65 76/102/70
f 63/103/66 83/105/84 64/98/67
f 83/105/84 84/106/59 60/95/61 64/98/67
f 68/112/73 85/91/85 83/80/84 63/103/66
f 85/91/85 86/90/86 84/81/59 83/80/84
f 86/94/86 71/124/78 59/109/60 84/93/59
f 67/115/72 85/91/85 68/112/73
f 72/123/79 86/113/86 85/121/85 67/115/72
f 72/123/79 71/124/78 86/113/86
g default
v 0.875463 0.193586 -0.278727
v 0.715091 0.193586 -0.278727
v 0.601691 0.080186 -0.278727
v 0.601691 -0.080186 -0.278727
v 0.715091 -0.193586 -0.278727
v 0.875463 -0.193586 -0.278727
v 0.988863 -0.080186 -0.278727
v 0.988863 0.080186 -0.278727
v 0.875463 0.193586 0.278727
v 0.715091 0.193586 0.278727
v 0.601691 0.080186 0.278727
v 0.601691 -0.080186 0.278727
v 0.715091 -0.193586 0.278727
v 0.875463 -0.193586 0.278727
v 0.988863 -0.080186 0.278727
v 0.988863 0.080186 0.278727
v 0.795277 -0.000000 -0.316180
v 0.795277 0.000000 0.316180
v -0.573325 -0.047444 0.064029
v 0.601691 -0.047444 0.064029
v -0.573325 0.047444 0.064029
v 0.601691 0.047444 0.064029
v -0.573325 0.047444 -0.064029
v 0.601691 0.047444 -0.064029
v -0.573325 -0.047444 -0.064029
v 0.601691 -0.047444 -0.064029
vt 0.610485 0.045765
vt 0.500000 0.000000
vt 0.389515 0.045765
vt 0.343750 0.156250
vt 0.389515 0.266735
vt 0.500000 0.312500
vt 0.610485 0.266735
vt 0.656250 0.156250
vt 0.375000 0.312500
vt 0.406250 0.312500
vt 0.437500 0.312500
vt 0.468750 0.312500
vt 0.500000 0.312500
vt 0.531250 0.312500
vt 0.562500 0.312500
vt 0.593750 0.312500
vt 0.625000 0.312500
vt 0.375000 0.688440
vt 0.406250 0.688440
vt 0.437500 0.688440
vt 0.468750 0.688440
vt 0.500000 0.688440
vt 0.531250 0.688440
vt 0.562500 0.688440
vt 0.593750 0.688440
vt 0.625000 0.688440
vt 0.610485 0.733265
vt 0.500000 0.687500
vt 0.389515 0.733265
vt 0.343750 0.843750
vt 0.389515 0.954235
vt 0.500000 1.000000
vt 0.610485 0.954235
vt 0.656250 0.843750
vt 0.500000 0.150000
vt 0.500000 0.837500
vt 0.177336 0.721815
vt 0.001682 0.721815
vt 0.061172 0.721815
vt 0.120090 0.721815
vt 0.001682 0.145984
vt 0.061172 0.145984
vt 0.120090 0.145984
vt 0.177336 0.145984
vt 0.236253 0.145984
vt 0.236253 0.721815
vn -0.000000 1.000000 0.000000
vn -0.000000 1.000000 0.000000
vn -0.000000 1.000000 0.000000
vn -0.000000 1.000000 0.000000
vn -0.707107 0.707107 0.000000
vn -0.707107 0.707107 0.000000
vn -0.707107 0.707107 0.000000
vn -0.707107 0.707107 0.000000
vn -1.000000 -0.000000 0.000000
vn -1.000000 -0.000000 0.000000
vn -1.000000 -0.000000 0.000000
vn -1.000000 -0.000000 0.000000
vn -0.707107 -0.707107 0.000000
vn -0.707107 -0.707107 0.000000
vn -0.707107 -0.707107 0.000000
vn -0.707107 -0.707107 0.000000
vn 0.000000 -1.000000 0.000000
vn 0.000000 -1.000000 0.000000
vn 0.000000 -1.000000 0.000000
vn 0.000000 -1.000000 0.000000
vn 0.707107 -0.707107 0.000000
vn 0.707107 -0.707107 0.000000
vn 0.707107 -0.707107 0.000000
vn 0.707107 -0.707107 0.000000
vn 1.000000 0.000000 0.000000
vn 1.000000 0.000000 0.000000
vn 1.000000 0.000000 0.000000
vn 1.000000 0.000000 0.000000
vn 0.707107 0.707107 0.000000
vn 0.707107 0.707107 0.000000
vn 0.707107 0.707107 0.000000
vn 0.707107 0.707107 0.000000
vn -0.067334 0.162558 -0.984399
vn 0.067334 0.162558 -0.984399
vn 0.000000 0.000000 -1.000000
vn -0.162558 0.067334 -0.984399
vn -0.162558 -0.067334 -0.984399
vn -0.067334 -0.162558 -0.984399
vn 0.067334 -0.162558 -0.984399
vn 0.162558 -0.067334 -0.984399
vn 0.162558 0.067334 -0.984399
vn 0.067334 0.162558 0.984399
vn -0.067334 0.162558 0.984399
vn 0.000000 0.000000 1.000000
vn -0.162558 0.067334 0.984399
vn -0.162558 -0.067334 0.984399
vn -0.067334 -0.162558 0.984399
vn 0.067334 -0.162558 0.984399
vn 0.162558 -0.067334 0.984399
vn 0.162558 0.067334 0.984399
vn -0.064748 -0.801777 -0.594105
vn -0.064748 -0.801777 0.594105
vn -0.064748 0.801777 0.594105
vn -0.064748 0.801777 -0.594105
vn 0.000000 -0.803463 0.595354
vn 0.000000 0.803463 0.595354
vn 0.000000 0.803463 -0.595354
vn 0.000000 -0.803463 -0.595354
s off
g _coll
usemtl initialShadingGroup
f 87/134/87 88/135/88 96/144/89 95/143/90
f 88/135/91 89/136/92 97/145/93 96/144/94
f 89/136/95 90/137/96 98/146/97 97/145/98
f 90/137/99 91/138/100 99/147/101 98/146/102
f 91/138/103 92/139/104 100/148/105 99/147/106
f 92/139/107 93/140/108 101/149/109 100/148/110
f 93/140/111 94/141/112 102/150/113 101/149/114
f 94/141/115 87/142/116 95/151/117 102/150/118
s 1
f 88/127/119 87/126/120 103/160/121
f 89/128/122 88/127/119 103/160/121
f 90/129/123 89/128/122 103/160/121
f 91/130/124 90/129/123 103/160/121
f 92/131/125 91/130/124 103/160/121
f 93/132/126 92/131/125 103/160/121
f 94/133/127 93/132/126 103/160/121
f 87/126/120 94/133/127 103/160/121
s 2
f 95/158/128 96/157/129 104/161/130
f 96/157/129 97/156/131 104/161/130
f 97/156/131 98/155/132 104/161/130
f 98/155/132 99/154/133 104/161/130
f 99/154/133 100/153/134 104/161/130
f 100/153/134 101/152/135 104/161/130
f 101/152/135 102/159/136 104/161/130
f 102/159/136 95/158/128 104/161/130
s 3
f 111/162/137 105/163/138 107/164/139 109/165/140
f 106/166/141 108/167/142 107/164/139 105/163/138
f 110/168/143 112/169/144 111/162/137 109/165/140
f 107/164/139 108/167/142 110/168/143 109/165/140
f 111/162/137 112/169/144 106/170/141 105/171/138
g default
v -0.050000 -0.050000 0.050000
v 0.050000 -0.050000 0.050000
v -0.050000 -0.050000 -0.050000
v 0.050000 -0.050000 -0.050000
v -0.050000 0.050000 0.050000
v 0.050000 0.050000 0.050000
v -0.050000 0.050000 -0.050000
v 0.050000 0.050000 -0.050000
vt 0.000000 1.000000
vt 0.000000 0.000000
vt 1.000000 0.000000
vt 1.000000 1.000000
vt 1.000000 1.000000
vt 0.000000 1.000000
vt 0.000000 0.000000
vt 1.000000 0.000000
vt 1.000000 1.000000
vt 0.000000 1.000000
vt 0.000000 0.000000
vt 1.000000 0.000000
vt 1.000000 1.000000
vt 0.000000 1.000000
vt 0.000000 0.000000
vt 1.000000 0.000000
vt 1.000000 1.000000
vt 0.000000 1.000000
vt 0.000000 0.000000
vt 1.000000 0.000000
vt 1.000000 1.000000
vt 0.000000 1.000000
vt 0.000000 0.000000
vt 1.000000 0.000000
vn 0.000000 -1.000000 0.000000
vn 0.000000 -1.000000 0.000000
vn 0.000000 -1.000000 0.000000
vn 0.000000 -1.000000 0.000000
vn 0.000000 1.000000 0.000000
vn 0.000000 1.000000 0.000000
vn 0.000000 1.000000 0.000000
vn 0.000000 1.000000 0.000000
vn 0.000000 0.000000 1.000000
vn 0.000000 0.000000 1.000000
vn 0.000000 0.000000 1.000000
vn 0.000000 0.000000 1.000000
vn 1.000000 0.000000 0.000000
vn 1.000000 0.000000 0.000000
vn 1.000000 0.000000 0.000000
vn 1.000000 0.000000 0.000000
vn 0.000000 0.000000 -1.000000
vn 0.000000 0.000000 -1.000000
vn 0.000000 0.000000 -1.000000
vn 0.000000 0.000000 -1.000000
vn -1.000000 0.000000 -0.000000
vn -1.000000 0.000000 -0.000000
vn -1.000000 0.000000 -0.000000
vn -1.000000 0.000000 -0.000000
s off
g hand_atch
usemtl initialShadingGroup
f 116/172/145 114/173/146 113/174/147 115/175/148
f 120/184/149 119/185/150 117/186/151 118/187/152
f 118/176/153 117/177/154 113/178/155 114/179/156
f 120/180/157 118/181/158 114/182/159 116/183/160
f 119/188/161 120/189/162 116/190/163 115/191/164
f 117/192/165 119/193/166 115/194/167 113/195/168
