# This file uses centimeters as units for non-parametric coordinates.

mtllib Anvil Stand.mtl
g default
v -0.050000 0.433819 0.050000
v 0.050000 0.433819 0.050000
v -0.050000 0.533819 0.050000
v 0.050000 0.533819 0.050000
v -0.050000 0.533819 -0.050000
v 0.050000 0.533819 -0.050000
v -0.050000 0.433819 -0.050000
v 0.050000 0.433819 -0.050000
vt 0.375000 0.000000
vt 0.625000 0.000000
vt 0.375000 0.250000
vt 0.625000 0.250000
vt 0.375000 0.500000
vt 0.625000 0.500000
vt 0.375000 0.750000
vt 0.625000 0.750000
vt 0.375000 1.000000
vt 0.625000 1.000000
vt 0.875000 0.000000
vt 0.875000 0.250000
vt 0.125000 0.000000
vt 0.125000 0.250000
vn -0.577350 -0.577351 0.577350
vn 0.577350 -0.577351 0.577350
vn 0.577350 0.577351 0.577350
vn -0.577350 0.577351 0.577350
vn 0.577350 0.577351 -0.577350
vn -0.577350 0.577351 -0.577350
vn 0.577350 -0.577351 -0.577350
vn -0.577350 -0.577351 -0.577350
s 1
g pivot
usemtl initialShadingGroup
f 1/1/1 2/2/2 4/4/3 3/3/4
f 3/3/4 4/4/3 6/6/5 5/5/6
f 5/5/6 6/6/5 8/8/7 7/7/8
f 7/7/8 8/8/7 2/10/2 1/9/1
f 2/2/2 8/11/7 6/12/5 4/4/3
f 7/13/8 1/1/1 3/3/4 5/14/6
g default
v -0.968338 0.774563 -0.624500
v -0.874249 0.774563 -0.624500
v -0.874249 1.032028 -0.765944
v -0.968338 1.032028 -0.765944
v -0.968338 0.774563 -1.065512
v -0.968338 1.032028 -1.065512
v 0.968338 0.774563 -1.065512
v 0.968338 0.774563 -0.624500
v 0.874094 0.774563 -0.624500
v 0.874094 0.774563 -0.977176
v -0.874249 0.774563 -0.977176
v -0.874249 1.032028 -0.977176
v 0.874094 1.032028 -0.977176
v 0.874094 1.032028 -0.765944
v 0.968338 1.032028 -0.765944
v 0.968338 1.032028 -1.065512
v 0.573905 0.899616 -0.977176
v 0.573905 0.899616 -0.709416
v 0.150094 0.899616 -0.709416
v 0.150094 0.899616 -0.977176
v -0.150094 0.899616 -0.977176
v -0.150094 0.899616 -0.709416
v -0.574060 0.899616 -0.709416
v -0.574060 0.899616 -0.977176
v -0.574060 0.992580 -0.977176
v -0.574060 0.992580 -0.709416
v -0.150094 0.992580 -0.709416
v -0.150094 0.992580 -0.977176
v 0.150094 0.992580 -0.977176
v 0.150094 0.992580 -0.709416
v 0.573905 0.992580 -0.709416
v 0.573905 0.992580 -0.977176
v -1.307778 0.000000 0.765944
v 1.362778 0.000000 0.765944
v -1.307778 0.082590 0.765944
v 1.362778 0.082590 0.765944
v -1.307778 0.082590 -0.765944
v 1.362778 0.082590 -0.765944
v -1.307778 0.000000 -0.765944
v 1.362778 0.000000 -0.765944
v -0.987273 1.032028 0.765944
v 1.042274 1.032028 0.765944
v 1.042274 1.032028 -0.765944
v -0.987273 1.032028 -0.765944
v -1.211362 0.082592 0.750839
v 1.278021 0.082592 0.750839
v 0.983328 0.950719 0.772984
v -0.928329 0.950719 0.772984
v -1.211362 0.082592 -0.750839
v 1.278021 0.082592 -0.750839
v -0.928329 0.950719 -0.772984
v 0.983328 0.950719 -0.772984
v -1.211362 0.083903 0.691386
v -0.928329 0.952035 0.713293
v 1.278021 0.083903 0.691386
v 0.983328 0.952035 0.713293
v -1.211362 0.083903 -0.691386
v 1.278021 0.083903 -0.691386
v -0.928329 0.952035 -0.713293
v 0.983328 0.952035 -0.713293
vt 0.486702 0.973774
vt 0.399886 0.973777
vt 0.427729 0.923093
vt 0.486701 0.923091
vt 0.427728 0.904571
vt 0.469311 0.904570
vt 0.867946 0.923091
vt 0.867948 0.973775
vt 0.954765 0.973767
vt 0.926917 0.923086
vt 0.903393 0.430937
vt 0.903393 0.472520
vt 0.852710 0.500364
vt 0.852710 0.430939
vt 0.903376 0.086764
vt 0.852692 0.086769
vt 0.852684 0.017343
vt 0.903371 0.045181
vt 0.885340 0.992326
vt 0.954766 0.992319
vt 0.885333 0.904537
vt 0.926915 0.904534
vt 0.505222 0.905702
vt 0.849394 0.905702
vt 0.849395 0.991164
vt 0.505224 0.991164
vt 0.469313 0.992297
vt 0.399886 0.992299
vt 0.920305 0.255749
vt 0.920305 0.172288
vt 0.973016 0.172288
vt 0.973016 0.255749
vt 0.920305 0.052226
vt 0.973016 0.052228
vt 0.973016 0.070528
vt 0.920305 0.070527
vt 0.920305 0.267719
vt 0.973016 0.267726
vt 0.973016 0.286026
vt 0.920305 0.286020
vt 0.920305 0.153987
vt 0.973016 0.153988
vt 0.920305 0.369452
vt 0.973016 0.369454
vt 0.973016 0.387752
vt 0.920305 0.387754
vt 0.920305 0.471185
vt 0.973016 0.471181
vt 0.368770 0.555075
vt 0.385028 0.536095
vt 0.385028 0.555075
vt 0.348648 0.671478
vt 0.018050 0.671478
vt 0.018051 0.233480
vt 0.348648 0.233481
vt 0.820029 0.552747
vt 0.820028 0.533767
vt 0.836287 0.552747
vt 0.018051 0.010758
vt 0.348648 0.010758
vt 0.348648 0.028582
vt 0.018051 0.028582
vt 0.348648 0.894201
vt 0.018050 0.894201
vt 0.018050 0.876377
vt 0.348648 0.876377
vt 0.565537 0.481060
vt 0.398823 0.535413
vt 0.398986 0.046811
vt 0.565374 0.103292
vt 0.806071 0.044483
vt 0.806233 0.533085
vt 0.639519 0.478733
vt 0.639683 0.100965
vt 0.400525 0.018289
vt 0.587445 0.081330
vt 0.569187 0.092174
vt 0.402785 0.035738
vt 0.595385 0.491981
vt 0.579379 0.480378
vt 0.579379 0.104058
vt 0.595385 0.092454
vt 0.587310 0.503150
vt 0.400390 0.566192
vt 0.402487 0.546530
vt 0.569215 0.492223
vt 0.804666 0.563864
vt 0.617746 0.500823
vt 0.635841 0.489896
vt 0.802569 0.544203
vt 0.625678 0.478051
vt 0.609671 0.489654
vt 0.609671 0.090126
vt 0.625678 0.101730
vt 0.617612 0.079003
vt 0.804532 0.015962
vt 0.802272 0.033411
vt 0.635870 0.089847
vt 0.419953 0.585152
vt 0.945667 0.585152
vt 0.945667 0.886712
vt 0.419953 0.886712
vt 0.368769 0.029361
vt 0.385028 0.046046
vt 0.820029 0.043718
vt 0.836287 0.027033
vt 0.385028 0.029361
vt 0.820029 0.027033
vn -1.000000 0.000000 0.000000
vn -1.000000 0.000000 0.000000
vn -1.000000 0.000000 0.000000
vn -1.000000 0.000000 0.000000
vn 0.000000 1.000000 0.000000
vn 0.000000 1.000000 0.000000
vn 0.000000 1.000000 0.000000
vn 0.000000 1.000000 0.000000
vn 0.000000 0.000000 -1.000000
vn 0.000000 0.000000 -1.000000
vn 0.000000 0.000000 -1.000000
vn 0.000000 0.000000 -1.000000
vn 1.000000 0.000000 0.000000
vn 1.000000 0.000000 0.000000
vn 1.000000 0.000000 0.000000
vn 1.000000 0.000000 0.000000
vn 1.000000 0.000000 0.000000
vn 1.000000 0.000000 0.000000
vn 1.000000 0.000000 0.000000
vn 1.000000 0.000000 0.000000
vn 0.000000 0.000000 1.000000
vn 0.000000 0.000000 1.000000
vn 0.000000 0.000000 1.000000
vn 0.000000 0.000000 1.000000
vn -1.000000 0.000000 0.000000
vn -1.000000 0.000000 0.000000
vn -1.000000 0.000000 0.000000
vn -1.000000 0.000000 0.000000
vn 0.000000 -1.000000 0.000000
vn 0.000000 -1.000000 0.000000
vn 0.000000 -1.000000 0.000000
vn 0.000000 -1.000000 0.000000
vn 0.000000 1.000000 0.000000
vn 0.000000 1.000000 0.000000
vn 0.000000 1.000000 0.000000
vn 0.000000 1.000000 0.000000
vn 0.000000 1.000000 0.000000
vn 0.000000 1.000000 0.000000
vn 0.000000 1.000000 0.000000
vn 0.000000 1.000000 0.000000
vn 0.000000 -1.000000 0.000000
vn 0.000000 -1.000000 0.000000
vn 0.000000 -1.000000 0.000000
vn 0.000000 -1.000000 0.000000
vn 0.000000 -1.000000 0.000000
vn 0.000000 -1.000000 0.000000
vn 0.000000 -1.000000 0.000000
vn 0.000000 -1.000000 0.000000
vn 0.000000 -1.000000 0.000000
vn 0.000000 -1.000000 0.000000
vn 0.000000 -1.000000 0.000000
vn 0.000000 -1.000000 0.000000
vn -1.000000 0.000000 0.000000
vn -1.000000 0.000000 0.000000
vn -1.000000 0.000000 0.000000
vn -1.000000 0.000000 0.000000
vn -1.000000 0.000000 0.000000
vn -1.000000 0.000000 0.000000
vn -1.000000 0.000000 0.000000
vn -1.000000 0.000000 0.000000
vn 1.000000 0.000000 0.000000
vn 1.000000 0.000000 0.000000
vn 1.000000 0.000000 0.000000
vn 1.000000 0.000000 0.000000
vn 1.000000 0.000000 0.000000
vn 1.000000 0.000000 0.000000
vn 1.000000 0.000000 0.000000
vn 1.000000 0.000000 0.000000
vn 0.000000 1.000000 0.000000
vn 0.000000 1.000000 0.000000
vn 0.000000 1.000000 0.000000
vn 0.000000 1.000000 0.000000
vn 0.000000 1.000000 0.000000
vn 0.000000 1.000000 0.000000
vn 0.000000 1.000000 0.000000
vn 0.000000 1.000000 0.000000
vn 0.000000 -1.000000 0.000000
vn 0.000000 -1.000000 0.000000
vn 0.000000 -1.000000 0.000000
vn 0.000000 -1.000000 0.000000
vn 0.154776 0.000000 0.987950
vn 0.154776 0.000000 0.987950
vn 0.154776 0.000000 0.987950
vn 0.000000 1.000000 0.000000
vn 0.000000 1.000000 0.000000
vn 0.000000 1.000000 0.000000
vn 0.000000 1.000000 0.000000
vn 0.154776 0.000000 -0.987950
vn 0.154776 0.000000 -0.987950
vn 0.154776 0.000000 -0.987950
vn 1.000000 0.000000 0.000000
vn 1.000000 0.000000 0.000000
vn 1.000000 0.000000 0.000000
vn 1.000000 0.000000 0.000000
vn -1.000000 0.000000 0.000000
vn -1.000000 0.000000 0.000000
vn -1.000000 0.000000 0.000000
vn -1.000000 0.000000 0.000000
vn 0.000000 -0.025227 0.999682
vn 0.000000 -0.025227 0.999682
vn 0.000000 -0.025227 0.999682
vn 0.000000 -0.025227 0.999682
vn 0.947472 0.319840 0.000000
vn 0.947472 0.319840 0.000000
vn 0.947472 0.319840 0.000000
vn 0.947472 0.319840 0.000000
vn 0.000000 -0.025227 -0.999682
vn 0.000000 -0.025227 -0.999682
vn 0.000000 -0.025227 -0.999682
vn 0.000000 -0.025227 -0.999682
vn -0.947471 0.319841 0.000000
vn -0.947471 0.319841 0.000000
vn -0.947471 0.319841 0.000000
vn -0.947471 0.319841 0.000000
vn -0.041267 -0.026137 0.998806
vn -0.041267 -0.026137 0.998806
vn -0.041267 -0.026137 0.998806
vn -0.041267 -0.026137 0.998806
vn 0.000000 0.086261 0.996273
vn 0.000000 0.086261 0.996273
vn 0.000000 0.086261 0.996273
vn 0.000000 0.086261 0.996273
vn 0.038752 -0.025039 0.998935
vn 0.038752 -0.025039 0.998935
vn 0.038752 -0.025039 0.998935
vn 0.038752 -0.025039 0.998935
vn 0.038752 -0.025039 -0.998935
vn 0.038752 -0.025039 -0.998935
vn 0.038752 -0.025039 -0.998935
vn 0.038752 -0.025039 -0.998935
vn 0.000000 0.086261 -0.996273
vn 0.000000 0.086261 -0.996273
vn 0.000000 0.086261 -0.996273
vn 0.000000 0.086261 -0.996273
vn -0.041267 -0.026137 -0.998806
vn -0.041267 -0.026137 -0.998806
vn -0.041267 -0.026137 -0.998806
vn -0.041267 -0.026137 -0.998806
vn 0.000000 -1.000000 0.000000
vn 0.000000 -1.000000 0.000000
vn 0.000000 -1.000000 0.000000
vn 0.000000 -1.000000 0.000000
vn 0.000000 0.179903 0.983684
vn 0.000000 0.179903 0.983684
vn 0.000000 0.179903 0.983684
vn 0.000000 0.179903 0.983684
vn 0.000000 0.179903 -0.983684
vn 0.000000 0.179903 -0.983684
vn 0.000000 0.179903 -0.983684
vn 0.000000 0.179903 -0.983684
vn -0.175449 0.000000 0.984488
vn -0.175449 0.000000 0.984488
vn -0.175449 0.000000 0.984488
vn -0.175449 0.000000 -0.984488
vn -0.175449 0.000000 -0.984488
vn -0.175449 0.000000 -0.984488
vn 0.950776 -0.309804 -0.006831
vn 0.950776 -0.309804 -0.006831
vn 0.950776 -0.309804 -0.006831
vn 0.950776 -0.309804 -0.006831
vn 0.000000 0.999757 0.022046
vn 0.000000 0.999757 0.022046
vn 0.000000 0.999757 0.022046
vn 0.000000 0.999757 0.022046
vn -0.946960 -0.321273 -0.007084
vn -0.946960 -0.321273 -0.007084
vn -0.946960 -0.321273 -0.007084
vn -0.946960 -0.321273 -0.007084
vn 0.000000 -0.999757 -0.022042
vn 0.000000 -0.999757 -0.022042
vn 0.000000 -0.999757 -0.022042
vn 0.000000 -0.999757 -0.022042
vn 0.000000 0.999757 -0.022046
vn 0.000000 0.999757 -0.022046
vn 0.000000 0.999757 -0.022046
vn 0.000000 0.999757 -0.022046
vn 0.950776 -0.309804 0.006831
vn 0.950776 -0.309804 0.006831
vn 0.950776 -0.309804 0.006831
vn 0.950776 -0.309804 0.006831
vn 0.000000 -0.999757 0.022042
vn 0.000000 -0.999757 0.022042
vn 0.000000 -0.999757 0.022042
vn 0.000000 -0.999757 0.022042
vn -0.946960 -0.321273 0.007084
vn -0.946960 -0.321273 0.007084
vn -0.946960 -0.321273 0.007084
vn -0.946960 -0.321273 0.007084
s off
g Mesh
usemtl initialShadingGroup
f 13/15/9 9/16/10 12/17/11 14/18/12
f 12/17/13 11/19/14 20/20/15 14/18/16
f 14/18/17 24/21/18 15/22/19 13/15/20
f 16/23/21 15/22/22 24/21/23 23/24/24
f 20/25/25 11/26/26 10/27/27 19/28/28
f 21/29/29 20/25/30 19/28/31 18/30/32
f 18/30/33 17/31/34 22/32/35 21/29/36
f 18/33/37 15/22/38 16/23/39 17/34/40
f 24/21/41 21/35/42 22/36/43 23/24/44
f 14/18/45 20/37/46 21/38/47 24/21/48
f 13/15/49 15/22/50 18/39/51 19/40/52
f 13/15/53 19/41/54 10/42/55 9/16/56
f 32/43/57 29/44/58 30/45/59 31/46/60
f 32/47/61 31/48/62 34/49/63 33/50/64
f 28/51/65 27/52/66 38/53/67 37/54/68
f 36/55/69 35/56/70 30/45/71 29/44/72
f 40/57/73 39/58/74 26/59/75 25/60/76
f 36/55/77 33/50/78 34/49/79 35/56/80
f 40/57/81 37/54/82 38/53/83 39/58/84
f 28/61/85 25/60/86 26/59/87 27/62/88
f 41/63/89 53/64/90 43/65/91
f 52/66/92 49/67/93 50/68/94 51/69/95
f 45/70/96 57/71/97 47/72/98
f 42/73/99 48/74/100 46/75/101 44/76/102
f 47/77/103 41/78/104 43/79/105 45/80/106
f 62/81/107 61/82/108 63/83/109 64/84/110
f 44/76/111 46/75/112 51/69/113 50/68/114
f 66/85/115 65/86/116 67/87/117 68/88/118
f 45/80/119 43/79/120 49/67/121 52/66/122
f 44/89/123 50/90/124 55/91/125 54/92/126
f 49/93/127 56/94/128 55/95/129 50/96/130
f 49/97/131 43/98/132 53/99/133 56/100/134
f 45/101/135 52/102/136 59/103/137 57/104/138
f 59/105/139 52/106/140 51/107/141 60/108/142
f 51/109/143 46/110/144 58/111/145 60/112/146
f 47/113/147 48/114/148 42/115/149 41/116/150
f 53/64/151 41/63/152 42/117/153 54/118/154
f 47/72/155 57/71/156 58/119/157 48/120/158
f 54/118/159 42/117/160 44/121/161
f 48/120/162 58/119/163 46/122/164
f 56/100/165 53/99/166 61/82/167 62/81/168
f 53/64/169 54/118/170 63/83/171 61/82/172
f 54/92/173 55/91/174 64/84/175 63/83/176
f 55/95/177 56/94/178 62/81/179 64/84/180
f 58/119/181 57/71/182 65/86/183 66/85/184
f 57/104/185 59/103/186 67/87/187 65/86/188
f 59/105/189 60/108/190 68/88/191 67/87/192
f 60/112/193 58/111/194 66/85/195 68/88/196
g default
v -0.968338 0.774563 -0.695906
v -0.968338 1.026106 -0.694537
v -0.968338 0.774563 -1.065512
v -0.968338 1.026106 -1.065512
v 0.968338 0.774563 -1.065512
v 0.968338 0.774563 -0.695906
v 0.968338 1.026106 -0.694537
v 0.968338 1.026106 -1.065512
v -1.307778 0.000000 0.765944
v 1.362778 0.000000 0.765944
v -1.307778 0.000000 -0.765944
v 1.362778 0.000000 -0.765944
v -0.987273 1.032028 0.765944
v 1.042274 1.032028 0.765944
v 1.042274 1.032028 -0.765944
v -0.987273 1.032028 -0.765944
vt 0.486702 0.973774
vt 0.399886 0.973777
vt 0.427729 0.923093
vt 0.486701 0.923091
vt 0.867946 0.923091
vt 0.867948 0.973775
vt 0.954765 0.973767
vt 0.926917 0.923086
vt 0.000000 0.000000
vt 0.190845 0.000000
vt 0.190845 1.000000
vt 0.000000 1.000000
vt 0.000000 0.000000
vt 0.191552 0.000000
vt 0.191552 1.000000
vt 0.000000 1.000000
vt 0.346285 0.879250
vt 0.062761 0.879250
vt 0.062761 0.503618
vt 0.346285 0.503618
vt 0.572289 0.798881
vt 0.572289 0.515357
vt 0.773041 0.515357
vt 0.773041 0.798881
vt 0.358679 0.517285
vt 0.559431 0.517285
vt 0.559431 0.800809
vt 0.358679 0.800809
vt 0.196956 0.066729
vt 0.196956 0.442395
vt 0.005929 0.501697
vt 0.005929 0.007426
vt 0.209740 0.064777
vt 0.400954 0.005555
vt 0.401068 0.499525
vt 0.209761 0.440422
vt 0.413552 0.499746
vt 0.413552 0.005475
vt 0.697076 0.005475
vt 0.697076 0.499746
vn -1.000000 0.000000 0.000000
vn -1.000000 0.000000 0.000000
vn -1.000000 0.000000 0.000000
vn -1.000000 0.000000 0.000000
vn 0.000000 0.000000 -1.000000
vn 0.000000 0.000000 -1.000000
vn 0.000000 0.000000 -1.000000
vn 0.000000 0.000000 -1.000000
vn 1.000000 0.000000 0.000000
vn 1.000000 0.000000 0.000000
vn 1.000000 0.000000 0.000000
vn 1.000000 0.000000 0.000000
vn 0.000000 -1.000000 0.000000
vn 0.000000 -1.000000 0.000000
vn 0.000000 -1.000000 0.000000
vn 0.000000 -1.000000 0.000000
vn 0.000000 1.000000 0.000000
vn 0.000000 1.000000 0.000000
vn 0.000000 1.000000 0.000000
vn 0.000000 1.000000 0.000000
vn 0.000000 1.000000 0.000000
vn 0.000000 1.000000 0.000000
vn 0.000000 1.000000 0.000000
vn 0.000000 1.000000 0.000000
vn -0.955006 0.296585 0.000000
vn -0.955006 0.296585 0.000000
vn -0.955006 0.296585 0.000000
vn -0.955006 0.296585 0.000000
vn 0.955007 0.296584 0.000000
vn 0.955007 0.296584 0.000000
vn 0.955007 0.296584 0.000000
vn 0.955007 0.296584 0.000000
vn 0.000000 0.000000 1.000000
vn 0.000000 0.000000 1.000000
vn 0.000000 0.000000 1.000000
vn 0.000000 0.000000 1.000000
vn 0.000000 0.000000 -1.000000
vn 0.000000 0.000000 -1.000000
vn 0.000000 0.000000 -1.000000
vn 0.000000 0.000000 -1.000000
vn 0.000000 -1.000000 0.000000
vn 0.000000 -1.000000 0.000000
vn 0.000000 -1.000000 0.000000
vn 0.000000 -1.000000 0.000000
s off
g _coll
usemtl initialShadingGroup
f 71/123/197 69/124/198 70/125/199 72/126/200
f 72/126/201 76/127/202 73/128/203 71/123/204
f 74/129/205 73/128/206 76/127/207 75/130/208
f 73/131/209 74/132/210 69/133/211 71/134/212
f 75/135/213 76/136/214 72/137/215 70/138/216
f 84/139/217 81/140/218 82/141/219 83/142/220
f 79/143/221 77/144/222 81/145/223 84/146/224
f 80/147/225 83/148/226 82/149/227 78/150/228
f 82/151/229 81/152/230 77/153/231 78/154/232
f 83/155/233 80/156/234 79/157/235 84/158/236
f 79/159/237 80/160/238 78/161/239 77/162/240
