# This file uses centimeters as units for non-parametric coordinates.

mtllib Anvil_Bronze.mtl
g default
v -0.050000 0.433819 0.050000
v 0.050000 0.433819 0.050000
v -0.050000 0.533819 0.050000
v 0.050000 0.533819 0.050000
v -0.050000 0.533819 -0.050000
v 0.050000 0.533819 -0.050000
v -0.050000 0.433819 -0.050000
v 0.050000 0.433819 -0.050000
vt 0.375000 0.000000
vt 0.625000 0.000000
vt 0.375000 0.250000
vt 0.625000 0.250000
vt 0.375000 0.500000
vt 0.625000 0.500000
vt 0.375000 0.750000
vt 0.625000 0.750000
vt 0.375000 1.000000
vt 0.625000 1.000000
vt 0.875000 0.000000
vt 0.875000 0.250000
vt 0.125000 0.000000
vt 0.125000 0.250000
vn -0.577350 -0.577351 0.577350
vn 0.577350 -0.577351 0.577350
vn 0.577350 0.577351 0.577350
vn -0.577350 0.577351 0.577350
vn 0.577350 0.577351 -0.577350
vn -0.577350 0.577351 -0.577350
vn 0.577350 -0.577351 -0.577350
vn -0.577350 -0.577351 -0.577350
s 1
g pivot
usemtl initialShadingGroup
f 1/1/1 2/2/2 4/4/3 3/3/4
f 3/3/4 4/4/3 6/6/5 5/5/6
f 5/5/6 6/6/5 8/8/7 7/7/8
f 7/7/8 8/8/7 2/10/2 1/9/1
f 2/2/2 8/11/7 6/12/5 4/4/3
f 7/13/8 1/1/1 3/3/4 5/14/6
g default
v 0.549682 0.000000 0.422586
v 0.549682 0.069777 0.422586
v 0.549682 0.069777 -0.422586
v 0.549682 0.000000 -0.422586
v 0.571058 0.639574 0.439020
v 0.571058 0.639574 -0.439019
v 0.798177 0.980762 0.439020
v 0.798177 0.980762 -0.439019
v 0.415752 0.565821 -0.319623
v 0.415752 0.565821 0.319623
v 0.434139 0.120433 -0.333758
v 0.434139 0.120433 0.333759
v 0.344238 0.482191 -0.264644
v 0.344238 0.482191 0.264645
v 0.347603 0.184043 -0.267231
v 0.347603 0.184043 0.267232
v 0.302232 0.373857 -0.232350
v 0.303818 0.277400 -0.233570
v 0.302232 0.373857 0.232351
v 0.303818 0.277400 0.233571
v 0.798177 0.741933 0.439020
v 0.798177 0.741933 -0.439019
v 0.903400 0.797124 0.347820
v 0.903400 0.797124 -0.347819
v 0.903400 0.980762 -0.347819
v 0.903400 0.980762 0.347820
v -0.549682 0.000000 0.422586
v -0.549682 0.069777 0.422586
v -0.549682 0.069777 -0.422586
v -0.549682 0.000000 -0.422586
v -0.571058 0.639574 0.439020
v -0.571058 0.639574 -0.439019
v -0.798177 0.980762 0.439020
v -0.798177 0.980762 -0.439019
v -0.415752 0.565821 -0.319623
v -0.415752 0.565821 0.319623
v -0.434139 0.120433 -0.333758
v -0.434139 0.120433 0.333759
v -0.344238 0.482191 -0.264644
v -0.344238 0.482191 0.264645
v -0.347603 0.184043 -0.267231
v -0.347603 0.184043 0.267232
v -0.302232 0.373857 -0.232350
v -0.303818 0.277400 -0.233570
v -0.302232 0.373857 0.232351
v -0.303818 0.277400 0.233571
v -0.798177 0.639574 0.439020
v -0.798177 0.639574 -0.439019
v -0.903400 0.639574 0.347820
v -0.903400 0.639574 -0.347819
v -0.903400 0.980762 -0.347819
v -0.903400 0.980762 0.347820
vt 0.994071 0.425473
vt 0.725962 0.425472
vt 0.725962 0.406765
vt 0.994071 0.406765
vt 0.315844 0.110115
vt 0.614897 0.510673
vt 0.873446 0.138756
vt 0.342774 0.140965
vt 0.900429 0.395488
vt 0.873510 0.364569
vt 0.849125 0.161879
vt 0.403219 0.569268
vt 0.342660 0.366481
vt 0.008453 0.942471
vt 0.223619 0.883351
vt 0.366980 0.343414
vt 0.034860 0.007780
vt 0.662859 0.005701
vt 0.615816 0.005621
vt 0.600481 0.007593
vt 0.677899 0.043344
vt 0.616006 0.043571
vt 0.600174 0.045477
vt 0.538262 0.045279
vt 0.255533 0.057015
vt 0.704937 0.102330
vt 0.705050 0.400998
vt 0.616312 0.459843
vt 0.255533 0.007780
vt 0.704459 0.460088
vt 0.704179 0.497793
vt 0.616176 0.497580
vt 0.275179 0.942422
vt 0.741965 0.143633
vt 0.742028 0.359744
vt 0.277701 0.732702
vt 0.474235 0.145639
vt 0.350649 0.719426
vt 0.562941 0.649084
vt 0.768430 0.340734
vt 0.043397 0.775500
vt 0.511178 0.403079
vt 0.447866 0.164690
vt 0.616733 0.783995
vt 0.351013 0.783996
vt 0.061284 0.802989
vt 0.006195 0.674088
vt 0.277383 0.674054
vt 0.588335 0.814289
vt 0.379361 0.814422
vt 0.035371 0.647420
vt 0.248193 0.647424
vt 0.553099 0.595434
vt 0.552292 0.619976
vt 0.415251 0.619713
vt 0.414770 0.595097
vt 0.005929 0.732676
vt 0.404771 0.649030
vt 0.352770 0.510601
vt 0.564478 0.569389
vt 0.367093 0.164044
vt 0.393178 0.175310
vt 0.393091 0.332165
vt 0.034860 0.057015
vt 0.418254 0.175596
vt 0.418189 0.331846
vt 0.553386 0.007690
vt 0.447817 0.342704
vt 0.768362 0.162616
vt 0.797988 0.173511
vt 0.798075 0.329856
vt 0.617142 0.719392
vt 0.823047 0.173211
vt 0.823164 0.330170
vt 0.240322 0.775725
vt 0.849224 0.341442
vt 0.387264 0.676446
vt 0.511226 0.104304
vt 0.381532 0.542557
vt 0.599943 0.462041
vt 0.037755 0.910266
vt 0.511785 0.462195
vt 0.600042 0.499731
vt 0.512010 0.499918
vt 0.284464 0.085226
vt 0.005929 0.085226
vt 0.994070 0.720222
vt 0.900349 0.107895
vt 0.284464 0.513223
vt 0.005929 0.513223
vt 0.255533 0.541434
vt 0.034860 0.541434
vt 0.580609 0.676286
vt 0.994070 0.738930
vt 0.725962 0.738929
vt 0.725962 0.720222
vt 0.034860 0.632910
vt 0.918514 0.395381
vt 0.918407 0.107985
vt 0.255533 0.632909
vt 0.211692 0.857096
vt 0.072071 0.857407
vt 0.072517 0.832514
vt 0.210915 0.832264
vt 0.222370 0.803076
vt 0.059866 0.883362
vt 0.586074 0.542552
vt 0.245741 0.910346
vt 0.474207 0.361731
vt 0.315716 0.397310
vt 0.297615 0.397201
vt 0.297768 0.110218
vn 1.000000 0.000000 0.000000
vn 1.000000 0.000000 0.000000
vn 1.000000 0.000000 0.000000
vn 1.000000 0.000000 0.000000
vn 0.445124 0.895469 0.000000
vn 0.445124 0.895469 0.000000
vn 0.401528 0.915847 0.000000
vn 0.401528 0.915847 0.000000
vn -0.000000 0.868672 -0.495388
vn -0.000000 0.842471 -0.538741
vn -0.000000 0.842471 -0.538741
vn -0.000000 0.868672 -0.495388
vn 0.757198 0.643074 0.114481
vn 0.984232 0.000000 0.176880
vn 0.984232 0.000000 -0.176880
vn 0.757198 0.643074 -0.114481
vn 0.000000 -0.806113 -0.591762
vn 0.000000 -0.084857 -0.996393
vn 0.000000 -0.086642 -0.996240
vn 0.000000 -0.806113 -0.591762
vn 0.415440 -0.909621 0.000000
vn 0.415440 -0.909621 0.000000
vn 0.496598 -0.867981 0.000000
vn 0.496598 -0.867981 0.000000
vn -0.000000 0.616202 -0.787588
vn -0.000000 0.616202 -0.787588
vn 0.705819 0.708392 0.000000
vn 0.705819 0.708392 0.000000
vn 0.000000 -0.461163 -0.887315
vn 0.000000 -0.461163 -0.887315
vn 0.830781 -0.556599 0.000000
vn 0.830781 -0.556599 0.000000
vn 0.976400 -0.215969 0.000000
vn 0.964951 0.262431 0.000000
vn 0.964951 0.262431 0.000000
vn 0.976400 -0.215969 0.000000
vn -0.000000 0.206313 0.978486
vn -0.000000 0.616203 0.787587
vn -0.000000 0.616203 0.787587
vn -0.000000 0.206313 0.978486
vn 0.000000 -0.461163 0.887316
vn -0.000000 -0.168815 0.985648
vn -0.000000 -0.168815 0.985648
vn 0.000000 -0.461163 0.887316
vn 0.000000 -0.168814 -0.985648
vn 0.000000 -0.168814 -0.985648
vn 0.000000 0.206313 -0.978486
vn 0.000000 0.206313 -0.978486
vn 0.420908 -0.907104 0.000000
vn 0.420908 -0.907104 0.000000
vn 0.013028 0.975480 -0.219702
vn 0.277991 0.000000 -0.960584
vn 0.464502 -0.885572 0.000000
vn 0.464502 -0.885572 0.000000
vn 0.013028 0.975480 0.219702
vn 0.277991 0.000000 0.960584
vn -1.000000 0.000000 0.000000
vn -1.000000 0.000000 0.000000
vn -1.000000 0.000000 0.000000
vn -1.000000 0.000000 0.000000
vn -0.445124 0.895469 0.000000
vn -0.401529 0.915847 0.000000
vn -0.401529 0.915847 0.000000
vn -0.445124 0.895469 0.000000
vn -0.997491 0.000000 -0.070799
vn -0.997491 0.000000 0.070799
vn -0.894871 0.441782 0.063515
vn -0.894871 0.441782 -0.063515
vn -0.117575 -0.993064 0.000000
vn -0.496598 -0.867981 0.000000
vn -0.496598 -0.867981 0.000000
vn -0.117575 -0.993064 0.000000
vn -0.705819 0.708392 0.000000
vn -0.705819 0.708392 0.000000
vn -0.830781 -0.556599 0.000000
vn -0.830781 -0.556599 0.000000
vn -0.976400 -0.215969 0.000000
vn -0.976400 -0.215969 0.000000
vn -0.964951 0.262431 0.000000
vn -0.964951 0.262431 0.000000
vn 0.000000 -1.000000 0.000000
vn 0.000000 -1.000000 0.000000
vn 0.000000 -1.000000 0.000000
vn 0.000000 -1.000000 0.000000
vn -0.010522 0.975499 -0.219753
vn -0.010522 0.975499 0.219753
vn -0.264633 0.000000 0.964349
vn 0.000000 0.000000 1.000000
vn 0.000000 0.000000 1.000000
vn 0.000000 0.000000 1.000000
vn 0.000000 0.000000 1.000000
vn 0.000000 0.000000 -1.000000
vn 0.000000 0.000000 -1.000000
vn 0.000000 0.000000 -1.000000
vn 0.000000 0.000000 -1.000000
vn -0.000000 -1.000000 0.000000
vn -0.000000 -1.000000 0.000000
vn -0.000000 -1.000000 0.000000
vn -0.000000 -1.000000 0.000000
vn 0.000000 0.868672 0.495388
vn 0.000000 0.868672 0.495388
vn 0.000000 0.842471 0.538742
vn 0.000000 0.842471 0.538742
vn 0.000000 -0.084857 0.996393
vn 0.000000 -0.806113 0.591761
vn 0.000000 -0.806113 0.591761
vn 0.000000 -0.086642 0.996240
vn -0.264633 0.000000 -0.964349
s off
g polySurface45 group36
usemtl initialShadingGroup
f 10/18/9 9/15/10 12/16/11 11/17/12
s 1
f 19/121/13 20/93/14 10/73/15 11/20/16
s 2
f 37/23/17 45/24/18 19/21/19 11/102/20
f 34/78/21 31/31/22 32/43/23 33/39/24
f 43/49/25 40/41/26 14/40/27 17/48/28
s 1
f 14/86/29 13/52/30 18/91/31 17/107/32
s 2
f 45/24/18 49/90/33 23/25/34 19/21/19
s 1
f 23/74/35 24/26/36 20/93/14 19/121/13
s 2
f 47/54/37 43/49/25 17/48/28 21/83/38
s 1
f 17/107/32 18/91/31 22/72/39 21/53/40
f 27/69/41 28/70/42 26/67/43 25/68/44
s 2
f 54/77/45 50/30/46 24/75/47 28/76/48
s 1
f 24/26/36 23/74/35 26/67/43 28/70/42
s 2
f 48/82/49 53/80/50 27/79/51 22/57/52
s 1
f 27/69/41 25/68/44 21/53/40 22/72/39
s 2
f 51/85/53 47/54/37 21/83/38 25/84/54
f 49/90/33 52/88/55 26/87/56 23/25/34
s 1
f 29/59/57 13/52/30 14/86/29 30/58/58
s 2
f 14/40/27 16/36/59 30/35/60
s 1
f 31/64/61 29/59/57 30/58/58 32/63/62
s 2
f 32/32/23 30/35/60 16/36/59 33/33/24
f 33/39/24 16/99/59 15/100/63 34/78/21
f 15/37/63 29/38/64 31/81/22 34/34/21
s off
f 38/110/65 35/101/66 36/108/67 37/109/68
s 7
f 45/122/69 37/47/70 36/28/71 46/95/72
s 2
f 58/114/73 57/111/74 60/106/75 59/105/76
s 7
f 40/50/77 43/89/78 44/55/79 39/71/80
f 49/29/81 45/122/69 46/95/72 50/120/82
f 43/89/78 47/119/83 48/60/84 44/55/79
f 53/117/85 51/118/86 52/115/87 54/116/88
f 50/120/82 54/116/88 52/115/87 49/29/81
f 53/117/85 48/60/84 47/119/83 51/118/86
f 40/50/77 39/71/80 55/61/89 56/62/90
f 56/62/90 55/61/89 57/65/91 58/66/92
s 2
f 42/42/93 58/45/73 59/46/76
f 41/104/94 42/103/93 59/105/76 60/106/75
f 55/96/95 41/94/94 60/97/75
s off
f 9/126/96 10/19/97 36/124/98 35/125/99
s 2
f 15/100/63 16/99/59 42/103/93 41/104/94
s off
f 11/102/100 12/113/101 38/112/102 37/23/103
f 12/16/104 9/15/105 35/101/106 38/110/107
s 2
f 36/124/108 10/19/109 20/22/110 46/27/111
f 39/56/112 41/94/94 55/96/95
f 44/123/113 18/51/114 13/92/115 39/56/112
f 46/27/111 20/22/110 24/75/47 50/30/46
f 48/82/49 22/57/52 18/51/114 44/123/113
f 54/77/45 28/76/48 27/79/51 53/80/50
f 51/85/53 25/84/54 26/87/56 52/88/55
f 13/92/115 29/38/64 15/37/63
f 13/92/115 15/37/63 41/94/94 39/56/112
f 42/42/93 40/41/26 56/44/116
f 42/42/93 16/36/59 14/40/27 40/41/26
f 42/42/93 56/44/116 58/45/73
f 55/96/95 60/97/75 57/98/74
g default
v 0.549682 0.000000 0.422586
v 0.549682 0.000000 -0.422586
v 0.571058 0.639574 0.439020
v 0.571058 0.639574 -0.439020
v 0.798177 0.980762 0.439020
v 0.798177 0.980762 -0.439020
v 0.314559 0.453449 -0.241827
v 0.314559 0.453449 0.241827
v 0.303818 0.229446 -0.233570
v 0.303818 0.229446 0.233570
v 0.798177 0.741933 0.439020
v 0.798177 0.741933 -0.439020
v 0.903400 0.797124 0.347820
v 0.903400 0.797124 -0.347820
v 0.903400 0.980762 -0.347820
v 0.903400 0.980762 0.347820
v -0.549682 0.000000 0.422586
v -0.549682 0.000000 -0.422586
v -0.571058 0.639574 0.439020
v -0.571058 0.639574 -0.439020
v -0.798177 0.980762 0.439020
v -0.798177 0.980762 -0.439020
v -0.314559 0.453449 -0.241827
v -0.314559 0.453449 0.241827
v -0.303818 0.229446 -0.233570
v -0.303818 0.229446 0.233570
v -0.798177 0.639574 0.439020
v -0.798177 0.639574 -0.439020
v -0.903400 0.639574 0.347820
v -0.903400 0.639574 -0.347820
v -0.903400 0.980762 -0.347820
v -0.903400 0.980762 0.347820
vt 0.804230 0.981283
vt 0.668153 0.766013
vt 0.668153 0.233986
vt 0.804230 0.018716
vt 1.000000 0.103868
vt 1.000000 0.896132
vt 1.000000 0.896132
vt 1.000000 0.103868
vt 0.941763 1.000000
vt 0.816061 1.000000
vt 0.183939 1.000000
vt 0.058237 1.000000
vt 0.674097 0.775417
vt 0.325903 0.775417
vt 0.816061 -0.000000
vt 0.674097 0.224583
vt 0.325903 0.224583
vt 0.331847 0.233986
vt 0.331847 0.766013
vt 0.195770 0.981283
vt 0.941763 1.000000
vt 0.941763 -0.000000
vt 0.941763 -0.000000
vt 0.195770 0.018717
vt 0.000000 0.103868
vt 0.000000 0.103868
vt 0.000000 0.896132
vt 0.000000 0.896132
vt 0.183939 -0.000000
vt 0.058237 -0.000000
vt 0.058237 1.000000
vt 0.058237 -0.000000
vn 0.682276 0.731095 0.000000
vn 0.825339 0.564637 0.000000
vn 0.825339 0.564637 0.000000
vn 0.682276 0.731095 0.000000
vn 1.000000 0.000000 0.000000
vn 1.000000 0.000000 0.000000
vn 1.000000 0.000000 0.000000
vn 1.000000 0.000000 0.000000
vn -0.000000 0.000000 -1.000000
vn -0.000000 0.000000 -1.000000
vn 0.000000 0.000000 -1.000000
vn 0.000000 0.000000 -1.000000
vn -0.000000 -0.727220 -0.686405
vn -0.000000 -0.727220 -0.686405
vn -0.000000 -0.568983 -0.822349
vn -0.000000 -0.568983 -0.822349
vn 0.478527 -0.878073 0.000000
vn 0.747448 -0.664320 0.000000
vn 0.747448 -0.664320 0.000000
vn 0.478527 -0.878073 0.000000
vn -0.000000 0.469267 0.883056
vn -0.000000 -0.568983 0.822349
vn -0.000000 -0.568983 0.822349
vn -0.000000 0.469267 0.883056
vn -0.000000 0.469267 -0.883056
vn -0.000000 0.469267 -0.883056
vn -0.000000 0.635828 -0.771830
vn -0.000000 0.635828 -0.771830
vn 0.420908 -0.907104 0.000000
vn 0.420908 -0.907104 0.000000
vn -0.000000 0.000000 -1.000000
vn 0.000000 0.000000 1.000000
vn 0.000000 0.000000 1.000000
vn 0.000000 0.000000 1.000000
vn 0.464502 -0.885572 0.000000
vn 0.464502 -0.885572 0.000000
vn 0.654963 0.000000 -0.755661
vn 0.654963 0.000000 -0.755661
vn 0.654963 0.000000 -0.755661
vn 0.654963 0.000000 -0.755661
vn 0.000000 1.000000 0.000000
vn 0.000000 1.000000 0.000000
vn 0.000000 1.000000 0.000000
vn 0.000000 1.000000 0.000000
vn 0.654963 0.000000 0.755661
vn 0.654963 0.000000 0.755661
vn 0.654962 0.000000 0.755661
vn 0.654963 0.000000 0.755661
vn -0.682276 0.731095 0.000000
vn -0.682276 0.731095 0.000000
vn -0.825339 0.564637 0.000000
vn -0.825339 0.564637 0.000000
vn -1.000000 0.000000 0.000000
vn -1.000000 0.000000 0.000000
vn -1.000000 0.000000 0.000000
vn -1.000000 0.000000 0.000000
vn -0.241482 -0.970405 0.000000
vn -0.241482 -0.970405 0.000000
vn -0.747448 -0.664320 0.000000
vn -0.747448 -0.664320 0.000000
vn 0.000000 -1.000000 0.000000
vn 0.000000 -1.000000 0.000000
vn 0.000000 0.000000 -1.000000
vn 0.000000 0.000000 1.000000
vn 0.000000 0.000000 1.000000
vn 0.000000 0.000000 1.000000
vn 0.000000 -1.000000 0.000000
vn 0.000000 -1.000000 0.000000
vn -0.654963 0.000000 -0.755661
vn -0.654963 0.000000 -0.755661
vn -0.654963 0.000000 -0.755661
vn -0.654963 0.000000 -0.755661
vn 0.000000 1.000000 0.000000
vn 0.000000 1.000000 0.000000
vn 0.000000 1.000000 0.000000
vn 0.000000 1.000000 0.000000
vn -0.654963 0.000000 0.755661
vn -0.654963 0.000000 0.755661
vn -0.654963 0.000000 0.755661
vn -0.654963 0.000000 0.755661
vn -0.000000 0.635828 0.771830
vn -0.000000 0.635828 0.771830
vn -0.000000 -1.000000 0.000000
vn -0.000000 -1.000000 0.000000
vn -0.000000 -1.000000 0.000000
vn -0.000000 -1.000000 0.000000
vn -0.000000 -0.727220 0.686405
vn -0.000000 -0.727220 0.686405
s 1
g _coll
usemtl initialShadingGroup
f 62/127/117 69/128/118 70/129/119 61/130/120
s off
f 73/131/121 74/132/122 75/133/123 76/134/124
s 2
f 66/135/125 64/136/126 80/137/127 82/138/128
s 3
f 80/137/129 64/136/130 67/139/131 83/140/132
s 1
f 63/141/133 68/142/134 67/139/135 64/136/136
f 70/129/119 69/128/118 67/139/135 68/142/134
s 4
f 70/129/137 68/142/138 84/143/139 86/144/140
s 3
f 85/145/141 83/140/132 67/139/131 69/128/142
f 78/146/143 85/145/141 69/128/142 62/127/144
s 1
f 63/141/133 64/136/136 72/147/145 71/148/146
s 2
f 64/136/126 66/135/125 72/147/147
s 5
f 65/149/148 63/141/149 71/148/150
s 1
f 71/148/146 72/147/145 74/132/151 73/131/152
s off
f 72/147/153 66/135/154 75/133/155 74/132/156
s 6
f 66/135/157 65/149/158 76/134/159 75/133/160
s off
f 65/149/161 71/148/162 73/131/163 76/134/164
s 7
f 78/146/165 77/150/166 86/144/167 85/145/168
s off
f 89/151/169 92/152/170 91/153/171 90/154/172
s 7
f 79/155/173 80/137/174 83/140/175 84/143/176
f 86/144/167 84/143/176 83/140/175 85/145/168
f 79/155/173 87/156/177 88/157/178 80/137/174
s 2
f 80/137/127 88/157/179 82/138/128
s 5
f 81/158/180 87/156/181 79/155/182
s 7
f 87/156/177 89/151/183 90/154/184 88/157/178
s off
f 88/157/185 90/154/186 91/153/187 82/138/188
s 6
f 82/138/189 91/153/190 92/152/191 81/158/192
s off
f 81/158/193 92/152/194 89/151/195 87/156/196
s 4
f 77/150/197 61/130/198 70/129/137 86/144/140
s 6
f 66/135/157 82/138/189 81/158/192 65/149/158
s off
f 61/130/199 77/150/200 78/146/201 62/127/202
s 5
f 65/149/148 81/158/180 79/155/182 63/141/149
s 4
f 63/141/203 79/155/204 84/143/139 68/142/138
