# This file uses centimeters as units for non-parametric coordinates.

mtllib Drawbridge.mtl
g default
v -0.189000 -0.094702 0.189000
v -0.189000 -0.094702 -0.189000
v 0.189000 -0.094702 -0.189000
v 0.189000 -0.094702 0.189000
v -0.189000 0.283298 0.189000
v 0.189000 0.283298 0.189000
v 0.189000 0.283298 -0.189000
v -0.189000 0.283298 -0.189000
vt 1.000000 0.000000
vt 1.000000 1.000000
vt 0.000000 1.000000
vt 0.000000 0.000000
vt 0.000000 0.000000
vt 1.000000 0.000000
vt 1.000000 1.000000
vt 0.000000 1.000000
vt 0.000000 0.000000
vt 1.000000 0.000000
vt 1.000000 1.000000
vt 0.000000 1.000000
vt 1.000000 0.000000
vt 1.000000 1.000000
vt 0.000000 1.000000
vt 0.000000 0.000000
vt 1.000000 0.000000
vt 1.000000 1.000000
vt 0.000000 1.000000
vt 0.000000 0.000000
vt 1.000000 1.000000
vt 0.000000 1.000000
vn 0.000000 -1.000000 0.000000
vn 0.000000 -1.000000 0.000000
vn 0.000000 -1.000000 0.000000
vn 0.000000 -1.000000 0.000000
vn 0.000000 1.000000 0.000000
vn 0.000000 1.000000 0.000000
vn 0.000000 1.000000 0.000000
vn 0.000000 1.000000 0.000000
vn 0.000000 0.000000 1.000000
vn 0.000000 0.000000 1.000000
vn 0.000000 0.000000 1.000000
vn 0.000000 0.000000 1.000000
vn 1.000000 0.000000 0.000000
vn 1.000000 0.000000 0.000000
vn 1.000000 0.000000 0.000000
vn 1.000000 0.000000 0.000000
vn 0.000000 0.000000 -1.000000
vn 0.000000 0.000000 -1.000000
vn 0.000000 0.000000 -1.000000
vn 0.000000 0.000000 -1.000000
vn -1.000000 0.000000 -0.000000
vn -1.000000 0.000000 -0.000000
vn -1.000000 0.000000 -0.000000
vn -1.000000 0.000000 -0.000000
s off
g pivot
usemtl initialShadingGroup
f 1/1/1 2/2/2 3/3/3 4/4/4
f 5/5/5 6/6/6 7/7/7 8/8/8
f 1/9/9 4/10/10 6/11/11 5/12/12
f 4/4/13 3/13/14 7/14/15 6/15/16
f 3/16/17 2/17/18 8/18/19 7/19/20
f 2/20/21 1/1/22 5/21/23 8/22/24
g default
v -1.049638 -0.047931 4.174402
v 0.955998 -0.047931 4.174402
v -1.049638 0.139869 4.174402
v 0.955998 0.139869 4.174402
v -1.049638 0.139869 -0.047357
v 0.955998 0.139869 -0.047357
v -1.049638 -0.047931 -0.047357
v 0.955998 -0.047931 -0.047357
vt 0.375000 0.000000
vt 0.625000 0.000000
vt 0.375000 0.250000
vt 0.625000 0.250000
vt 0.375000 0.500000
vt 0.625000 0.500000
vt 0.375000 0.750000
vt 0.625000 0.750000
vt 0.375000 1.000000
vt 0.625000 1.000000
vt 0.875000 0.000000
vt 0.875000 0.250000
vt 0.125000 0.000000
vt 0.125000 0.250000
vn 0.000000 0.000000 1.000000
vn 0.000000 0.000000 1.000000
vn 0.000000 0.000000 1.000000
vn 0.000000 0.000000 1.000000
vn 0.000000 1.000000 0.000000
vn 0.000000 1.000000 0.000000
vn 0.000000 1.000000 0.000000
vn 0.000000 1.000000 0.000000
vn 0.000000 0.000000 -1.000000
vn 0.000000 0.000000 -1.000000
vn 0.000000 0.000000 -1.000000
vn 0.000000 0.000000 -1.000000
vn 0.000000 -1.000000 0.000000
vn 0.000000 -1.000000 0.000000
vn 0.000000 -1.000000 0.000000
vn 0.000000 -1.000000 0.000000
vn 1.000000 0.000000 0.000000
vn 1.000000 0.000000 0.000000
vn 1.000000 0.000000 0.000000
vn 1.000000 0.000000 0.000000
vn -1.000000 0.000000 0.000000
vn -1.000000 0.000000 0.000000
vn -1.000000 0.000000 0.000000
vn -1.000000 0.000000 0.000000
s off
g drawbridge
usemtl initialShadingGroup
f 9/23/25 10/24/26 12/26/27 11/25/28
f 11/25/29 12/26/30 14/28/31 13/27/32
f 13/27/33 14/28/34 16/30/35 15/29/36
f 15/29/37 16/30/38 10/32/39 9/31/40
f 10/24/41 16/33/42 14/34/43 12/26/44
f 15/35/45 9/23/46 11/25/47 13/36/48
g default
v -1.049638 -0.047931 4.174402
v 0.955998 -0.047931 4.174402
v -1.049638 0.139869 4.174402
v 0.955998 0.139869 4.174402
v -1.049638 0.139869 -0.047357
v 0.955998 0.139869 -0.047357
v -1.049638 -0.047931 -0.047357
v 0.955998 -0.047931 -0.047357
vt 0.375000 0.000000
vt 0.625000 0.000000
vt 0.375000 0.250000
vt 0.625000 0.250000
vt 0.375000 0.500000
vt 0.625000 0.500000
vt 0.375000 0.750000
vt 0.625000 0.750000
vt 0.375000 1.000000
vt 0.625000 1.000000
vt 0.875000 0.000000
vt 0.875000 0.250000
vt 0.125000 0.000000
vt 0.125000 0.250000
vn 0.000000 0.000000 1.000000
vn 0.000000 0.000000 1.000000
vn 0.000000 0.000000 1.000000
vn 0.000000 0.000000 1.000000
vn 0.000000 1.000000 0.000000
vn 0.000000 1.000000 0.000000
vn 0.000000 1.000000 0.000000
vn 0.000000 1.000000 0.000000
vn 0.000000 0.000000 -1.000000
vn 0.000000 0.000000 -1.000000
vn 0.000000 0.000000 -1.000000
vn 0.000000 0.000000 -1.000000
vn 0.000000 -1.000000 0.000000
vn 0.000000 -1.000000 0.000000
vn 0.000000 -1.000000 0.000000
vn 0.000000 -1.000000 0.000000
vn 1.000000 0.000000 0.000000
vn 1.000000 0.000000 0.000000
vn 1.000000 0.000000 0.000000
vn 1.000000 0.000000 0.000000
vn -1.000000 0.000000 0.000000
vn -1.000000 0.000000 0.000000
vn -1.000000 0.000000 0.000000
vn -1.000000 0.000000 0.000000
s off
g _coll
usemtl initialShadingGroup
f 17/37/49 18/38/50 20/40/51 19/39/52
f 19/39/53 20/40/54 22/42/55 21/41/56
f 21/41/57 22/42/58 24/44/59 23/43/60
f 23/43/61 24/44/62 18/46/63 17/45/64
f 18/38/65 24/47/66 22/48/67 20/40/68
f 23/49/69 17/37/70 19/39/71 21/50/72
