# This file uses centimeters as units for non-parametric coordinates.

mtllib Elevator_Shield.mtl
g Elevator_Shield:default1
v -0.500000 -0.500000 0.500000
v 0.500000 -0.500000 0.500000
v -0.500000 0.500000 0.500000
v 0.500000 0.500000 0.500000
v -0.500000 0.500000 -0.500000
v 0.500000 0.500000 -0.500000
v -0.500000 -0.500000 -0.500000
v 0.500000 -0.500000 -0.500000
vt 0.375000 0.000000
vt 0.625000 0.000000
vt 0.625000 0.250000
vt 0.375000 0.250000
vt 0.625000 0.500000
vt 0.375000 0.500000
vt 0.625000 0.750000
vt 0.375000 0.750000
vt 0.625000 1.000000
vt 0.375000 1.000000
vt 0.875000 0.000000
vt 0.875000 0.250000
vt 0.125000 0.000000
vt 0.125000 0.250000
vn 0.000000 0.000000 1.000000
vn 0.000000 0.000000 1.000000
vn 0.000000 0.000000 1.000000
vn 0.000000 0.000000 1.000000
vn 0.000000 1.000000 0.000000
vn 0.000000 1.000000 0.000000
vn 0.000000 1.000000 0.000000
vn 0.000000 1.000000 0.000000
vn 0.000000 0.000000 -1.000000
vn 0.000000 0.000000 -1.000000
vn 0.000000 0.000000 -1.000000
vn 0.000000 0.000000 -1.000000
vn 0.000000 -1.000000 0.000000
vn 0.000000 -1.000000 0.000000
vn 0.000000 -1.000000 0.000000
vn 0.000000 -1.000000 0.000000
vn 1.000000 0.000000 0.000000
vn 1.000000 0.000000 0.000000
vn 1.000000 0.000000 0.000000
vn 1.000000 0.000000 0.000000
vn -1.000000 0.000000 0.000000
vn -1.000000 0.000000 0.000000
vn -1.000000 0.000000 0.000000
vn -1.000000 0.000000 0.000000
s off
g Elevator_Shield:pivot pivot Elevator_Shield:polySurface1
usemtl Elevator_Shield:initialShadingGroup
f 1/1/1 2/2/2 4/3/3 3/4/4
f 3/4/5 4/3/6 6/5/7 5/6/8
f 5/6/9 6/5/10 8/7/11 7/8/12
f 7/8/13 8/7/14 2/9/15 1/10/16
f 2/2/17 8/11/18 6/12/19 4/3/20
f 7/13/21 1/1/22 3/4/23 5/14/24
g Elevator_Shield:default2
v 1.670954 0.071857 1.670954
v 1.670954 0.071857 -1.670954
v 1.670954 1.829855 1.670954
v 1.670954 1.829855 -1.670954
v 1.754503 0.062076 1.754503
v 1.754503 0.062076 -1.754503
v 1.754503 1.829855 -1.754503
v 1.754503 1.829855 1.754503
g Elevator_Shield:default3
v -1.670954 0.071857 -1.670954
v -1.670954 0.071857 1.670954
v -1.670954 1.829855 -1.670954
v -1.670954 1.829855 1.670954
v -1.754503 0.062076 -1.754503
v -1.754503 0.062076 1.754503
v -1.754503 1.829855 1.754503
v -1.754503 1.829855 -1.754503
vt 0.805420 0.588364
vt 0.805420 0.681648
vt 0.616488 0.681648
vt 0.616487 0.588364
vt 0.620986 0.491611
vt 0.800922 0.491611
vt 0.800922 0.583866
vt 0.620986 0.583866
vt 0.805420 0.588364
vt 0.805420 0.681648
vt 0.616488 0.681648
vt 0.616487 0.588364
vt 0.620986 0.491611
vt 0.800922 0.491611
vt 0.800922 0.583866
vt 0.620986 0.583866
vt 0.805420 0.588364
vt 0.805420 0.681648
vt 0.616488 0.681648
vt 0.616487 0.588364
vt 0.620986 0.491611
vt 0.800922 0.491611
vt 0.800922 0.583866
vt 0.620986 0.583866
vt 0.805420 0.588364
vt 0.805420 0.681648
vt 0.616488 0.681648
vt 0.616487 0.588364
vt 0.620986 0.491611
vt 0.800922 0.491611
vt 0.800922 0.583866
vt 0.620986 0.583866
vn 1.000000 0.000000 0.000000
vn 1.000000 0.000000 0.000000
vn 1.000000 0.000000 0.000000
vn 1.000000 0.000000 0.000000
vn -1.000000 0.000000 -0.000000
vn -1.000000 0.000000 -0.000000
vn -1.000000 0.000000 -0.000000
vn -1.000000 0.000000 -0.000000
vn -0.058336 0.996591 0.058336
vn -0.058336 0.996591 0.058336
vn -0.058336 0.996591 -0.058336
vn -0.058336 0.996591 -0.058336
vn -1.000000 0.000000 0.000000
vn -1.000000 0.000000 0.000000
vn -1.000000 0.000000 0.000000
vn -1.000000 0.000000 0.000000
vn 1.000000 0.000000 0.000000
vn 1.000000 0.000000 0.000000
vn 1.000000 0.000000 0.000000
vn 1.000000 0.000000 0.000000
vn 0.058336 0.996591 -0.058336
vn 0.058336 0.996591 -0.058336
vn 0.058336 0.996591 0.058336
vn 0.058336 0.996591 0.058336
vn 0.000000 0.000000 -1.000000
vn 0.000000 0.000000 -1.000000
vn 0.000000 0.000000 -1.000000
vn 0.000000 0.000000 -1.000000
vn 0.000000 0.000000 1.000000
vn 0.000000 0.000000 1.000000
vn 0.000000 0.000000 1.000000
vn 0.000000 0.000000 1.000000
vn 0.058336 0.996591 0.058336
vn 0.058336 0.996591 0.058336
vn -0.058336 0.996591 0.058336
vn -0.058336 0.996591 0.058336
vn 0.000000 0.000000 1.000000
vn 0.000000 0.000000 1.000000
vn 0.000000 0.000000 1.000000
vn 0.000000 0.000000 1.000000
vn 0.000000 0.000000 -1.000000
vn 0.000000 0.000000 -1.000000
vn 0.000000 0.000000 -1.000000
vn 0.000000 0.000000 -1.000000
vn -0.058336 0.996591 -0.058336
vn -0.058336 0.996591 -0.058336
vn 0.058336 0.996591 -0.058336
vn 0.058336 0.996591 -0.058336
s off
g Elevator_Shield:Shield Elevator_Shield:group70 Elevator_Shield:pasted__pCube28 Elevator_Shield:polySurface1 Shield
usemtl Elevator_Shield:initialShadingGroup
f 16/15/25 13/16/26 14/17/27 15/18/28
f 10/19/29 9/20/30 11/21/31 12/22/32
f 15/18/33 12/22/34 11/21/35 16/15/36
g Elevator_Shield:Shield Elevator_Shield:group71 Elevator_Shield:pasted__pCube29 Elevator_Shield:polySurface1 Shield
f 24/23/37 21/24/38 22/25/39 23/26/40
f 18/27/41 17/28/42 19/29/43 20/30/44
f 23/26/45 20/30/46 19/29/47 24/23/48
g Elevator_Shield:Shield Elevator_Shield:group72 Elevator_Shield:pasted__pCube30 Elevator_Shield:polySurface1 Shield
f 15/31/49 14/32/50 21/33/51 24/34/52
f 17/35/53 10/36/54 12/37/55 19/38/56
f 24/34/57 19/38/58 12/37/59 15/31/60
g Elevator_Shield:Shield Elevator_Shield:group73 Elevator_Shield:pasted__pCube31 Elevator_Shield:polySurface1 Shield
f 23/39/61 22/40/62 13/41/63 16/42/64
f 9/43/65 18/44/66 20/45/67 11/46/68
f 16/42/69 11/46/70 20/45/71 23/39/72
g Elevator_Shield:default4
v -1.666937 0.132862 1.666937
v 1.666937 0.132862 1.666937
v -1.666937 1.821122 1.666937
v 1.666937 1.821122 1.666937
v -1.666937 1.821122 -1.666937
v 1.666937 1.821122 -1.666937
v -1.666937 0.073025 -1.666937
v 1.666937 0.073025 -1.666937
v -1.792264 0.072740 1.792264
v 1.792264 0.072740 1.792264
v 1.792264 1.820883 1.792264
v -1.792264 1.820883 1.792264
v -1.792264 1.820883 -1.792264
v 1.792264 1.820883 -1.792264
v 1.792264 0.072740 -1.792264
v -1.792264 0.072740 -1.792264
vt 0.375000 0.000000
vt 0.625000 0.000000
vt 0.625000 0.250000
vt 0.375000 0.250000
vt 0.375000 0.500000
vt 0.625000 0.500000
vt 0.625000 0.750000
vt 0.375000 0.750000
vt 0.875000 0.000000
vt 0.875000 0.250000
vt 0.125000 0.000000
vt 0.125000 0.250000
vt 0.375000 0.000000
vt 0.375000 0.250000
vt 0.625000 0.250000
vt 0.625000 0.000000
vt 0.375000 0.500000
vt 0.375000 0.750000
vt 0.625000 0.750000
vt 0.625000 0.500000
vt 0.875000 0.250000
vt 0.875000 0.000000
vt 0.125000 0.000000
vt 0.125000 0.250000
vt 0.375000 0.000000
vt 0.625000 0.000000
vt 0.625000 0.250000
vt 0.375000 0.250000
vt 0.375000 0.500000
vt 0.625000 0.500000
vt 0.625000 0.750000
vt 0.375000 0.750000
vt 0.875000 0.000000
vt 0.875000 0.250000
vt 0.125000 0.000000
vt 0.125000 0.250000
vn 0.000000 0.000000 1.000000
vn 0.000000 0.000000 1.000000
vn 0.000000 0.000000 1.000000
vn 0.000000 0.000000 1.000000
vn 0.000000 0.000000 -1.000000
vn 0.000000 0.000000 -1.000000
vn 0.000000 0.000000 -1.000000
vn 0.000000 0.000000 -1.000000
vn 1.000000 0.000000 0.000000
vn 1.000000 0.000000 0.000000
vn 1.000000 0.000000 0.000000
vn 1.000000 0.000000 0.000000
vn -1.000000 0.000000 0.000000
vn -1.000000 0.000000 0.000000
vn -1.000000 0.000000 0.000000
vn -1.000000 0.000000 0.000000
vn 0.000000 0.000000 -1.000000
vn 0.000000 0.000000 -1.000000
vn 0.000000 0.000000 -1.000000
vn 0.000000 0.000000 -1.000000
vn 0.000000 0.000000 1.000000
vn 0.000000 0.000000 1.000000
vn 0.000000 0.000000 1.000000
vn 0.000000 0.000000 1.000000
vn -1.000000 0.000000 0.000000
vn -1.000000 0.000000 0.000000
vn -1.000000 0.000000 0.000000
vn -1.000000 0.000000 0.000000
vn 1.000000 0.000000 0.000000
vn 1.000000 0.000000 0.000000
vn 1.000000 0.000000 0.000000
vn 1.000000 0.000000 0.000000
vn 0.056329 -0.996822 -0.056328
vn -0.056329 -0.996822 -0.056328
vn -0.056329 -0.996822 -0.056328
vn 0.056329 -0.996822 -0.056328
vn -0.056330 0.996822 -0.056330
vn 0.056330 0.996822 -0.056330
vn 0.056330 0.996822 -0.056330
vn -0.056330 0.996822 -0.056330
vn 0.056330 0.996822 0.056330
vn -0.056330 0.996822 0.056330
vn -0.056330 0.996822 0.056330
vn 0.056330 0.996822 0.056330
vn -0.056329 -0.996822 0.056328
vn 0.056329 -0.996822 0.056328
vn 0.056329 -0.996822 0.056328
vn -0.056329 -0.996822 0.056328
vn -0.056329 -0.996822 -0.056328
vn -0.056329 -0.996822 0.056328
vn -0.056329 -0.996822 0.056328
vn -0.056329 -0.996822 -0.056328
vn -0.056330 0.996822 0.056330
vn -0.056330 0.996822 -0.056330
vn -0.056330 0.996822 -0.056330
vn -0.056330 0.996822 0.056330
vn 0.056329 -0.996822 0.056328
vn 0.056329 -0.996822 -0.056328
vn 0.056329 -0.996822 -0.056328
vn 0.056329 -0.996822 0.056328
vn 0.056330 0.996822 -0.056330
vn 0.056330 0.996822 0.056330
vn 0.056330 0.996822 0.056330
vn 0.056330 0.996822 -0.056330
s off
g Elevator_Shield:_coll Elevator_Shield:group74 Elevator_Shield:pasted__pCube32 Elevator_Shield:polySurface1 _coll
usemtl Elevator_Shield:initialShadingGroup
f 33/47/73 34/48/74 35/49/75 36/50/76
f 37/51/77 38/52/78 39/53/79 40/54/80
f 34/48/81 39/55/82 38/56/83 35/49/84
f 40/57/85 33/47/86 36/50/87 37/58/88
f 25/59/89 27/60/90 28/61/91 26/62/92
f 29/63/93 31/64/94 32/65/95 30/66/96
f 26/62/97 28/61/98 30/67/99 32/68/100
f 31/69/101 29/70/102 27/60/103 25/59/104
f 25/71/105 26/72/106 34/48/107 33/47/108
f 28/73/109 27/74/110 36/50/111 35/49/112
f 29/75/113 30/76/114 38/52/115 37/51/116
f 32/77/117 31/78/118 40/54/119 39/53/120
f 26/72/121 32/79/122 39/55/123 34/48/124
f 30/80/125 28/73/126 35/49/127 38/56/128
f 31/81/129 25/71/130 33/47/131 40/57/132
f 27/74/133 29/82/134 37/58/135 36/50/136
