# This file uses centimeters as units for non-parametric coordinates.

mtllib Plaster_Cast_Spear.mtl
g default
v -0.050000 -0.050000 0.050000
v 0.050000 -0.050000 0.050000
v -0.050000 0.050000 0.050000
v 0.050000 0.050000 0.050000
v -0.050000 0.050000 -0.050000
v 0.050000 0.050000 -0.050000
v -0.050000 -0.050000 -0.050000
v 0.050000 -0.050000 -0.050000
vt 0.375000 0.000000
vt 0.625000 0.000000
vt 0.375000 0.250000
vt 0.625000 0.250000
vt 0.375000 0.500000
vt 0.625000 0.500000
vt 0.375000 0.750000
vt 0.625000 0.750000
vt 0.375000 1.000000
vt 0.625000 1.000000
vt 0.875000 0.000000
vt 0.875000 0.250000
vt 0.125000 0.000000
vt 0.125000 0.250000
vn 0.000000 0.000000 1.000000
vn 0.000000 0.000000 1.000000
vn 0.000000 0.000000 1.000000
vn 0.000000 0.000000 1.000000
vn 0.000000 1.000000 0.000000
vn 0.000000 1.000000 0.000000
vn 0.000000 1.000000 0.000000
vn 0.000000 1.000000 0.000000
vn 0.000000 0.000000 -1.000000
vn 0.000000 0.000000 -1.000000
vn 0.000000 0.000000 -1.000000
vn 0.000000 0.000000 -1.000000
vn 0.000000 -1.000000 0.000000
vn 0.000000 -1.000000 0.000000
vn 0.000000 -1.000000 0.000000
vn 0.000000 -1.000000 0.000000
vn 1.000000 0.000000 0.000000
vn 1.000000 0.000000 0.000000
vn 1.000000 0.000000 0.000000
vn 1.000000 0.000000 0.000000
vn -1.000000 0.000000 0.000000
vn -1.000000 0.000000 0.000000
vn -1.000000 0.000000 0.000000
vn -1.000000 0.000000 0.000000
s off
g pivot
usemtl initialShadingGroup
f 1/1/1 2/2/2 4/4/3 3/3/4
f 3/3/5 4/4/6 6/6/7 5/5/8
f 5/5/9 6/6/10 8/8/11 7/7/12
f 7/7/13 8/8/14 2/10/15 1/9/16
f 2/2/17 8/11/18 6/12/19 4/4/20
f 7/13/21 1/1/22 3/3/23 5/14/24
g default
v -0.368979 -0.253813 0.268079
v -0.368979 0.287151 0.268079
v -0.368979 -0.253813 -0.268079
v -0.368979 0.287151 -0.268079
v -0.456084 0.287151 0.000000
v -0.456084 -0.253215 0.000000
v -0.433761 0.287151 0.140938
v -0.433761 -0.253215 0.140938
v -0.433761 0.287151 -0.140938
v -0.433761 -0.253215 -0.140938
v 0.433762 0.415681 -0.140938
v 0.394857 0.456084 -0.128297
v 0.415177 0.456084 -0.000000
v 0.456084 0.415681 0.000000
v 0.456084 -0.415681 0.000000
v 0.433761 -0.415681 -0.140938
v 0.368980 0.415681 -0.268079
v 0.335885 0.456084 -0.244035
v 0.000000 0.456084 0.000000
v 0.394857 0.456084 0.128297
v 0.433761 0.415681 0.140938
v 0.433762 -0.415681 0.140938
v 0.394857 -0.456084 -0.128297
v 0.415177 -0.456084 0.000000
v 0.368979 -0.415681 -0.268079
v 0.268079 0.415681 -0.368980
v 0.244035 0.456084 -0.335885
v 0.335885 0.456084 0.244035
v 0.368979 0.415681 0.268079
v 0.368980 -0.415681 0.268079
v 0.394857 -0.456084 0.128297
v 0.000000 -0.456084 0.000000
v 0.335885 -0.456084 -0.244035
v 0.268079 -0.415681 -0.368979
v 0.140938 0.415681 -0.433761
v 0.128297 0.456084 -0.394857
v 0.244035 0.456084 0.335885
v 0.268079 0.415681 0.368979
v 0.268079 -0.415681 0.368980
v 0.335885 -0.456084 0.244035
v 0.244035 -0.456084 -0.335885
v 0.140938 -0.415681 -0.433761
v 0.000000 0.415681 -0.456084
v 0.000000 0.456084 -0.415177
v 0.128297 0.456084 0.394857
v 0.140938 0.415681 0.433761
v 0.140938 -0.415681 0.433761
v 0.244035 -0.456084 0.335885
v 0.128297 -0.456084 -0.394857
v -0.000000 -0.415681 -0.456084
v -0.140938 0.415681 -0.433761
v -0.128297 0.456084 -0.394857
v -0.000000 0.456084 0.415177
v -0.000000 0.415681 0.456084
v 0.000000 -0.415681 0.456084
v 0.128297 -0.456084 0.394857
v -0.000000 -0.456084 -0.415177
v -0.140938 -0.415681 -0.433761
v -0.268079 0.415681 -0.368979
v -0.244035 0.456084 -0.335885
v -0.128297 0.456084 0.394857
v -0.140938 0.415681 0.433761
v -0.140938 -0.415681 0.433761
v -0.000000 -0.456084 0.415177
v -0.128297 -0.456084 -0.394857
v -0.268079 -0.415681 -0.368979
v -0.368979 0.415681 -0.268079
v -0.335885 0.456084 -0.244035
v -0.244035 0.456084 0.335885
v -0.268079 0.415681 0.368979
v -0.268079 -0.415681 0.368979
v -0.128297 -0.456084 0.394857
v -0.244035 -0.456084 -0.335885
v -0.368979 -0.415681 -0.268079
v -0.433761 0.415681 -0.140938
v -0.394857 0.456084 -0.128297
v -0.335885 0.456084 0.244035
v -0.368979 0.415681 0.268079
v -0.368979 -0.415681 0.268079
v -0.244035 -0.456084 0.335885
v -0.335885 -0.456084 -0.244035
v -0.433761 -0.415681 -0.140938
v -0.456084 0.415681 0.000000
v -0.415177 0.456084 0.000000
v -0.394857 0.456084 0.128297
v -0.433761 0.415681 0.140938
v -0.433761 -0.415681 0.140938
v -0.335885 -0.456084 0.244035
v -0.394857 -0.456084 -0.128297
v -0.456084 -0.415681 0.000000
v -0.394857 -0.456084 0.128297
v -0.415177 -0.456084 0.000000
vt 0.609956 0.742904
vt 0.609955 0.918326
vt 0.434534 0.742904
vt 0.434534 0.918326
vt 0.522245 0.918326
vt 0.522245 0.742904
vt 0.566100 0.918326
vt 0.566100 0.742904
vt 0.478389 0.918326
vt 0.478389 0.742904
vt 0.152332 0.720820
vt 0.148163 0.734033
vt 0.117814 0.729486
vt 0.117673 0.715661
vt 0.008472 0.107694
vt 0.008472 0.073667
vt 0.203006 0.073667
vt 0.203006 0.107694
vt 0.183791 0.736553
vt 0.175660 0.747872
vt 0.118176 0.827133
vt 0.087626 0.734580
vt 0.083190 0.721552
vt 0.008472 0.141658
vt 0.203006 0.141659
vt 0.316391 0.163998
vt 0.083185 0.721552
vt 0.117669 0.715661
vt 0.346579 0.158905
vt 0.008472 0.039794
vt 0.203006 0.039794
vt 0.208756 0.761520
vt 0.197437 0.769648
vt 0.060629 0.748692
vt 0.052453 0.737731
vt 0.008472 0.175526
vt 0.203006 0.175526
vt 0.152327 0.720820
vt 0.376928 0.163451
vt 0.346941 0.256551
vt 0.289394 0.178111
vt 0.052448 0.737731
vt 0.008472 0.005929
vt 0.203006 0.005929
vt 0.224487 0.792971
vt 0.211275 0.797145
vt 0.039363 0.770334
vt 0.028273 0.762406
vt 0.008472 0.209313
vt 0.203006 0.209313
vt 0.183786 0.736553
vt 0.404425 0.177290
vt 0.268128 0.199753
vt 0.028269 0.762406
vt 0.008472 0.670555
vt 0.008472 0.637617
vt 0.203006 0.637617
vt 0.203006 0.670555
vt 0.229648 0.827635
vt 0.215822 0.827494
vt 0.025773 0.797425
vt 0.012796 0.793274
vt 0.008472 0.243120
vt 0.203006 0.243121
vt 0.208751 0.761520
vt 0.426202 0.199066
vt 0.254538 0.226843
vt 0.012791 0.793274
vt 0.008472 0.604553
vt 0.203006 0.604553
vt 0.223756 0.862118
vt 0.210729 0.857682
vt 0.021139 0.827374
vt 0.007509 0.827414
vt 0.008472 0.277010
vt 0.203006 0.277010
vt 0.224482 0.792971
vt 0.440040 0.226564
vt 0.249904 0.256792
vt 0.007504 0.827414
vt 0.008472 0.571394
vt 0.203006 0.571394
vt 0.207577 0.892856
vt 0.196616 0.884680
vt 0.025921 0.857291
vt 0.012956 0.861518
vt 0.008472 0.310892
vt 0.203006 0.310893
vt 0.229643 0.827635
vt 0.444587 0.256913
vt 0.254686 0.286710
vt 0.012951 0.861518
vt 0.008472 0.538154
vt 0.203006 0.538154
vt 0.182902 0.917035
vt 0.174974 0.905946
vt 0.039661 0.884238
vt 0.028638 0.892275
vt 0.008472 0.341130
vt 0.203006 0.341130
vt 0.223752 0.862118
vt 0.439494 0.287101
vt 0.268426 0.313657
vt 0.028633 0.892275
vt 0.008472 0.504865
vt 0.045539 0.504865
vt 0.172941 0.504865
vt 0.203006 0.504865
vt 0.152035 0.932513
vt 0.147884 0.919536
vt 0.061070 0.905648
vt 0.053034 0.916670
vt 0.008472 0.374541
vt 0.203006 0.374541
vt 0.172941 0.374541
vt 0.045539 0.374541
vt 0.207572 0.892856
vt 0.425381 0.314098
vt 0.289835 0.335066
vt 0.053029 0.916670
vt 0.008472 0.474627
vt 0.045539 0.474627
vt 0.172941 0.474627
vt 0.203006 0.474627
vt 0.117895 0.937800
vt 0.117935 0.924170
vt 0.088017 0.919388
vt 0.083791 0.932353
vt 0.008472 0.407990
vt 0.045539 0.407990
vt 0.182897 0.917035
vt 0.403739 0.335364
vt 0.203006 0.407990
vt 0.172941 0.407990
vt 0.316782 0.348806
vt 0.083786 0.932353
vt 0.008472 0.441315
vt 0.045539 0.441315
vt 0.172941 0.441315
vt 0.203006 0.441315
vt 0.152030 0.932513
vt 0.376649 0.348954
vt 0.346700 0.353589
vt 0.117890 0.937800
vt 0.117930 0.924170
vt 0.147879 0.919536
vt 0.088012 0.919388
vt 0.174969 0.905946
vt 0.061065 0.905648
vt 0.196611 0.884680
vt 0.039656 0.884238
vt 0.210724 0.857682
vt 0.025916 0.857291
vt 0.215817 0.827494
vt 0.021134 0.827374
vt 0.211270 0.797145
vt 0.025768 0.797425
vt 0.197432 0.769648
vt 0.039358 0.770334
vt 0.175655 0.747872
vt 0.060624 0.748692
vt 0.148158 0.734033
vt 0.087621 0.734580
vt 0.117809 0.729486
vn -0.951046 0.000000 0.309051
vn -0.951021 0.000000 0.309125
vn -0.788218 0.000000 0.615396
vn -0.788323 0.000000 0.615262
vn -0.951046 -0.000000 -0.309051
vn -0.951021 -0.000000 -0.309125
vn -1.000000 0.000000 0.000000
vn -1.000000 0.000000 0.000000
vn -0.788218 -0.000000 -0.615396
vn -0.788323 -0.000000 -0.615262
vn 0.950225 0.041819 -0.308746
vn 0.182057 0.981507 -0.059154
vn 0.191426 0.981507 -0.000000
vn 0.999125 0.041819 0.000000
vn 0.999125 -0.041819 -0.000000
vn 0.950225 -0.041819 -0.308746
vn 0.808309 0.041819 -0.587271
vn 0.154867 0.981507 -0.112517
vn 0.000000 1.000000 -0.000000
vn 0.182057 0.981507 0.059154
vn 0.950225 0.041819 0.308746
vn 0.950225 -0.041819 0.308746
vn 0.182057 -0.981507 -0.059154
vn 0.191425 -0.981507 -0.000000
vn 0.808309 -0.041819 -0.587271
vn 0.587271 0.041819 -0.808309
vn 0.112517 0.981507 -0.154867
vn 0.154867 0.981507 0.112517
vn 0.808309 0.041819 0.587271
vn 0.808309 -0.041819 0.587271
vn 0.182056 -0.981507 0.059154
vn 0.000000 -1.000000 -0.000000
vn 0.154867 -0.981507 -0.112517
vn 0.587271 -0.041819 -0.808309
vn 0.308747 0.041819 -0.950225
vn 0.059154 0.981507 -0.182057
vn 0.112517 0.981507 0.154867
vn 0.587271 0.041819 0.808309
vn 0.587271 -0.041819 0.808309
vn 0.154867 -0.981507 0.112517
vn 0.112517 -0.981507 -0.154867
vn 0.308747 -0.041819 -0.950225
vn -0.000000 0.041819 -0.999125
vn -0.000000 0.981507 -0.191426
vn 0.059154 0.981507 0.182057
vn 0.308747 0.041819 0.950225
vn 0.308747 -0.041819 0.950225
vn 0.112517 -0.981507 0.154866
vn 0.059154 -0.981507 -0.182056
vn -0.000000 -0.041819 -0.999125
vn -0.308747 0.041819 -0.950225
vn -0.059154 0.981507 -0.182057
vn 0.000000 0.981507 0.191426
vn -0.000000 0.041819 0.999125
vn -0.000000 -0.041819 0.999125
vn 0.059154 -0.981507 0.182057
vn -0.000000 -0.981507 -0.191426
vn -0.308747 -0.041819 -0.950225
vn -0.543214 0.055723 -0.837743
vn -0.112517 0.981507 -0.154867
vn -0.059154 0.981507 0.182057
vn -0.308747 0.041819 0.950225
vn -0.308747 -0.041819 0.950225
vn -0.000000 -0.981507 0.191426
vn -0.059154 -0.981507 -0.182056
vn -0.538042 -0.057312 -0.840967
vn -0.801426 0.264498 -0.536430
vn -0.154867 0.981507 -0.112517
vn -0.112517 0.981507 0.154867
vn -0.543214 0.055723 0.837743
vn -0.538042 -0.057312 0.840967
vn -0.059154 -0.981507 0.182057
vn -0.112517 -0.981507 -0.154867
vn -0.811093 -0.224532 -0.540106
vn -0.928685 0.215622 -0.301748
vn -0.182057 0.981507 -0.059154
vn -0.154867 0.981507 0.112517
vn -0.801426 0.264498 0.536430
vn -0.112517 -0.981507 0.154866
vn -0.154867 -0.981507 -0.112517
vn -0.935529 -0.180170 -0.303848
vn -0.976477 0.215622 0.000000
vn -0.191426 0.981507 0.000000
vn -0.182057 0.981507 0.059154
vn -0.928685 0.215622 0.301748
vn -0.935529 -0.180170 0.303848
vn -0.811093 -0.224532 0.540106
vn -0.154867 -0.981507 0.112517
vn -0.182056 -0.981507 -0.059154
vn -0.983660 -0.180039 -0.000000
vn -0.182057 -0.981507 0.059154
vn -0.191426 -0.981507 -0.000000
s 1
g Spear group27
usemtl initialShadingGroup
f 15/21/25 16/22/26 9/15/27 10/16/28
f 17/23/29 18/24/30 14/20/31 13/19/32
f 13/19/32 14/20/31 16/22/26 15/21/25
f 11/17/33 18/24/30 17/23/29 12/18/34
f 19/25/35 20/26/36 21/27/37 22/28/38
f 23/29/39 24/30/40 19/31/35 22/32/38
f 20/26/36 19/25/35 25/33/41 26/34/42
f 21/27/37 20/26/36 27/35/43
f 28/36/44 29/37/45 22/28/38 21/27/37
f 30/38/46 23/29/39 22/32/38 29/39/45
f 31/177/47 24/41/40 23/42/39 32/178/48
f 24/30/40 33/44/49 25/45/41 19/31/35
f 20/26/36 26/34/42 27/35/43
f 26/34/42 25/33/41 34/46/50 35/47/51
f 28/36/44 21/27/37 27/35/43
f 36/48/52 37/49/53 29/37/45 28/36/44
f 38/50/54 30/38/46 29/39/45 37/51/53
f 30/52/46 39/176/55 32/178/48 23/42/39
f 31/40/47 32/43/48 40/54/56
f 41/175/57 33/56/49 24/41/40 31/177/47
f 33/44/49 42/57/58 34/58/50 25/45/41
f 26/34/42 35/47/51 27/35/43
f 35/47/51 34/46/50 43/59/59 44/60/60
f 36/48/52 28/36/44 27/35/43
f 45/61/61 46/62/62 37/49/53 36/48/52
f 47/63/63 38/50/54 37/51/53 46/64/62
f 39/176/55 30/52/46 38/65/54 48/174/64
f 32/43/48 39/53/55 40/54/56
f 41/55/57 31/40/47 40/54/56
f 49/173/65 42/68/58 33/56/49 41/175/57
f 42/69/58 50/70/66 43/71/59 34/72/50
f 35/47/51 44/60/60 27/35/43
f 44/60/60 43/59/59 51/73/67 52/74/68
f 45/61/61 36/48/52 27/35/43
f 53/75/69 54/76/70 46/62/62 45/61/61
f 55/77/71 47/63/63 46/64/62 54/78/70
f 48/174/64 38/65/54 47/79/63 56/172/72
f 39/53/55 48/66/64 40/54/56
f 49/67/65 41/55/57 40/54/56
f 57/171/73 50/82/66 42/68/58 49/173/65
f 50/70/66 58/83/74 51/84/67 43/71/59
f 44/60/60 52/74/68 27/35/43
f 52/74/68 51/73/67 59/85/75 60/86/76
f 53/75/69 45/61/61 27/35/43
f 61/87/77 62/88/78 54/76/70 53/75/69
f 63/89/79 55/77/71 54/78/70 62/90/78
f 56/172/72 47/79/63 55/91/71 64/170/80
f 48/66/64 56/80/72 40/54/56
f 57/81/73 49/67/65 40/54/56
f 65/169/81 58/94/74 50/82/66 57/171/73
f 58/83/74 66/95/82 59/96/75 51/84/67
f 52/74/68 60/86/76 27/35/43
f 60/86/76 59/85/75 67/97/83 68/98/84
f 61/87/77 53/75/69 27/35/43
f 69/99/85 70/100/86 62/88/78 61/87/77
f 71/101/87 63/89/79 62/90/78 70/102/86
f 64/170/80 55/91/71 63/103/79 72/168/88
f 56/80/72 64/92/80 40/54/56
f 65/93/81 57/81/73 40/54/56
f 73/167/89 66/106/82 58/94/74 65/169/81
f 66/95/82 74/107/90 67/108/83 59/96/75
f 60/86/76 68/98/84 27/35/43
f 68/98/84 67/97/83 75/109/91 76/110/92
f 69/99/85 61/87/77 27/35/43
f 77/111/93 78/112/94 70/100/86 69/99/85
f 79/113/95 71/101/87 70/102/86 78/114/94
f 72/168/88 63/103/79 71/115/87 80/166/96
f 64/92/80 72/104/88 40/54/56
f 73/105/89 65/93/81 40/54/56
f 81/165/97 74/118/90 66/106/82 73/167/89
f 74/107/90 82/119/98 11/120/33
f 68/98/84 76/110/92 27/35/43
f 76/110/92 75/109/91 83/123/99 84/124/100
f 77/111/93 69/99/85 27/35/43
f 85/125/101 86/126/102 78/112/94 77/111/93
f 10/129/28 78/114/94 86/128/102
f 80/166/96 71/115/87 79/131/95 88/164/103
f 72/104/88 80/116/96 40/54/56
f 81/117/97 73/105/89 40/54/56
f 89/163/104 82/134/98 74/118/90 81/165/97
f 82/119/98 90/135/105 18/136/30 11/120/33
f 17/137/29 83/138/99 75/122/91 12/121/34
f 76/110/92 84/124/100 27/35/43
f 84/124/100 83/123/99 91/139/106 92/140/107
f 85/125/101 77/111/93 27/35/43
f 93/141/108 94/142/109 86/126/102 85/125/101
f 95/143/110 87/127/111 9/130/27 16/144/26
f 88/164/103 79/131/95 87/145/111 96/162/112
f 10/129/28 86/128/102 94/147/109 15/148/25
f 80/116/96 88/132/103 40/54/56
f 89/133/104 81/117/97 40/54/56
f 97/161/113 90/150/105 82/134/98 89/163/104
f 90/135/105 98/151/114 14/152/31 18/136/30
f 13/153/32 91/154/106 83/138/99 17/137/29
f 84/124/100 92/140/107 27/35/43
f 92/140/107 91/139/106 94/142/109 93/141/108
f 93/141/108 85/125/101 27/35/43
f 98/151/114 95/143/110 16/144/26 14/152/31
f 96/162/112 87/145/111 95/155/110 99/160/115
f 88/132/103 96/146/112 40/54/56
f 15/148/25 94/147/109 91/154/106 13/153/32
f 97/149/113 89/133/104 40/54/56
f 100/159/116 98/158/114 90/150/105 97/161/113
f 92/140/107 93/141/108 27/35/43
f 99/160/115 95/155/110 98/158/114 100/159/116
f 96/146/112 99/156/115 40/54/56
f 100/157/116 97/149/113 40/54/56
f 99/156/115 100/157/116 40/54/56
f 9/130/27 79/113/95 78/114/94 10/129/28
f 87/127/111 79/113/95 9/130/27
f 74/107/90 11/120/33 12/121/34 67/108/83
f 67/108/83 12/121/34 75/122/91
g default
v -0.433761 0.456084 0.140938
v -0.433761 -0.456084 0.140938
v -0.433761 0.456084 -0.140938
v -0.433761 -0.456084 -0.140938
v 0.433762 0.456084 -0.140938
v 0.433761 -0.456084 -0.140938
v 0.000000 0.456084 -0.456084
v 0.433761 0.456084 0.140938
v 0.433762 -0.456084 0.140938
v 0.268079 0.456084 -0.368980
v -0.000000 -0.456084 -0.456084
v 0.268079 -0.456084 -0.368979
v 0.268079 0.456084 0.368979
v 0.268079 -0.456084 0.368980
v -0.000000 0.456084 0.456084
v 0.000000 -0.456084 0.456084
v -0.268079 0.456084 -0.368979
v -0.268079 -0.456084 -0.368979
v -0.268079 0.456084 0.368979
v -0.268079 -0.456084 0.368979
vt 0.203006 0.407990
vt 0.008472 0.407990
vt 0.203006 0.474627
vt 0.008472 0.474627
vt 0.152327 0.720820
vt 0.008472 0.073667
vt 0.203006 0.073667
vt 0.173907 0.827384
vt 0.083185 0.721552
vt 0.008472 0.141658
vt 0.203006 0.141659
vt 0.083185 0.721552
vt 0.208751 0.761520
vt 0.152327 0.720820
vt 0.062837 0.827273
vt 0.008472 0.005929
vt 0.203006 0.005929
vt 0.028269 0.762406
vt 0.008472 0.209313
vt 0.203006 0.209313
vt 0.028269 0.762406
vt 0.008472 0.670555
vt 0.203006 0.670555
vt 0.208751 0.761520
vt 0.008472 0.604553
vt 0.203006 0.604553
vt 0.007504 0.827414
vt 0.008472 0.277010
vt 0.203006 0.277010
vt 0.207572 0.892856
vt 0.229643 0.827635
vt 0.008472 0.538154
vt 0.203006 0.538154
vt 0.028633 0.892275
vt 0.008472 0.341130
vt 0.203006 0.341130
vt 0.028633 0.892275
vt 0.152030 0.932513
vt 0.152030 0.932513
vt 0.207572 0.892856
vt 0.083786 0.932353
vt 0.083786 0.932353
vn -0.912759 0.280918 0.296573
vn -0.912759 -0.280918 0.296573
vn -0.551018 -0.348124 0.758412
vn -0.551018 0.348124 0.758412
vn -0.935263 -0.181485 -0.303885
vn -0.935263 0.181485 -0.303885
vn 0.935263 0.181485 -0.303886
vn -0.000000 0.242536 -0.970143
vn 0.912759 0.280919 0.296573
vn 0.935263 -0.181485 -0.303886
vn 0.912759 -0.280918 0.296574
vn 0.586078 0.076171 -0.806667
vn -0.000000 -0.242536 -0.970143
vn 0.586077 -0.076171 -0.806667
vn 0.551018 0.348124 0.758412
vn 0.551018 -0.348124 0.758412
vn -0.000000 0.371391 0.928477
vn -0.000000 -0.371391 0.928477
vn -0.586078 -0.076171 -0.806667
vn -0.586078 0.076171 -0.806667
s 1
g _coll group30
usemtl initialShadingGroup
f 101/179/117 102/180/118 120/213/119 119/214/120
f 104/182/121 102/180/118 101/179/117 103/181/122
f 105/183/123 107/186/124 108/187/125
f 106/184/126 105/185/123 108/189/125 109/188/127
f 107/186/124 105/183/123 110/191/128
f 111/193/129 106/190/126 109/192/127
f 105/185/123 106/184/126 112/194/130 110/195/128
f 108/187/125 107/186/124 113/196/131
f 109/188/127 108/189/125 113/198/131 114/197/132
f 106/190/126 111/193/129 112/199/130
f 111/193/129 109/192/127 114/202/132
f 110/201/128 112/200/130 111/203/129 107/204/124
f 113/196/131 107/186/124 115/205/133
f 114/197/132 113/198/131 115/207/133 116/206/134
f 111/193/129 114/202/132 116/209/134
f 107/204/124 111/203/129 118/210/135 117/211/136
f 115/205/133 107/186/124 119/212/120
f 116/206/134 115/207/133 119/214/120 120/213/119
f 107/186/124 117/208/136 103/216/122
f 111/193/129 116/209/134 120/218/119
f 101/219/117 119/212/120 107/186/124
f 104/220/121 118/215/135 111/193/129
f 107/186/124 103/216/122 101/219/117
f 111/193/129 120/218/119 102/217/118
f 104/220/121 111/193/129 102/217/118
f 103/181/122 117/211/136 118/210/135 104/182/121
