# This file uses centimeters as units for non-parametric coordinates.

mtllib Plaster_Cast_Axe.mtl
g default
v -0.050000 -0.050000 0.050000
v 0.050000 -0.050000 0.050000
v -0.050000 0.050000 0.050000
v 0.050000 0.050000 0.050000
v -0.050000 0.050000 -0.050000
v 0.050000 0.050000 -0.050000
v -0.050000 -0.050000 -0.050000
v 0.050000 -0.050000 -0.050000
vt 0.375000 0.000000
vt 0.625000 0.000000
vt 0.375000 0.250000
vt 0.625000 0.250000
vt 0.375000 0.500000
vt 0.625000 0.500000
vt 0.375000 0.750000
vt 0.625000 0.750000
vt 0.375000 1.000000
vt 0.625000 1.000000
vt 0.875000 0.000000
vt 0.875000 0.250000
vt 0.125000 0.000000
vt 0.125000 0.250000
vn 0.000000 0.000000 1.000000
vn 0.000000 0.000000 1.000000
vn 0.000000 0.000000 1.000000
vn 0.000000 0.000000 1.000000
vn 0.000000 1.000000 0.000000
vn 0.000000 1.000000 0.000000
vn 0.000000 1.000000 0.000000
vn 0.000000 1.000000 0.000000
vn 0.000000 0.000000 -1.000000
vn 0.000000 0.000000 -1.000000
vn 0.000000 0.000000 -1.000000
vn 0.000000 0.000000 -1.000000
vn 0.000000 -1.000000 0.000000
vn 0.000000 -1.000000 0.000000
vn 0.000000 -1.000000 0.000000
vn 0.000000 -1.000000 0.000000
vn 1.000000 0.000000 0.000000
vn 1.000000 0.000000 0.000000
vn 1.000000 0.000000 0.000000
vn 1.000000 0.000000 0.000000
vn -1.000000 0.000000 0.000000
vn -1.000000 0.000000 0.000000
vn -1.000000 0.000000 0.000000
vn -1.000000 0.000000 0.000000
s off
g pivot
usemtl initialShadingGroup
f 1/1/1 2/2/2 4/4/3 3/3/4
f 3/3/5 4/4/6 6/6/7 5/5/8
f 5/5/9 6/6/10 8/8/11 7/7/12
f 7/7/13 8/8/14 2/10/15 1/9/16
f 2/2/17 8/11/18 6/12/19 4/4/20
f 7/13/21 1/1/22 3/3/23 5/14/24
g default
v -0.433761 0.456084 0.140938
v -0.433761 -0.456084 0.140938
v -0.433761 0.456084 -0.140938
v -0.433761 -0.456084 -0.140938
v 0.433762 0.456084 -0.140938
v 0.433761 -0.456084 -0.140938
v 0.000000 0.456084 -0.456084
v 0.433761 0.456084 0.140938
v 0.433762 -0.456084 0.140938
v 0.268079 0.456084 -0.368980
v -0.000000 -0.456084 -0.456084
v 0.268079 -0.456084 -0.368979
v 0.268079 0.456084 0.368979
v 0.268079 -0.456084 0.368980
v -0.000000 0.456084 0.456084
v 0.000000 -0.456084 0.456084
v -0.268079 0.456084 -0.368979
v -0.268079 -0.456084 -0.368979
v -0.268079 0.456084 0.368979
v -0.268079 -0.456084 0.368979
vt 0.203006 0.407990
vt 0.008472 0.407990
vt 0.203006 0.474627
vt 0.008472 0.474627
vt 0.152327 0.720820
vt 0.008472 0.073667
vt 0.203006 0.073667
vt 0.173907 0.827384
vt 0.083185 0.721552
vt 0.008472 0.141658
vt 0.203006 0.141659
vt 0.083185 0.721552
vt 0.208751 0.761520
vt 0.152327 0.720820
vt 0.062837 0.827273
vt 0.008472 0.005929
vt 0.203006 0.005929
vt 0.028269 0.762406
vt 0.008472 0.209313
vt 0.203006 0.209313
vt 0.028269 0.762406
vt 0.008472 0.670555
vt 0.203006 0.670555
vt 0.208751 0.761520
vt 0.008472 0.604553
vt 0.203006 0.604553
vt 0.007504 0.827414
vt 0.008472 0.277010
vt 0.203006 0.277010
vt 0.207572 0.892856
vt 0.229643 0.827635
vt 0.008472 0.538154
vt 0.203006 0.538154
vt 0.028633 0.892275
vt 0.008472 0.341130
vt 0.203006 0.341130
vt 0.028633 0.892275
vt 0.152030 0.932513
vt 0.152030 0.932513
vt 0.207572 0.892856
vt 0.083786 0.932353
vt 0.083786 0.932353
vn -0.912759 0.280918 0.296573
vn -0.912759 -0.280918 0.296573
vn -0.551018 -0.348124 0.758412
vn -0.551018 0.348124 0.758412
vn -0.935263 -0.181485 -0.303885
vn -0.935263 0.181485 -0.303885
vn 0.935263 0.181485 -0.303886
vn -0.000000 0.242536 -0.970143
vn 0.912759 0.280919 0.296573
vn 0.935263 -0.181485 -0.303886
vn 0.912759 -0.280918 0.296574
vn 0.586078 0.076171 -0.806667
vn -0.000000 -0.242536 -0.970143
vn 0.586077 -0.076171 -0.806667
vn 0.551018 0.348124 0.758412
vn 0.551018 -0.348124 0.758412
vn -0.000000 0.371391 0.928477
vn -0.000000 -0.371391 0.928477
vn -0.586078 -0.076171 -0.806667
vn -0.586078 0.076171 -0.806667
s 1
g _coll group30
usemtl initialShadingGroup
f 9/15/25 10/16/26 28/49/27 27/50/28
f 12/18/29 10/16/26 9/15/25 11/17/30
f 13/19/31 15/22/32 16/23/33
f 14/20/34 13/21/31 16/25/33 17/24/35
f 15/22/32 13/19/31 18/27/36
f 19/29/37 14/26/34 17/28/35
f 13/21/31 14/20/34 20/30/38 18/31/36
f 16/23/33 15/22/32 21/32/39
f 17/24/35 16/25/33 21/34/39 22/33/40
f 14/26/34 19/29/37 20/35/38
f 19/29/37 17/28/35 22/38/40
f 18/37/36 20/36/38 19/39/37 15/40/32
f 21/32/39 15/22/32 23/41/41
f 22/33/40 21/34/39 23/43/41 24/42/42
f 19/29/37 22/38/40 24/45/42
f 15/40/32 19/39/37 26/46/43 25/47/44
f 23/41/41 15/22/32 27/48/28
f 24/42/42 23/43/41 27/50/28 28/49/27
f 15/22/32 25/44/44 11/52/30
f 19/29/37 24/45/42 28/54/27
f 9/55/25 27/48/28 15/22/32
f 12/56/29 26/51/43 19/29/37
f 15/22/32 11/52/30 9/55/25
f 19/29/37 28/54/27 10/53/26
f 12/56/29 19/29/37 10/53/26
f 11/17/30 25/47/44 26/46/43 12/18/29
g default
v -0.368979 -0.253813 0.268079
v -0.368979 0.287151 0.268079
v -0.368979 -0.253813 -0.268079
v -0.368979 0.287151 -0.268079
v -0.456084 0.287151 0.000000
v -0.456084 -0.253215 0.000000
v -0.433761 0.287151 0.140938
v -0.433761 -0.253215 0.140938
v -0.433761 0.287151 -0.140938
v -0.433761 -0.253215 -0.140938
v 0.433762 0.415681 -0.140938
v 0.394857 0.456084 -0.128297
v 0.415177 0.456084 -0.000000
v 0.456084 0.415681 0.000000
v 0.456084 -0.415681 0.000000
v 0.433761 -0.415681 -0.140938
v 0.368980 0.415681 -0.268079
v 0.335885 0.456084 -0.244035
v 0.000000 0.456084 0.000000
v 0.394857 0.456084 0.128297
v 0.433761 0.415681 0.140938
v 0.433762 -0.415681 0.140938
v 0.394857 -0.456084 -0.128297
v 0.415177 -0.456084 0.000000
v 0.368979 -0.415681 -0.268079
v 0.268079 0.415681 -0.368980
v 0.244035 0.456084 -0.335885
v 0.335885 0.456084 0.244035
v 0.368979 0.415681 0.268079
v 0.368980 -0.415681 0.268079
v 0.394857 -0.456084 0.128297
v 0.000000 -0.456084 0.000000
v 0.335885 -0.456084 -0.244035
v 0.268079 -0.415681 -0.368979
v 0.140938 0.415681 -0.433761
v 0.128297 0.456084 -0.394857
v 0.244035 0.456084 0.335885
v 0.268079 0.415681 0.368979
v 0.268079 -0.415681 0.368980
v 0.335885 -0.456084 0.244035
v 0.244035 -0.456084 -0.335885
v 0.140938 -0.415681 -0.433761
v 0.000000 0.415681 -0.456084
v 0.000000 0.456084 -0.415177
v 0.128297 0.456084 0.394857
v 0.140938 0.415681 0.433761
v 0.140938 -0.415681 0.433761
v 0.244035 -0.456084 0.335885
v 0.128297 -0.456084 -0.394857
v -0.000000 -0.415681 -0.456084
v -0.140938 0.415681 -0.433761
v -0.128297 0.456084 -0.394857
v -0.000000 0.456084 0.415177
v -0.000000 0.415681 0.456084
v 0.000000 -0.415681 0.456084
v 0.128297 -0.456084 0.394857
v -0.000000 -0.456084 -0.415177
v -0.140938 -0.415681 -0.433761
v -0.268079 0.415681 -0.368979
v -0.244035 0.456084 -0.335885
v -0.128297 0.456084 0.394857
v -0.140938 0.415681 0.433761
v -0.140938 -0.415681 0.433761
v -0.000000 -0.456084 0.415177
v -0.128297 -0.456084 -0.394857
v -0.268079 -0.415681 -0.368979
v -0.368979 0.415681 -0.268079
v -0.335885 0.456084 -0.244035
v -0.244035 0.456084 0.335885
v -0.268079 0.415681 0.368979
v -0.268079 -0.415681 0.368979
v -0.128297 -0.456084 0.394857
v -0.244035 -0.456084 -0.335885
v -0.368979 -0.415681 -0.268079
v -0.433761 0.415681 -0.140938
v -0.394857 0.456084 -0.128297
v -0.335885 0.456084 0.244035
v -0.368979 0.415681 0.268079
v -0.368979 -0.415681 0.268079
v -0.244035 -0.456084 0.335885
v -0.335885 -0.456084 -0.244035
v -0.433761 -0.415681 -0.140938
v -0.456084 0.415681 0.000000
v -0.415177 0.456084 0.000000
v -0.394857 0.456084 0.128297
v -0.433761 0.415681 0.140938
v -0.433761 -0.415681 0.140938
v -0.335885 -0.456084 0.244035
v -0.394857 -0.456084 -0.128297
v -0.456084 -0.415681 0.000000
v -0.394857 -0.456084 0.128297
v -0.415177 -0.456084 0.000000
vt 0.421628 0.742904
vt 0.421628 0.918326
vt 0.246207 0.742904
vt 0.246207 0.918326
vt 0.333917 0.918326
vt 0.333917 0.742904
vt 0.377773 0.918326
vt 0.377773 0.742904
vt 0.290062 0.918326
vt 0.290062 0.742904
vt 0.152332 0.720820
vt 0.148163 0.734033
vt 0.117814 0.729486
vt 0.117673 0.715661
vt 0.008472 0.107694
vt 0.008472 0.073667
vt 0.203006 0.073667
vt 0.203006 0.107694
vt 0.183791 0.736553
vt 0.175660 0.747872
vt 0.118176 0.827133
vt 0.087626 0.734580
vt 0.083190 0.721552
vt 0.008472 0.141658
vt 0.203006 0.141659
vt 0.316391 0.163998
vt 0.083185 0.721552
vt 0.117669 0.715661
vt 0.346579 0.158905
vt 0.008472 0.039794
vt 0.203006 0.039794
vt 0.208756 0.761520
vt 0.197437 0.769648
vt 0.060629 0.748692
vt 0.052453 0.737731
vt 0.008472 0.175526
vt 0.203006 0.175526
vt 0.152327 0.720820
vt 0.376928 0.163451
vt 0.346941 0.256551
vt 0.289394 0.178111
vt 0.052448 0.737731
vt 0.008472 0.005929
vt 0.203006 0.005929
vt 0.224487 0.792971
vt 0.211275 0.797145
vt 0.039363 0.770334
vt 0.028273 0.762406
vt 0.008472 0.209313
vt 0.203006 0.209313
vt 0.183786 0.736553
vt 0.404425 0.177290
vt 0.268128 0.199753
vt 0.028269 0.762406
vt 0.008472 0.670555
vt 0.008472 0.637617
vt 0.203006 0.637617
vt 0.203006 0.670555
vt 0.229648 0.827635
vt 0.215822 0.827494
vt 0.025773 0.797425
vt 0.012796 0.793274
vt 0.008472 0.243120
vt 0.203006 0.243121
vt 0.208751 0.761520
vt 0.426202 0.199066
vt 0.254538 0.226843
vt 0.012791 0.793274
vt 0.008472 0.604553
vt 0.203006 0.604553
vt 0.223756 0.862118
vt 0.210729 0.857682
vt 0.021139 0.827374
vt 0.007509 0.827414
vt 0.008472 0.277010
vt 0.203006 0.277010
vt 0.224482 0.792971
vt 0.440040 0.226564
vt 0.249904 0.256792
vt 0.007504 0.827414
vt 0.008472 0.571394
vt 0.203006 0.571394
vt 0.207577 0.892856
vt 0.196616 0.884680
vt 0.025921 0.857291
vt 0.012956 0.861518
vt 0.008472 0.310892
vt 0.203006 0.310893
vt 0.229643 0.827635
vt 0.444587 0.256913
vt 0.254686 0.286710
vt 0.012951 0.861518
vt 0.008472 0.538154
vt 0.203006 0.538154
vt 0.182902 0.917035
vt 0.174974 0.905946
vt 0.039661 0.884238
vt 0.028638 0.892275
vt 0.008472 0.341130
vt 0.203006 0.341130
vt 0.223752 0.862118
vt 0.439494 0.287101
vt 0.268426 0.313657
vt 0.028633 0.892275
vt 0.008472 0.504865
vt 0.045539 0.504865
vt 0.172941 0.504865
vt 0.203006 0.504865
vt 0.152035 0.932513
vt 0.147884 0.919536
vt 0.061070 0.905648
vt 0.053034 0.916670
vt 0.008472 0.374541
vt 0.203006 0.374541
vt 0.172941 0.374541
vt 0.045539 0.374541
vt 0.207572 0.892856
vt 0.425381 0.314098
vt 0.289835 0.335066
vt 0.053029 0.916670
vt 0.008472 0.474627
vt 0.045539 0.474627
vt 0.172941 0.474627
vt 0.203006 0.474627
vt 0.117895 0.937800
vt 0.117935 0.924170
vt 0.088017 0.919388
vt 0.083791 0.932353
vt 0.008472 0.407990
vt 0.045539 0.407990
vt 0.182897 0.917035
vt 0.403739 0.335364
vt 0.203006 0.407990
vt 0.172941 0.407990
vt 0.316782 0.348806
vt 0.083786 0.932353
vt 0.008472 0.441315
vt 0.045539 0.441315
vt 0.172941 0.441315
vt 0.203006 0.441315
vt 0.152030 0.932513
vt 0.376649 0.348954
vt 0.346700 0.353589
vt 0.117890 0.937800
vt 0.117930 0.924170
vt 0.147879 0.919536
vt 0.088012 0.919388
vt 0.174969 0.905946
vt 0.061065 0.905648
vt 0.196611 0.884680
vt 0.039656 0.884238
vt 0.210724 0.857682
vt 0.025916 0.857291
vt 0.215817 0.827494
vt 0.021134 0.827374
vt 0.211270 0.797145
vt 0.025768 0.797425
vt 0.197432 0.769648
vt 0.039358 0.770334
vt 0.175655 0.747872
vt 0.060624 0.748692
vt 0.148158 0.734033
vt 0.087621 0.734580
vt 0.117809 0.729486
vn -0.951046 0.000000 0.309051
vn -0.951021 0.000000 0.309125
vn -0.788218 0.000000 0.615396
vn -0.788323 0.000000 0.615262
vn -0.951046 -0.000000 -0.309051
vn -0.951021 -0.000000 -0.309125
vn -1.000000 0.000000 0.000000
vn -1.000000 0.000000 0.000000
vn -0.788218 -0.000000 -0.615396
vn -0.788323 -0.000000 -0.615262
vn 0.950225 0.041819 -0.308746
vn 0.182057 0.981507 -0.059154
vn 0.191426 0.981507 -0.000000
vn 0.999125 0.041819 0.000000
vn 0.999125 -0.041819 -0.000000
vn 0.950225 -0.041819 -0.308746
vn 0.808309 0.041819 -0.587271
vn 0.154867 0.981507 -0.112517
vn 0.000000 1.000000 -0.000000
vn 0.182057 0.981507 0.059154
vn 0.950225 0.041819 0.308746
vn 0.950225 -0.041819 0.308746
vn 0.182057 -0.981507 -0.059154
vn 0.191425 -0.981507 -0.000000
vn 0.808309 -0.041819 -0.587271
vn 0.587271 0.041819 -0.808309
vn 0.112517 0.981507 -0.154867
vn 0.154867 0.981507 0.112517
vn 0.808309 0.041819 0.587271
vn 0.808309 -0.041819 0.587271
vn 0.182056 -0.981507 0.059154
vn 0.000000 -1.000000 -0.000000
vn 0.154867 -0.981507 -0.112517
vn 0.587271 -0.041819 -0.808309
vn 0.308747 0.041819 -0.950225
vn 0.059154 0.981507 -0.182057
vn 0.112517 0.981507 0.154867
vn 0.587271 0.041819 0.808309
vn 0.587271 -0.041819 0.808309
vn 0.154867 -0.981507 0.112517
vn 0.112517 -0.981507 -0.154867
vn 0.308747 -0.041819 -0.950225
vn -0.000000 0.041819 -0.999125
vn -0.000000 0.981507 -0.191426
vn 0.059154 0.981507 0.182057
vn 0.308747 0.041819 0.950225
vn 0.308747 -0.041819 0.950225
vn 0.112517 -0.981507 0.154866
vn 0.059154 -0.981507 -0.182056
vn -0.000000 -0.041819 -0.999125
vn -0.308747 0.041819 -0.950225
vn -0.059154 0.981507 -0.182057
vn 0.000000 0.981507 0.191426
vn -0.000000 0.041819 0.999125
vn -0.000000 -0.041819 0.999125
vn 0.059154 -0.981507 0.182057
vn -0.000000 -0.981507 -0.191426
vn -0.308747 -0.041819 -0.950225
vn -0.543214 0.055723 -0.837743
vn -0.112517 0.981507 -0.154867
vn -0.059154 0.981507 0.182057
vn -0.308747 0.041819 0.950225
vn -0.308747 -0.041819 0.950225
vn -0.000000 -0.981507 0.191426
vn -0.059154 -0.981507 -0.182056
vn -0.538042 -0.057312 -0.840967
vn -0.801426 0.264498 -0.536430
vn -0.154867 0.981507 -0.112517
vn -0.112517 0.981507 0.154867
vn -0.543214 0.055723 0.837743
vn -0.538042 -0.057312 0.840967
vn -0.059154 -0.981507 0.182057
vn -0.112517 -0.981507 -0.154867
vn -0.811093 -0.224532 -0.540106
vn -0.928685 0.215622 -0.301748
vn -0.182057 0.981507 -0.059154
vn -0.154867 0.981507 0.112517
vn -0.801426 0.264498 0.536430
vn -0.112517 -0.981507 0.154866
vn -0.154867 -0.981507 -0.112517
vn -0.935529 -0.180170 -0.303848
vn -0.976477 0.215622 0.000000
vn -0.191426 0.981507 0.000000
vn -0.182057 0.981507 0.059154
vn -0.928685 0.215622 0.301748
vn -0.935529 -0.180170 0.303848
vn -0.811093 -0.224532 0.540106
vn -0.154867 -0.981507 0.112517
vn -0.182056 -0.981507 -0.059154
vn -0.983660 -0.180039 -0.000000
vn -0.182057 -0.981507 0.059154
vn -0.191426 -0.981507 -0.000000
s 1
g Axe pasted__group25 group26
usemtl initialShadingGroup
f 35/63/45 36/64/46 29/57/47 30/58/48
f 37/65/49 38/66/50 34/62/51 33/61/52
f 33/61/52 34/62/51 36/64/46 35/63/45
f 31/59/53 38/66/50 37/65/49 32/60/54
f 39/67/55 40/68/56 41/69/57 42/70/58
f 43/71/59 44/72/60 39/73/55 42/74/58
f 40/68/56 39/67/55 45/75/61 46/76/62
f 41/69/57 40/68/56 47/77/63
f 48/78/64 49/79/65 42/70/58 41/69/57
f 50/80/66 43/71/59 42/74/58 49/81/65
f 51/219/67 44/83/60 43/84/59 52/220/68
f 44/72/60 53/86/69 45/87/61 39/73/55
f 40/68/56 46/76/62 47/77/63
f 46/76/62 45/75/61 54/88/70 55/89/71
f 48/78/64 41/69/57 47/77/63
f 56/90/72 57/91/73 49/79/65 48/78/64
f 58/92/74 50/80/66 49/81/65 57/93/73
f 50/94/66 59/218/75 52/220/68 43/84/59
f 51/82/67 52/85/68 60/96/76
f 61/217/77 53/98/69 44/83/60 51/219/67
f 53/86/69 62/99/78 54/100/70 45/87/61
f 46/76/62 55/89/71 47/77/63
f 55/89/71 54/88/70 63/101/79 64/102/80
f 56/90/72 48/78/64 47/77/63
f 65/103/81 66/104/82 57/91/73 56/90/72
f 67/105/83 58/92/74 57/93/73 66/106/82
f 59/218/75 50/94/66 58/107/74 68/216/84
f 52/85/68 59/95/75 60/96/76
f 61/97/77 51/82/67 60/96/76
f 69/215/85 62/110/78 53/98/69 61/217/77
f 62/111/78 70/112/86 63/113/79 54/114/70
f 55/89/71 64/102/80 47/77/63
f 64/102/80 63/101/79 71/115/87 72/116/88
f 65/103/81 56/90/72 47/77/63
f 73/117/89 74/118/90 66/104/82 65/103/81
f 75/119/91 67/105/83 66/106/82 74/120/90
f 68/216/84 58/107/74 67/121/83 76/214/92
f 59/95/75 68/108/84 60/96/76
f 69/109/85 61/97/77 60/96/76
f 77/213/93 70/124/86 62/110/78 69/215/85
f 70/112/86 78/125/94 71/126/87 63/113/79
f 64/102/80 72/116/88 47/77/63
f 72/116/88 71/115/87 79/127/95 80/128/96
f 73/117/89 65/103/81 47/77/63
f 81/129/97 82/130/98 74/118/90 73/117/89
f 83/131/99 75/119/91 74/120/90 82/132/98
f 76/214/92 67/121/83 75/133/91 84/212/100
f 68/108/84 76/122/92 60/96/76
f 77/123/93 69/109/85 60/96/76
f 85/211/101 78/136/94 70/124/86 77/213/93
f 78/125/94 86/137/102 79/138/95 71/126/87
f 72/116/88 80/128/96 47/77/63
f 80/128/96 79/127/95 87/139/103 88/140/104
f 81/129/97 73/117/89 47/77/63
f 89/141/105 90/142/106 82/130/98 81/129/97
f 91/143/107 83/131/99 82/132/98 90/144/106
f 84/212/100 75/133/91 83/145/99 92/210/108
f 76/122/92 84/134/100 60/96/76
f 85/135/101 77/123/93 60/96/76
f 93/209/109 86/148/102 78/136/94 85/211/101
f 86/137/102 94/149/110 87/150/103 79/138/95
f 80/128/96 88/140/104 47/77/63
f 88/140/104 87/139/103 95/151/111 96/152/112
f 89/141/105 81/129/97 47/77/63
f 97/153/113 98/154/114 90/142/106 89/141/105
f 99/155/115 91/143/107 90/144/106 98/156/114
f 92/210/108 83/145/99 91/157/107 100/208/116
f 84/134/100 92/146/108 60/96/76
f 93/147/109 85/135/101 60/96/76
f 101/207/117 94/160/110 86/148/102 93/209/109
f 94/149/110 102/161/118 31/162/53
f 88/140/104 96/152/112 47/77/63
f 96/152/112 95/151/111 103/165/119 104/166/120
f 97/153/113 89/141/105 47/77/63
f 105/167/121 106/168/122 98/154/114 97/153/113
f 30/171/48 98/156/114 106/170/122
f 100/208/116 91/157/107 99/173/115 108/206/123
f 92/146/108 100/158/116 60/96/76
f 101/159/117 93/147/109 60/96/76
f 109/205/124 102/176/118 94/160/110 101/207/117
f 102/161/118 110/177/125 38/178/50 31/162/53
f 37/179/49 103/180/119 95/164/111 32/163/54
f 96/152/112 104/166/120 47/77/63
f 104/166/120 103/165/119 111/181/126 112/182/127
f 105/167/121 97/153/113 47/77/63
f 113/183/128 114/184/129 106/168/122 105/167/121
f 115/185/130 107/169/131 29/172/47 36/186/46
f 108/206/123 99/173/115 107/187/131 116/204/132
f 30/171/48 106/170/122 114/189/129 35/190/45
f 100/158/116 108/174/123 60/96/76
f 109/175/124 101/159/117 60/96/76
f 117/203/133 110/192/125 102/176/118 109/205/124
f 110/177/125 118/193/134 34/194/51 38/178/50
f 33/195/52 111/196/126 103/180/119 37/179/49
f 104/166/120 112/182/127 47/77/63
f 112/182/127 111/181/126 114/184/129 113/183/128
f 113/183/128 105/167/121 47/77/63
f 118/193/134 115/185/130 36/186/46 34/194/51
f 116/204/132 107/187/131 115/197/130 119/202/135
f 108/174/123 116/188/132 60/96/76
f 35/190/45 114/189/129 111/196/126 33/195/52
f 117/191/133 109/175/124 60/96/76
f 120/201/136 118/200/134 110/192/125 117/203/133
f 112/182/127 113/183/128 47/77/63
f 119/202/135 115/197/130 118/200/134 120/201/136
f 116/188/132 119/198/135 60/96/76
f 120/199/136 117/191/133 60/96/76
f 119/198/135 120/199/136 60/96/76
f 29/172/47 99/155/115 98/156/114 30/171/48
f 107/169/131 99/155/115 29/172/47
f 94/149/110 31/162/53 32/163/54 87/150/103
f 87/150/103 32/163/54 95/164/111
