# This file uses centimeters as units for non-parametric coordinates.

mtllib Plaster_Cast_Pick.mtl
g default
v -0.050000 -0.050000 0.050000
v 0.050000 -0.050000 0.050000
v -0.050000 0.050000 0.050000
v 0.050000 0.050000 0.050000
v -0.050000 0.050000 -0.050000
v 0.050000 0.050000 -0.050000
v -0.050000 -0.050000 -0.050000
v 0.050000 -0.050000 -0.050000
vt 0.375000 0.000000
vt 0.625000 0.000000
vt 0.375000 0.250000
vt 0.625000 0.250000
vt 0.375000 0.500000
vt 0.625000 0.500000
vt 0.375000 0.750000
vt 0.625000 0.750000
vt 0.375000 1.000000
vt 0.625000 1.000000
vt 0.875000 0.000000
vt 0.875000 0.250000
vt 0.125000 0.000000
vt 0.125000 0.250000
vn 0.000000 0.000000 1.000000
vn 0.000000 0.000000 1.000000
vn 0.000000 0.000000 1.000000
vn 0.000000 0.000000 1.000000
vn 0.000000 1.000000 0.000000
vn 0.000000 1.000000 0.000000
vn 0.000000 1.000000 0.000000
vn 0.000000 1.000000 0.000000
vn 0.000000 0.000000 -1.000000
vn 0.000000 0.000000 -1.000000
vn 0.000000 0.000000 -1.000000
vn 0.000000 0.000000 -1.000000
vn 0.000000 -1.000000 0.000000
vn 0.000000 -1.000000 0.000000
vn 0.000000 -1.000000 0.000000
vn 0.000000 -1.000000 0.000000
vn 1.000000 0.000000 0.000000
vn 1.000000 0.000000 0.000000
vn 1.000000 0.000000 0.000000
vn 1.000000 0.000000 0.000000
vn -1.000000 0.000000 0.000000
vn -1.000000 0.000000 0.000000
vn -1.000000 0.000000 0.000000
vn -1.000000 0.000000 0.000000
s off
g pivot
usemtl initialShadingGroup
f 1/1/1 2/2/2 4/4/3 3/3/4
f 3/3/5 4/4/6 6/6/7 5/5/8
f 5/5/9 6/6/10 8/8/11 7/7/12
f 7/7/13 8/8/14 2/10/15 1/9/16
f 2/2/17 8/11/18 6/12/19 4/4/20
f 7/13/21 1/1/22 3/3/23 5/14/24
g default
v -0.253188 0.182899 0.253188
v 0.253188 0.182899 0.253188
v -0.253188 0.182899 -0.253188
v 0.253188 0.182899 -0.253188
v -0.671265 -0.182899 -0.361427
v 0.671265 -0.182899 -0.361427
v 0.671265 -0.182899 0.361427
v -0.671265 -0.182899 0.361427
v -0.712661 -0.141503 0.361427
v -0.712661 -0.141503 -0.361427
v -0.671265 -0.141503 -0.402823
v 0.671265 -0.141503 -0.402823
v 0.712661 -0.141503 0.361427
v 0.712661 -0.141503 -0.361427
v -0.671265 -0.141503 0.402823
v 0.671265 -0.141503 0.402823
v -0.712661 0.141503 0.361427
v -0.712661 0.141503 -0.361427
v -0.671265 0.141503 -0.402823
v 0.671265 0.141503 -0.402823
v 0.712661 0.141503 -0.361427
v 0.712661 0.141503 0.361427
v 0.671265 0.141503 0.402823
v -0.671265 0.141503 0.402823
v -0.671265 0.182899 0.361427
v -0.671265 0.182899 -0.361427
v 0.671265 0.182899 -0.361427
v 0.671265 0.182899 0.361427
vt 0.609603 0.558154
vt 0.609603 0.733576
vt 0.434181 0.558155
vt 0.434181 0.733576
vt 0.629510 0.324069
vt 0.629510 0.006941
vt 0.799973 0.006941
vt 0.799973 0.324069
vt 1.903611 0.023090
vt 1.903611 0.193475
vt 1.917272 0.193475
vt 1.917272 0.023090
vt 1.894363 0.324069
vt 1.894363 0.006941
vt 1.880558 0.006941
vt 1.880558 0.324069
vt 0.982758 0.023090
vt 0.996931 0.023090
vt 0.996931 0.193475
vt 0.982758 0.193475
vt 0.813786 0.324069
vt 0.813786 0.006941
vt 1.917272 0.009436
vt 1.917272 0.206524
vt 1.982758 0.193475
vt 1.982758 0.023090
vt 0.982758 0.206524
vt 1.813786 0.006941
vt 1.813786 0.324069
vt 0.917272 0.193475
vt 0.917272 0.023090
vt 0.982758 0.009436
vt 0.880558 0.006941
vt 0.880558 0.324069
vt 1.982758 0.009436
vt 1.982758 0.206524
vt 1.996931 0.193475
vt 1.996931 0.023090
vt 0.917272 0.206524
vt 1.799973 0.006941
vt 1.799973 0.324069
vt 0.903611 0.023090
vt 0.903611 0.193475
vt 0.917272 0.009436
vt 0.894363 0.324069
vt 0.894363 0.006941
vt 1.774448 0.105698
vt 1.629510 0.006941
vt 1.655035 0.105698
vt 1.774448 0.225312
vt 1.655035 0.225312
vt 1.629510 0.324069
vn 0.000000 1.000000 0.000000
vn 0.000000 1.000000 0.000000
vn 0.000000 1.000000 0.000000
vn 0.000000 1.000000 0.000000
vn -0.028810 -0.998176 -0.053046
vn 0.028810 -0.998176 -0.053046
vn 0.028810 -0.998176 0.053046
vn -0.028810 -0.998176 0.053046
vn -0.991242 -0.122486 0.049351
vn -0.991242 -0.122486 -0.049351
vn -0.027214 -0.124361 -0.991864
vn 0.027214 -0.124361 -0.991864
vn 0.991242 -0.122486 0.049351
vn 0.991242 -0.122486 -0.049351
vn -0.027214 -0.124361 0.991864
vn 0.027214 -0.124361 0.991864
vn -0.991242 0.122486 0.049351
vn -0.991242 0.122486 -0.049351
vn -0.027214 0.124361 -0.991864
vn 0.027214 0.124361 -0.991864
vn 0.991242 0.122486 -0.049351
vn 0.991242 0.122486 0.049351
vn 0.027214 0.124361 0.991864
vn -0.027214 0.124361 0.991864
vn -0.094094 0.980373 0.173247
vn -0.094094 0.980373 -0.173247
vn 0.094094 0.980373 -0.173247
vn 0.094094 0.980373 0.173247
vn 0.000000 1.000000 0.000000
vn 0.000000 1.000000 0.000000
vn 0.000000 1.000000 0.000000
vn 0.000000 1.000000 0.000000
s 1
g pasted__pasted__pPlane1 group31
usemtl initialShadingGroup
f 9/15/25 10/16/26 11/17/27
f 11/17/27 10/16/26 12/18/28
s 2
f 13/19/29 14/20/30 15/21/31 16/22/32
f 13/23/29 16/24/32 17/25/33 18/26/34
f 14/27/30 13/28/29 19/29/35 20/30/36
f 21/31/37 15/32/31 14/33/30 22/34/38
f 23/35/39 16/22/32 15/21/31 24/36/40
f 18/26/34 19/37/35 13/23/29
f 17/25/33 16/24/32 23/38/39
f 25/39/41 26/40/42 18/26/34 17/25/33
f 22/34/38 14/33/30 20/41/36
f 27/42/43 28/43/44 20/30/36 19/29/35
f 22/34/38 29/44/45 30/45/46 21/31/37
f 15/32/31 21/31/37 24/46/40
f 24/36/40 31/47/47 32/48/48 23/35/39
f 27/49/43 19/37/35 18/26/34 26/40/42
f 23/38/39 32/50/48 25/39/41 17/25/33
f 26/40/42 25/39/41 33/51/49 34/52/50
f 28/53/44 29/44/45 22/34/38 20/41/36
f 28/43/44 27/42/43 34/54/50 35/55/51
f 36/56/52 30/45/46 29/44/45 35/57/51
f 24/46/40 21/31/37 30/45/46 31/58/47
f 33/59/49 32/48/48 31/47/47 36/60/52
f 34/52/50 27/49/43 26/40/42
f 25/39/41 32/50/48 33/51/49
f 11/61/53 34/54/50 33/62/49 9/63/54
f 29/44/45 28/53/44 35/57/51
f 34/54/50 11/61/53 12/64/55 35/55/51
f 10/65/56 36/66/52 35/55/51 12/64/55
f 30/45/46 36/56/52 31/58/47
f 36/66/52 10/65/56 9/63/54 33/62/49
g default
v -0.712661 0.182899 0.402823
v 0.712661 0.182899 0.402823
v -0.712661 0.182899 -0.402823
v 0.712661 0.182899 -0.402823
v -0.712661 -0.182899 -0.402823
v 0.712661 -0.182899 -0.402823
v 0.712661 -0.182899 0.402823
v -0.712661 -0.182899 0.402823
vt 0.609603 0.558154
vt 0.609603 0.733576
vt 0.434181 0.558155
vt 0.434181 0.733576
vt 0.629510 0.324069
vt 0.629510 0.006941
vt 0.806880 0.006941
vt 0.806880 0.324069
vt 0.910442 0.019676
vt 0.912718 0.197825
vt 0.887460 0.324069
vt 0.887460 0.006941
vt 0.987482 0.018539
vt 0.989844 0.196738
vt 0.987482 0.197825
vt 0.986301 0.019676
vt 0.790664 0.056320
vt 0.790664 0.274690
vt 0.913857 0.196738
vt 0.913857 0.019676
vt 0.887460 0.006941
vt 0.887460 0.324069
vn 0.000000 1.000000 0.000000
vn 0.000000 1.000000 0.000000
vn 0.000000 1.000000 0.000000
vn 0.000000 1.000000 0.000000
vn 0.000000 -1.000000 0.000000
vn 0.000000 -1.000000 0.000000
vn 0.000000 -1.000000 0.000000
vn 0.000000 -1.000000 0.000000
vn -1.000000 0.000000 0.000000
vn -1.000000 0.000000 0.000000
vn -1.000000 0.000000 0.000000
vn -1.000000 0.000000 0.000000
vn 0.000000 0.000000 -1.000000
vn 0.000000 0.000000 -1.000000
vn 0.000000 0.000000 -1.000000
vn 0.000000 0.000000 -1.000000
vn 1.000000 0.000000 0.000000
vn 1.000000 0.000000 0.000000
vn 1.000000 0.000000 0.000000
vn 1.000000 0.000000 0.000000
vn 0.000000 0.000000 1.000000
vn 0.000000 0.000000 1.000000
vn 0.000000 0.000000 1.000000
vn 0.000000 0.000000 1.000000
s off
g _coll
usemtl initialShadingGroup
f 39/69/57 37/67/58 38/68/59 40/70/60
f 41/71/61 42/72/62 43/73/63 44/74/64
f 37/81/65 39/82/66 41/75/67 44/76/68
f 39/83/69 40/84/70 42/77/71 41/78/72
f 42/80/73 40/85/74 38/86/75 43/79/76
f 43/73/77 38/87/78 37/88/79 44/74/80
