# This file uses centimeters as units for non-parametric coordinates.

mtllib Sheet_Metal.mtl
g default
v -0.057824 -0.057824 0.057824
v 0.057824 -0.057824 0.057824
v -0.057824 0.057824 0.057824
v 0.057824 0.057824 0.057824
v -0.057824 0.057824 -0.057824
v 0.057824 0.057824 -0.057824
v -0.057824 -0.057824 -0.057824
v 0.057824 -0.057824 -0.057824
vt 0.375000 0.000000
vt 0.625000 0.000000
vt 0.375000 0.250000
vt 0.625000 0.250000
vt 0.375000 0.500000
vt 0.625000 0.500000
vt 0.375000 0.750000
vt 0.625000 0.750000
vt 0.375000 1.000000
vt 0.625000 1.000000
vt 0.875000 0.000000
vt 0.875000 0.250000
vt 0.125000 0.000000
vt 0.125000 0.250000
vn 0.000000 0.000000 1.000000
vn 0.000000 0.000000 1.000000
vn 0.000000 0.000000 1.000000
vn 0.000000 0.000000 1.000000
vn 0.000000 1.000000 0.000000
vn 0.000000 1.000000 0.000000
vn 0.000000 1.000000 0.000000
vn 0.000000 1.000000 0.000000
vn 0.000000 0.000000 -1.000000
vn 0.000000 0.000000 -1.000000
vn 0.000000 0.000000 -1.000000
vn 0.000000 0.000000 -1.000000
vn 0.000000 -1.000000 0.000000
vn 0.000000 -1.000000 0.000000
vn 0.000000 -1.000000 0.000000
vn 0.000000 -1.000000 0.000000
vn 1.000000 0.000000 0.000000
vn 1.000000 0.000000 0.000000
vn 1.000000 0.000000 0.000000
vn 1.000000 0.000000 0.000000
vn -1.000000 0.000000 0.000000
vn -1.000000 0.000000 0.000000
vn -1.000000 0.000000 0.000000
vn -1.000000 0.000000 0.000000
s off
g pivot
usemtl initialShadingGroup
f 1/1/1 2/2/2 4/4/3 3/3/4
f 3/3/5 4/4/6 6/6/7 5/5/8
f 5/5/9 6/6/10 8/8/11 7/7/12
f 7/7/13 8/8/14 2/10/15 1/9/16
f 2/2/17 8/11/18 6/12/19 4/4/20
f 7/13/21 1/1/22 3/3/23 5/14/24
g default
v -1.291378 0.205089 1.530018
v 1.142490 0.205089 1.543131
v -1.287334 0.245791 1.524967
v 1.138500 0.245791 1.538038
v -1.182662 0.245791 -1.568002
v 1.242109 0.245791 -1.495005
v -1.186524 0.205089 -1.573193
v 1.246277 0.205089 -1.499954
v 0.786969 0.194793 1.536144
v 0.890731 0.194793 -1.505583
v 0.893735 0.153922 -1.510567
v 0.789794 0.153922 1.541231
v -0.079758 0.121389 1.536546
v -0.079713 0.162367 1.531474
v 0.024430 0.162367 -1.531663
v 0.024565 0.121389 -1.536733
v -1.015395 0.194793 1.526433
v -0.910843 0.194793 -1.559819
v -0.913805 0.153922 -1.564983
v -1.018539 0.153922 1.531488
v -1.214824 0.119483 0.068279
v -1.218707 0.078362 0.068653
v -0.947916 0.004861 0.059395
v -0.016778 -0.027672 0.026500
v 0.845416 0.004861 -0.003926
v 1.195016 0.078362 -0.015976
v 1.190937 0.119483 -0.015764
v 0.842468 0.046224 -0.003773
v -0.016872 0.013798 0.026413
v -0.944937 0.046224 0.059068
v -1.236662 0.138998 0.671373
v -1.252403 0.170717 0.950375
v -1.256381 0.129679 0.953014
v -1.240515 0.097960 0.674210
v -0.983367 0.059284 0.960160
v -0.969396 0.024458 0.668499
v -0.054877 0.026285 0.984763
v -0.037196 -0.008075 0.647492
v 0.809600 0.059518 1.007939
v 0.825685 0.024458 0.627197
v 1.156126 0.129690 1.017593
v 1.175547 0.097960 0.618934
v 1.152155 0.170728 1.014830
v 1.171426 0.138998 0.616394
v 0.806814 0.100799 1.005205
v 0.822693 0.065739 0.624630
v -0.054934 0.067673 0.982068
v -0.037343 0.033313 0.644798
v -0.980332 0.100565 0.957509
v -0.966452 0.065739 0.665682
v -1.190374 0.172259 -0.995799
v -1.200674 0.134707 -0.638754
v -1.204522 0.093560 -0.639055
v -1.194437 0.131220 -0.998490
v -0.933584 0.021244 -0.646314
v -0.922250 0.061003 -1.004370
v -0.002639 -0.007538 -0.682999
v 0.007402 0.027977 -1.024639
v 0.859310 0.028374 -0.718814
v 0.873894 0.061251 -1.042559
v 1.208605 0.103156 -0.736020
v 1.219834 0.131232 -1.049591
v 1.204493 0.144271 -0.735139
v 1.215929 0.172271 -1.046632
v 0.856355 0.069736 -0.718058
v 0.871193 0.102532 -1.039641
v -0.002749 0.033942 -0.682432
v 0.007510 0.069365 -1.021814
v -0.930626 0.062629 -0.645953
v -0.919135 0.102284 -1.001645
vt 0.947032 0.863219
vt 0.931550 0.779661
vt 0.944158 0.778711
vt 0.959589 0.862001
vt 0.921623 0.492248
vt 0.934262 0.492243
vt 0.931536 0.226018
vt 0.944143 0.226889
vt 0.947048 0.118016
vt 0.959604 0.119246
vt 0.831264 0.117390
vt 0.815836 0.200652
vt 0.803232 0.199702
vt 0.818711 0.116166
vt 0.805927 0.487071
vt 0.793290 0.487064
vt 0.815815 0.752335
vt 0.803210 0.753205
vt 0.831285 0.859936
vt 0.818732 0.861172
vt 1.020558 0.733188
vt 1.019758 0.820170
vt 1.106172 0.817726
vt 1.108263 0.727295
vt 1.013777 0.983885
vt 1.125542 0.982334
vt 1.391380 0.816840
vt 1.393811 0.712477
vt 1.108692 0.515836
vt 1.018626 0.522105
vt 1.394578 0.982445
vt 1.656671 0.808703
vt 1.658276 0.697857
vt 1.393561 0.498364
vt 1.107681 0.321579
vt 1.021695 0.325159
vt 1.656716 0.982776
vt 1.765076 0.806123
vt 1.767655 0.694004
vt 1.658114 0.480672
vt 1.392846 0.304519
vt 1.021079 0.201287
vt 1.107541 0.203966
vt 1.766260 0.981959
vt 1.766103 0.474681
vt 1.656821 0.285696
vt 1.393008 0.199514
vt 1.104268 0.037165
vt 1.019084 0.037329
vt 1.766163 0.275732
vt 1.658710 0.186252
vt 1.393403 0.030726
vt 1.766651 0.178822
vt 1.661445 0.024514
vt 1.770912 0.020041
vt 0.906585 0.201333
vt 0.896983 0.286953
vt 0.884362 0.286022
vt 0.893961 0.200464
vt 0.878361 0.471710
vt 0.891014 0.471843
vt 0.917096 0.023321
vt 0.929615 0.024946
vt 0.883024 0.688417
vt 0.895687 0.688345
vt 0.907111 0.797734
vt 0.894473 0.798525
vt 0.917032 0.974497
vt 0.929561 0.972920
vt 0.766651 0.178822
vt 0.766163 0.275732
vt 0.656821 0.285696
vt 0.658710 0.186252
vt 0.766103 0.474681
vt 0.658114 0.480672
vt 0.392846 0.304519
vt 0.393008 0.199514
vt 0.661445 0.024514
vt 0.770912 0.020041
vt 0.767655 0.694004
vt 0.658276 0.697857
vt 0.393561 0.498364
vt 0.107681 0.321579
vt 0.107541 0.203966
vt 0.393403 0.030726
vt 0.765076 0.806123
vt 0.656671 0.808703
vt 0.393811 0.712477
vt 0.108692 0.515836
vt 0.019013 0.325236
vt 0.021079 0.201287
vt 0.104268 0.037165
vt 0.766260 0.981959
vt 0.656716 0.982776
vt 0.391380 0.816840
vt 0.108264 0.727295
vt 0.018626 0.522105
vt 0.019084 0.037329
vt 0.394578 0.982445
vt 0.106172 0.817726
vt 0.020558 0.733188
vt 0.125542 0.982334
vt 0.019758 0.820170
vt 0.015642 0.983832
vt 0.846135 0.799604
vt 0.836375 0.677359
vt 0.849012 0.676623
vt 0.858768 0.798791
vt 0.830436 0.482832
vt 0.843095 0.482932
vt 0.869104 0.960642
vt 0.881636 0.959114
vt 0.838017 0.262306
vt 0.850675 0.262607
vt 0.846575 0.166192
vt 0.859199 0.167147
vt 0.869109 0.027976
vt 0.881633 0.029567
vn 0.017421 0.121412 0.992449
vn 0.002971 0.122525 0.992461
vn 0.003250 0.122504 0.992463
vn 0.017421 0.121412 0.992449
vn 0.052619 0.121412 -0.991206
vn 0.038457 0.122505 -0.991723
vn 0.038178 0.122526 -0.991731
vn 0.052619 0.121412 -0.991206
vn 0.021547 0.122579 -0.992225
vn 0.021404 0.122569 -0.992229
vn 0.012183 0.121920 -0.992465
vn 0.012183 0.121920 -0.992465
vn -0.013810 0.122569 0.992364
vn -0.013667 0.122579 0.992365
vn -0.023034 0.121918 0.992273
vn -0.023034 0.121918 0.992273
vn -0.005342 0.122837 0.992413
vn -0.005352 0.122837 0.992412
vn 0.029869 0.122838 -0.991977
vn 0.029858 0.122838 -0.991977
vn 0.259112 0.964629 -0.048492
vn 0.229303 0.965912 -0.120143
vn 0.079778 0.986999 -0.139528
vn 0.085968 0.994748 -0.055551
vn -0.993395 0.090594 -0.070423
vn -0.994653 0.091599 -0.047689
vn -0.994653 0.091598 -0.047698
vn -0.993407 0.090584 -0.070263
vn -0.229258 -0.965915 0.120202
vn -0.259107 -0.964633 0.048440
vn -0.085956 -0.994752 0.055492
vn -0.079768 -0.986990 0.139599
vn 0.001391 -0.998399 0.056537
vn -0.001132 -0.989572 0.144032
vn 0.087926 -0.994520 0.056557
vn 0.078474 -0.986970 0.140470
vn 0.204602 -0.977173 0.057193
vn 0.180868 -0.974517 0.132679
vn 0.994766 0.099200 0.024506
vn 0.994431 0.100273 0.032450
vn 0.994431 0.100272 0.032429
vn 0.994793 0.099125 0.023670
vn -0.180892 0.974521 -0.132617
vn -0.204585 0.977173 -0.057255
vn -0.087904 0.994518 -0.056626
vn -0.078489 0.986978 -0.140406
vn -0.001382 0.998396 -0.056604
vn 0.001134 0.989583 -0.143961
vn 0.230334 0.964112 0.132036
vn 0.258889 0.964353 0.054762
vn 0.086419 0.994827 0.053392
vn 0.081320 0.986302 0.143514
vn -0.995356 0.094563 -0.018019
vn -0.995299 0.096569 -0.007418
vn -0.995295 0.096564 -0.007957
vn -0.995365 0.094466 -0.018010
vn -0.258882 -0.964362 -0.054649
vn -0.230359 -0.964134 -0.131836
vn -0.081347 -0.986329 -0.143310
vn -0.086417 -0.994832 -0.053308
vn -0.001565 -0.988849 -0.148914
vn 0.000425 -0.998583 -0.053218
vn 0.077510 -0.985990 -0.147700
vn 0.087242 -0.994854 -0.051524
vn 0.181229 -0.973931 -0.136434
vn 0.204375 -0.977735 -0.047602
vn 0.994802 0.097693 0.028740
vn 0.993824 0.092695 0.061004
vn 0.993782 0.092575 0.061867
vn 0.994796 0.097615 0.029194
vn -0.204382 0.977733 0.047610
vn -0.181211 0.973913 0.136586
vn -0.077526 0.985961 0.147887
vn -0.087239 0.994852 0.051572
vn 0.001554 0.988818 0.149117
vn -0.000426 0.998579 0.053288
vn 0.217488 0.967379 -0.129911
vn 0.082607 0.984240 -0.156357
vn -0.082601 -0.984237 0.156379
vn -0.217487 -0.967372 0.129961
vn 0.995111 0.098048 0.011828
vn 0.995111 0.098048 0.011828
vn -0.993261 0.090695 -0.072164
vn -0.993261 0.090695 -0.072164
vn -0.071608 0.982795 -0.170256
vn -0.166146 0.972820 -0.161294
vn 0.071627 -0.982796 0.170238
vn 0.166154 -0.972825 0.161257
vn 0.004140 0.985660 -0.168692
vn -0.004135 -0.985660 0.168694
vn -0.995292 0.092897 -0.027641
vn -0.995294 0.092903 -0.027558
vn -0.086273 -0.996271 -0.000241
vn -0.260952 -0.965346 -0.003396
vn 0.001190 -0.999999 -0.000256
vn 0.088255 -0.996098 -0.000429
vn 0.206526 -0.978441 0.000600
vn 0.994741 0.099400 0.024676
vn 0.994742 0.099396 0.024657
vn -0.088253 0.996098 0.000489
vn -0.206518 0.978443 -0.000550
vn -0.001189 0.999999 0.000326
vn 0.086275 0.996271 0.000320
vn 0.260958 0.965344 0.003486
vn -0.995320 0.096625 -0.001142
vn -0.995320 0.096625 -0.001142
vn -0.214544 -0.965893 -0.144989
vn -0.078694 -0.983028 -0.165718
vn -0.000664 -0.984027 -0.178018
vn 0.075451 -0.980698 -0.180385
vn 0.169312 -0.971212 -0.167576
vn 0.993165 0.091009 0.073076
vn 0.993165 0.091009 0.073076
vn -0.169313 0.971202 0.167629
vn -0.075436 0.980694 0.180412
vn 0.000668 0.984028 0.178015
vn 0.078697 0.983033 0.165690
vn 0.214543 0.965904 0.144919
s 1
g polySurface1334
usemtl initialShadingGroup
f 9/15/25 28/16/26 25/17/27 11/18/28
s 2
f 13/25/29 26/26/30 27/27/31 15/28/32
f 19/32/33 18/31/34 14/33/35 16/34/36
s 1
f 17/22/37 20/21/38 10/23/39 12/24/40
f 21/19/41 20/21/38 17/22/37 22/20/42
s 2
f 24/30/43 23/29/44 18/31/34 19/32/33
f 27/27/31 26/26/30 23/29/44 24/30/43
s 1
f 25/17/27 28/16/26 21/19/41 22/20/42
s 5
f 39/35/45 40/36/46 57/37/47 58/38/48
s 6
f 40/70/49 39/71/50 42/72/51 41/73/52
s 7
f 41/84/53 42/85/54 44/86/55 43/87/56
f 43/87/56 44/86/55 46/90/57 45/91/58
f 45/91/58 46/90/57 48/97/59 47/98/60
f 47/98/60 48/97/59 50/104/61 49/105/62
s 8
f 49/119/63 50/120/64 52/121/65 51/122/66
s 5
f 51/52/67 52/53/68 54/47/69 53/46/70
f 53/46/70 54/47/69 56/42/71 55/41/72
f 55/41/72 56/42/71 58/38/48 57/37/47
f 59/56/73 60/50/74 77/49/75 78/57/76
s 6
f 60/79/77 59/80/78 62/81/79 61/78/80
s 7
f 61/94/81 62/100/82 64/101/83 63/95/84
f 63/95/84 64/101/83 66/109/85 65/102/86
f 65/102/86 66/109/85 68/114/87 67/110/88
f 67/110/88 68/114/87 70/117/89 69/115/90
s 8
f 69/127/91 70/129/92 72/130/93 71/128/94
s 5
f 71/64/95 72/67/96 74/65/97 73/60/98
f 73/60/98 74/65/97 76/61/99 75/55/100
f 75/55/100 76/61/99 78/57/76 77/49/75
f 11/39/101 25/40/102 57/37/47 40/36/46
s 7
f 41/84/53 43/87/56 28/92/103 9/93/104
s 8
f 10/125/105 49/119/63 51/122/66 12/126/106
s 6
f 41/73/52 9/76/107 11/77/108 40/70/49
s 5
f 17/51/109 12/58/110 51/52/67 53/46/70
s 7
f 20/106/111 47/98/60 49/105/62 10/112/112
s 5
f 55/41/72 22/45/113 17/51/109 53/46/70
s 7
f 21/99/114 45/91/58 47/98/60 20/106/111
s 5
f 25/40/102 22/45/113 55/41/72 57/37/47
s 7
f 28/92/103 43/87/56 45/91/58 21/99/114
s 6
f 61/78/80 30/74/115 29/75/116 60/79/77
s 7
f 61/94/81 63/95/84 31/89/117 30/88/118
f 32/96/119 31/89/117 63/95/84 65/102/86
f 33/103/120 32/96/119 65/102/86 67/110/88
f 34/111/121 33/103/120 67/110/88 69/115/90
s 8
f 35/124/122 34/123/123 69/127/91 71/128/94
s 5
f 36/54/124 35/59/125 71/64/95 73/60/98
f 75/55/100 37/48/126 36/54/124 73/60/98
f 38/43/127 37/48/126 75/55/100 77/49/75
f 29/44/128 38/43/127 77/49/75 60/50/74
s 6
f 30/74/115 42/72/51 39/71/50 29/75/116
s 7
f 30/88/118 31/89/117 44/86/55 42/85/54
f 46/90/57 44/86/55 31/89/117 32/96/119
f 48/97/59 46/90/57 32/96/119 33/103/120
f 50/104/61 48/97/59 33/103/120 34/111/121
s 8
f 52/121/65 50/120/64 34/123/123 35/124/122
s 5
f 54/47/69 52/53/68 35/59/125 36/54/124
f 37/48/126 56/42/71 54/47/69 36/54/124
f 58/38/48 56/42/71 37/48/126 38/43/127
f 39/35/45 58/38/48 38/43/127 29/44/128
s 6
f 15/82/129 62/81/79 59/80/78 13/83/130
s 7
f 15/107/131 27/108/132 64/101/83 62/100/82
f 66/109/85 64/101/83 27/108/132 24/113/133
f 68/114/87 66/109/85 24/113/133 19/116/134
f 70/117/89 68/114/87 19/116/134 16/118/135
s 8
f 72/130/93 70/129/92 16/131/136 14/132/137
s 5
f 74/65/97 72/67/96 14/69/138 18/68/139
f 23/66/140 76/61/99 74/65/97 18/68/139
f 78/57/76 76/61/99 23/66/140 26/62/141
f 59/56/73 78/57/76 26/62/141 13/63/142
g default
v -1.290885 0.205493 1.499180
v 1.141869 0.205493 1.573967
v -1.286714 0.226693 1.494234
v 1.138010 0.226693 1.568774
v -1.182662 0.226693 -1.568002
v 1.242109 0.226693 -1.495005
v -1.186524 0.205493 -1.573193
v 1.246277 0.205493 -1.499954
v 0.893735 0.154326 -1.510567
v 0.789334 0.154326 1.563129
v -0.079820 0.121794 1.536410
v -0.079646 0.143270 1.531341
v 0.024430 0.143270 -1.531663
v 0.024565 0.121794 -1.536733
v -0.913805 0.154326 -1.564983
v -1.018171 0.154326 1.507564
v -1.253184 0.125247 0.784972
v -1.257264 0.103710 0.787569
v -0.878266 0.013652 0.796850
v 0.717450 0.013652 0.834759
v 1.175107 0.103710 0.846211
v 1.171157 0.125247 0.843420
v -0.045788 0.019562 0.813784
v -1.205146 0.125247 -0.882804
v -1.209094 0.103710 -0.885726
v -0.830676 0.013652 -0.876394
v 0.765677 0.013652 -0.838480
v 1.224107 0.103710 -0.827252
v 1.220023 0.125247 -0.824523
v 0.002125 0.019562 -0.853791
vt 0.375000 0.000000
vt 0.431536 0.000000
vt 0.403268 0.250000
vt 0.403268 0.500000
vt 0.431536 0.750000
vt 0.375000 0.750000
vt 0.375000 0.941381
vt 0.431536 0.941381
vt 0.431536 1.000000
vt 0.375000 1.000000
vt 0.625000 0.000000
vt 0.683619 0.000000
vt 0.683619 0.250000
vt 0.598450 0.250000
vt 0.316381 0.000000
vt 0.316381 0.250000
vt 0.571900 0.750000
vt 0.598450 0.500000
vt 0.625000 0.750000
vt 0.571900 1.000000
vt 0.571900 0.941381
vt 0.625000 0.941381
vt 0.625000 1.000000
vt 0.571900 0.000000
vt 0.506787 0.000000
vt 0.506787 0.250000
vt 0.506787 0.308619
vt 0.598450 0.308619
vt 0.506787 0.750000
vt 0.506787 0.500000
vt 0.403268 0.308619
vt 0.506787 1.000000
vt 0.180352 0.250000
vt 0.180352 0.000000
vt 0.375000 0.805352
vt 0.431536 0.805352
vt 0.571900 0.805352
vt 0.625000 0.805352
vt 0.819648 0.250000
vt 0.819648 0.000000
vt 0.506787 0.444648
vt 0.598450 0.444648
vt 0.403268 0.444648
vt 0.125000 0.000000
vt 0.125000 0.250000
vt 0.875000 0.000000
vt 0.875000 0.250000
vn 0.012247 0.224909 0.974303
vn -0.023559 0.127043 0.991617
vn -0.010922 0.161826 0.986759
vn 0.049082 0.161825 -0.985598
vn 0.036766 0.127043 -0.991216
vn 0.071448 0.224906 -0.971757
vn -0.226737 -0.973372 0.033712
vn -0.051434 -0.998325 0.026477
vn -0.121714 -0.978791 0.164783
vn -0.213326 -0.967067 0.138826
vn 0.982885 0.183209 0.019281
vn 0.982724 0.183281 0.025725
vn 0.982716 0.183284 0.025991
vn 0.982885 0.183209 0.019281
vn -0.982520 0.181332 -0.042099
vn -0.981620 0.176867 -0.071689
vn -0.981620 0.176867 -0.071689
vn -0.982540 0.181523 -0.040810
vn 0.022269 0.135149 -0.990575
vn 0.008546 0.183990 -0.982891
vn -0.003574 0.226658 -0.973968
vn 0.102528 -0.979804 0.171676
vn 0.047925 -0.998407 0.029778
vn 0.185569 -0.981447 0.048230
vn 0.165360 -0.973541 0.157714
vn -0.051221 0.183985 0.981594
vn -0.037989 0.135147 0.990097
vn -0.062778 0.226651 0.971951
vn -0.030453 0.130719 0.990952
vn -0.030465 0.130726 0.990950
vn 0.000991 0.998904 -0.046799
vn 0.004602 0.987938 -0.154783
vn -0.072180 0.984950 -0.157045
vn -0.082325 0.995381 -0.049395
vn 0.029843 0.130720 -0.990970
vn 0.029831 0.130727 -0.990970
vn 0.081294 0.985092 -0.151609
vn 0.085562 0.995316 -0.044993
vn -0.003891 -0.986885 0.161375
vn -0.982935 0.182644 -0.021885
vn -0.982964 0.182570 -0.021221
vn -0.224805 -0.973237 -0.047661
vn -0.049785 -0.998322 -0.029562
vn 0.049237 -0.998418 -0.027167
vn 0.188086 -0.981414 -0.038069
vn 0.982570 0.182119 0.037272
vn 0.982559 0.181991 0.038174
vn -0.001229 0.998868 0.047562
vn -0.084992 0.995324 0.045886
vn 0.083111 0.995277 0.050162
vn -0.983506 0.180789 -0.005514
vn -0.983506 0.180789 -0.005514
vn -0.205048 -0.965406 -0.161078
vn -0.110997 -0.977217 -0.180907
vn 0.004663 -0.985451 -0.169898
vn 0.113389 -0.977973 -0.175246
vn 0.173538 -0.972404 -0.155932
vn 0.982063 0.178939 0.059431
vn 0.982064 0.178939 0.059431
vn -0.004144 0.986501 0.163703
vn -0.080740 0.983551 0.161580
vn 0.072582 0.983642 0.164864
s 1
g _coll
usemtl initialShadingGroup
f 79/133/143 94/134/144 81/135/145
s 2
f 83/136/146 93/137/147 85/138/148
s 3
f 96/139/149 97/140/150 94/141/151 79/142/152
s 4
f 80/143/153 99/144/154 100/145/155 82/146/156
s 5
f 96/147/157 79/133/158 81/135/159 95/148/160
s 2
f 87/149/161 84/150/162 86/151/163
s 3
f 88/152/164 98/153/165 99/154/166 80/155/167
s 1
f 82/146/168 88/156/169 80/143/170
f 89/157/171 88/156/169 82/146/168 90/158/172
s 9
f 101/159/173 90/158/174 82/146/175 100/160/176
s 2
f 92/161/177 91/162/178 84/150/162 87/149/161
s 9
f 81/135/179 90/158/174 101/159/173 95/163/180
s 2
f 93/137/147 83/136/146 91/162/178 92/161/177
s 3
f 89/164/181 97/140/150 98/153/165
s 1
f 81/135/145 94/134/144 89/157/171 90/158/172
s 5
f 96/147/157 95/148/160 102/165/182 103/166/183
s 3
f 97/140/150 96/139/149 103/167/184 104/168/185
f 98/153/165 97/140/150 104/168/185 105/169/186
f 99/154/166 98/153/165 105/169/186 106/170/187
s 4
f 107/171/188 100/145/155 99/144/154 106/172/189
s 9
f 108/173/190 101/159/173 100/160/176 107/174/191
f 102/175/192 95/163/180 101/159/173 108/173/190
s 5
f 85/176/193 103/166/183 102/165/182 83/177/194
s 3
f 85/138/195 93/137/196 104/168/185 103/167/184
f 104/168/185 92/161/197 105/169/186
f 106/170/187 105/169/186 87/149/198 86/151/199
s 4
f 107/171/188 106/172/189 86/178/200 84/179/201
s 9
f 91/162/202 108/173/190 107/174/191 84/150/203
f 102/175/192 108/173/190 91/162/202 83/136/204
s 3
f 89/164/181 98/153/165 88/152/164
f 89/164/181 94/141/151 97/140/150
f 92/161/197 104/168/185 93/137/196
f 105/169/186 92/161/197 87/149/198
