# This file uses centimeters as units for non-parametric coordinates.

mtllib Strips_Metal.mtl
g default
v -0.050000 -0.050000 0.050000
v 0.050000 -0.050000 0.050000
v -0.050000 0.050000 0.050000
v 0.050000 0.050000 0.050000
v -0.050000 0.050000 -0.050000
v 0.050000 0.050000 -0.050000
v -0.050000 -0.050000 -0.050000
v 0.050000 -0.050000 -0.050000
vt 0.375000 0.000000
vt 0.625000 0.000000
vt 0.625000 0.250000
vt 0.375000 0.250000
vt 0.625000 0.500000
vt 0.375000 0.500000
vt 0.625000 0.750000
vt 0.375000 0.750000
vt 0.625000 1.000000
vt 0.375000 1.000000
vt 0.875000 0.000000
vt 0.875000 0.250000
vt 0.125000 0.000000
vt 0.125000 0.250000
vn 0.000000 0.000000 1.000000
vn 0.000000 0.000000 1.000000
vn 0.000000 0.000000 1.000000
vn 0.000000 0.000000 1.000000
vn 0.000000 1.000000 0.000000
vn 0.000000 1.000000 0.000000
vn 0.000000 1.000000 0.000000
vn 0.000000 1.000000 0.000000
vn 0.000000 0.000000 -1.000000
vn 0.000000 0.000000 -1.000000
vn 0.000000 0.000000 -1.000000
vn 0.000000 0.000000 -1.000000
vn 0.000000 -1.000000 0.000000
vn 0.000000 -1.000000 0.000000
vn 0.000000 -1.000000 0.000000
vn 0.000000 -1.000000 0.000000
vn 1.000000 0.000000 0.000000
vn 1.000000 0.000000 0.000000
vn 1.000000 0.000000 0.000000
vn 1.000000 0.000000 0.000000
vn -1.000000 0.000000 0.000000
vn -1.000000 0.000000 0.000000
vn -1.000000 0.000000 0.000000
vn -1.000000 0.000000 0.000000
s off
g pivot Mesh3
usemtl initialShadingGroup
f 1/1/1 2/2/2 4/3/3 3/4/4
f 3/4/5 4/3/6 6/5/7 5/6/8
f 5/6/9 6/5/10 8/7/11 7/8/12
f 7/8/13 8/7/14 2/9/15 1/10/16
f 2/2/17 8/11/18 6/12/19 4/3/20
f 7/13/21 1/1/22 3/4/23 5/14/24
g default
v 0.427505 0.004980 -0.337342
v 0.430108 0.031302 -0.338772
v 0.495327 0.030617 -0.232714
v 0.492724 0.004295 -0.231283
v -0.408192 -0.004100 0.343190
v -0.412032 0.021987 0.345720
v -0.477251 0.022672 0.239661
v -0.473411 -0.003415 0.237132
v 0.214008 0.029521 -0.200333
v 0.214008 0.056010 -0.200162
v 0.279227 0.055324 -0.094103
v 0.279227 0.028836 -0.094274
v -0.244145 0.022887 0.085457
v -0.244145 0.049375 0.085629
v -0.178926 0.048690 0.191688
v -0.178926 0.022201 0.191516
v -0.009126 0.033236 -0.063096
v -0.009126 0.059724 -0.062925
v 0.056093 0.059039 0.043134
v 0.056093 0.032550 0.042963
v 0.477290 0.052247 0.154256
v 0.479439 0.027493 0.157556
v 0.508081 0.014838 0.043979
v 0.505932 0.039591 0.040679
v -0.470166 0.042220 -0.222928
v -0.474951 0.017663 -0.221399
v -0.503593 0.030319 -0.107822
v -0.498808 0.054875 -0.109351
v 0.245118 0.027846 0.093774
v 0.244459 0.002926 0.096384
v 0.273101 -0.009730 -0.017193
v 0.273760 0.015190 -0.019803
v -0.249405 0.031995 -0.034826
v -0.250063 0.007075 -0.032216
v -0.221421 -0.005580 -0.145793
v -0.220763 0.019339 -0.148403
v 0.004666 0.023517 0.033618
v 0.004008 -0.001403 0.036229
v 0.032650 -0.014058 -0.077348
v 0.033308 0.010862 -0.079959
vt 0.233004 0.016811
vt 0.264145 0.016811
vt 0.264145 0.276018
vt 0.233004 0.276018
vt 0.193370 0.019500
vt 0.224512 0.016809
vt 0.224512 0.262851
vt 0.193370 0.262851
vt 0.223846 0.964485
vt 0.192704 0.964485
vt 0.192704 0.738471
vt 0.223846 0.738471
vt 0.181518 0.964487
vt 0.016793 0.964487
vt 0.016793 0.738473
vt 0.181518 0.738473
vt 0.304030 0.276018
vt 0.272637 0.276018
vt 0.272637 0.016811
vt 0.304030 0.016811
vt 0.185303 0.738473
vt 0.185303 0.964486
vt 0.020578 0.964486
vt 0.020578 0.738473
vt 0.192704 0.507751
vt 0.223846 0.507751
vt 0.185303 0.507752
vt 0.020578 0.507752
vt 0.224512 0.507751
vt 0.193370 0.507751
vt 0.016793 0.507752
vt 0.181518 0.507752
vt 0.223846 0.262851
vt 0.192704 0.262851
vt 0.192704 0.020779
vt 0.223846 0.016809
vt 0.185303 0.016811
vt 0.185303 0.262852
vt 0.020578 0.262852
vt 0.020578 0.016811
vt 0.193370 0.738471
vt 0.224512 0.738471
vt 0.224512 0.964485
vt 0.193370 0.964485
vt 0.181518 0.262852
vt 0.016793 0.262852
vt 0.016793 0.016811
vt 0.181518 0.016811
vt 0.233004 0.016811
vt 0.264145 0.016811
vt 0.264145 0.276018
vt 0.233004 0.276018
vt 0.193370 0.019500
vt 0.224512 0.016809
vt 0.224512 0.262851
vt 0.193370 0.262851
vt 0.223846 0.964485
vt 0.192704 0.964485
vt 0.192704 0.738471
vt 0.223846 0.738471
vt 0.181518 0.964487
vt 0.016793 0.964487
vt 0.016793 0.738473
vt 0.181518 0.738473
vt 0.304030 0.276018
vt 0.272637 0.276018
vt 0.272637 0.016811
vt 0.304030 0.016811
vt 0.185303 0.738473
vt 0.185303 0.964486
vt 0.020578 0.964486
vt 0.020578 0.738473
vt 0.192704 0.507751
vt 0.223846 0.507751
vt 0.185303 0.507752
vt 0.020578 0.507752
vt 0.224512 0.507751
vt 0.193370 0.507751
vt 0.016793 0.507752
vt 0.181518 0.507752
vt 0.223846 0.262851
vt 0.192704 0.262851
vt 0.192704 0.020779
vt 0.223846 0.016809
vt 0.185303 0.016811
vt 0.185303 0.262852
vt 0.020578 0.262852
vt 0.020578 0.016811
vt 0.193370 0.738471
vt 0.224512 0.738471
vt 0.224512 0.964485
vt 0.193370 0.964485
vt 0.181518 0.262852
vt 0.016793 0.262852
vt 0.016793 0.016811
vt 0.181518 0.016811
vn -0.839410 -0.173503 0.515061
vn -0.839410 -0.173503 0.515061
vn -0.839410 -0.173503 0.515061
vn -0.839410 -0.173503 0.515061
vn 0.539456 -0.006501 0.841989
vn 0.539456 -0.006501 0.841989
vn 0.531264 -0.005975 0.847185
vn 0.531848 -0.006012 0.846818
vn -0.539453 0.006517 -0.841990
vn -0.539453 0.006517 -0.841990
vn -0.531847 0.006021 -0.846819
vn -0.531263 0.005983 -0.847186
vn -0.084995 -0.995327 0.045838
vn -0.084995 -0.995327 0.045838
vn -0.049326 -0.998497 0.023881
vn -0.049741 -0.998471 0.024136
vn 0.846148 -0.111994 -0.521049
vn 0.846148 -0.111994 -0.521048
vn 0.846148 -0.111994 -0.521049
vn 0.846148 -0.111994 -0.521049
vn 0.049329 0.998497 -0.023880
vn 0.084573 0.995375 -0.045573
vn 0.084573 0.995375 -0.045573
vn 0.049736 0.998471 -0.024131
vn -0.529336 0.005485 -0.848395
vn -0.529281 0.005485 -0.848429
vn -0.007640 0.999909 0.011158
vn -0.007465 0.999911 0.011051
vn 0.529281 -0.005485 0.848429
vn 0.529336 -0.005485 0.848395
vn 0.007637 -0.999909 -0.011162
vn 0.007463 -0.999911 -0.011054
vn -0.542763 0.004073 -0.839876
vn -0.543453 0.003956 -0.839431
vn -0.551724 0.002551 -0.834023
vn -0.551724 0.002551 -0.834023
vn -0.078064 0.995461 0.054434
vn -0.053887 0.997762 0.039581
vn -0.053172 0.997818 0.039142
vn -0.078064 0.995461 0.054434
vn 0.543453 -0.003964 0.839431
vn 0.542763 -0.004080 0.839876
vn 0.551724 -0.002566 0.834023
vn 0.551724 -0.002566 0.834023
vn 0.053007 -0.997830 -0.039047
vn 0.053731 -0.997774 -0.039493
vn 0.078149 -0.995451 -0.054491
vn 0.078149 -0.995451 -0.054491
vn -0.951026 0.169207 -0.258685
vn -0.951026 0.169207 -0.258685
vn -0.951026 0.169207 -0.258685
vn -0.951026 0.169207 -0.258685
vn 0.261006 -0.106325 -0.959464
vn 0.261006 -0.106325 -0.959464
vn 0.251620 -0.106900 -0.961904
vn 0.252289 -0.106860 -0.961734
vn -0.261005 0.106324 0.959464
vn -0.261005 0.106324 0.959464
vn -0.252289 0.106859 0.961734
vn -0.251620 0.106900 0.961904
vn -0.070614 0.989252 -0.128041
vn -0.070614 0.989252 -0.128041
vn -0.029924 0.992545 -0.118144
vn -0.030397 0.992517 -0.118261
vn 0.966202 0.114660 0.230882
vn 0.966202 0.114660 0.230882
vn 0.966202 0.114660 0.230882
vn 0.966202 0.114660 0.230882
vn 0.029927 -0.992546 0.118143
vn 0.070132 -0.989302 0.127920
vn 0.070132 -0.989302 0.127920
vn 0.030392 -0.992518 0.118257
vn -0.249409 0.107407 0.962424
vn -0.249346 0.107407 0.962440
vn -0.034962 -0.994174 0.101959
vn -0.034763 -0.994176 0.102009
vn 0.249346 -0.107408 -0.962440
vn 0.249409 -0.107408 -0.962423
vn 0.034961 0.994174 -0.101961
vn 0.034763 0.994176 -0.102011
vn -0.264740 0.108725 0.958171
vn -0.265529 0.108836 0.957940
vn -0.275008 0.110156 0.955110
vn -0.275008 0.110156 0.955111
vn -0.115014 -0.990031 0.081311
vn -0.087551 -0.992223 0.088479
vn -0.086739 -0.992276 0.088690
vn -0.115014 -0.990031 0.081311
vn 0.265529 -0.108837 -0.957940
vn 0.264740 -0.108726 -0.958171
vn 0.275008 -0.110156 -0.955110
vn 0.275008 -0.110156 -0.955110
vn 0.086555 0.992287 -0.088740
vn 0.087379 0.992234 -0.088526
vn 0.115115 0.990021 -0.081285
vn 0.115115 0.990021 -0.081285
s off
g polySurface1813
usemtl initialShadingGroup
f 13/15/25 14/16/26 15/17/27 16/18/28
s 1
f 12/19/29 11/20/30 19/21/31 20/22/32
s 2
f 10/23/33 9/24/34 17/25/35 18/26/36
s 3
f 9/27/37 12/28/38 20/29/39 17/30/40
s off
f 11/31/41 12/32/42 9/33/43 10/34/44
s 4
f 19/35/45 11/36/46 10/37/47 18/38/48
s 2
f 18/26/36 17/25/35 25/39/49 26/40/50
s 4
f 27/41/51 19/35/45 18/38/48 26/42/52
s 1
f 20/22/32 19/21/31 27/43/53 28/44/54
s 3
f 17/30/40 20/29/39 28/45/55 25/46/56
s 2
f 22/47/57 21/48/58 16/49/59 15/50/60
s 4
f 14/51/61 23/52/62 22/53/63 15/54/64
s 1
f 24/55/65 23/56/66 14/57/67 13/58/68
s 3
f 21/59/69 24/60/70 13/61/71 16/62/72
s 2
f 26/40/50 25/39/49 21/48/58 22/47/57
s 4
f 23/52/62 27/41/51 26/42/52 22/53/63
s 1
f 28/44/54 27/43/53 23/56/66 24/55/65
s 3
f 25/46/56 28/45/55 24/60/70 21/59/69
s off
f 33/63/73 34/64/74 35/65/75 36/66/76
s 5
f 32/67/77 31/68/78 39/69/79 40/70/80
s 6
f 30/71/81 29/72/82 37/73/83 38/74/84
s 7
f 29/75/85 32/76/86 40/77/87 37/78/88
s off
f 31/79/89 32/80/90 29/81/91 30/82/92
s 8
f 39/83/93 31/84/94 30/85/95 38/86/96
s 6
f 38/74/84 37/73/83 45/87/97 46/88/98
s 8
f 47/89/99 39/83/93 38/86/96 46/90/100
s 5
f 40/70/80 39/69/79 47/91/101 48/92/102
s 7
f 37/78/88 40/77/87 48/93/103 45/94/104
s 6
f 42/95/105 41/96/106 36/97/107 35/98/108
s 8
f 34/99/109 43/100/110 42/101/111 35/102/112
s 5
f 44/103/113 43/104/114 34/105/115 33/106/116
s 7
f 41/107/117 44/108/118 33/109/119 36/110/120
s 6
f 46/88/98 45/87/97 41/96/106 42/95/105
s 8
f 43/100/110 47/89/99 46/90/100 42/101/111
s 5
f 48/92/102 47/91/101 43/104/114 44/103/113
s 7
f 45/94/104 48/93/103 44/108/118 41/107/117
g default
v 0.477290 0.052247 0.154256
v 0.479439 0.027493 0.157556
v 0.508081 0.014838 0.043979
v 0.505932 0.039591 0.040679
v -0.470166 0.042220 -0.222928
v -0.474951 0.017663 -0.221399
v -0.503593 0.030319 -0.107822
v -0.498808 0.054875 -0.109351
v 0.031934 0.029416 0.060890
v 0.031034 -0.001403 0.059762
v 0.245643 -0.009730 -0.025902
v 0.237784 0.022013 -0.036882
v -0.150594 0.027441 -0.004909
v -0.151983 0.007075 -0.004961
v 0.032650 -0.014058 -0.077348
v 0.028363 0.033236 -0.086773
v 0.427505 0.004980 -0.337342
v 0.430108 0.031302 -0.338772
v 0.495327 0.030617 -0.232714
v 0.492724 0.004295 -0.231283
v -0.408192 -0.004100 0.343190
v -0.412032 0.021987 0.345720
v -0.477251 0.022672 0.239661
v -0.473411 -0.003415 0.237132
v 0.023203 0.052951 -0.079677
v 0.240518 0.055324 -0.048836
v -0.165093 0.049375 0.007030
v 0.056093 0.059039 0.043134
vt 0.233004 0.016811
vt 0.264145 0.016811
vt 0.264145 0.276018
vt 0.233004 0.276018
vt 0.193370 0.019500
vt 0.224512 0.016809
vt 0.224512 0.262851
vt 0.193370 0.262851
vt 0.223846 0.964485
vt 0.192704 0.964485
vt 0.192704 0.623111
vt 0.223846 0.623111
vt 0.181518 0.964487
vt 0.016793 0.964487
vt 0.016793 0.738473
vt 0.181518 0.738473
vt 0.304030 0.276018
vt 0.272637 0.276018
vt 0.272637 0.016811
vt 0.304030 0.016811
vt 0.185303 0.738473
vt 0.185303 0.964486
vt 0.020578 0.964486
vt 0.020578 0.623113
vt 0.185303 0.385302
vt 0.020578 0.262852
vt 0.224512 0.623111
vt 0.193370 0.623111
vt 0.223846 0.262851
vt 0.192704 0.262851
vt 0.192704 0.020779
vt 0.223846 0.016809
vt 0.185303 0.016811
vt 0.020578 0.016811
vt 0.224512 0.964485
vt 0.193370 0.964485
vt 0.181518 0.262852
vt 0.016793 0.262852
vt 0.016793 0.016811
vt 0.181518 0.016811
vt 0.233004 0.016811
vt 0.264145 0.016811
vt 0.264145 0.276018
vt 0.233004 0.276018
vt 0.193370 0.019500
vt 0.224512 0.016809
vt 0.224512 0.262851
vt 0.193370 0.262851
vt 0.223846 0.964485
vt 0.192704 0.964485
vt 0.192704 0.623111
vt 0.223846 0.623111
vt 0.181518 0.964487
vt 0.016793 0.964487
vt 0.016793 0.738473
vt 0.181518 0.738473
vt 0.304030 0.276018
vt 0.272637 0.276018
vt 0.272637 0.016811
vt 0.304030 0.016811
vt 0.185303 0.738473
vt 0.185303 0.964486
vt 0.020578 0.964486
vt 0.020578 0.623113
vt 0.185303 0.385302
vt 0.020578 0.262852
vt 0.224512 0.623111
vt 0.193370 0.623111
vt 0.223846 0.262851
vt 0.192704 0.262851
vt 0.192704 0.020779
vt 0.223846 0.016809
vt 0.185303 0.016811
vt 0.020578 0.016811
vt 0.224512 0.964485
vt 0.193370 0.964485
vt 0.181518 0.262852
vt 0.016793 0.262852
vt 0.016793 0.016811
vt 0.181518 0.016811
vn -0.951026 0.169207 -0.258685
vn -0.951026 0.169207 -0.258685
vn -0.951026 0.169207 -0.258685
vn -0.951026 0.169207 -0.258685
vn 0.276825 -0.189096 -0.942131
vn 0.276825 -0.189096 -0.942131
vn 0.276825 -0.189096 -0.942131
vn 0.276825 -0.189096 -0.942131
vn -0.210886 0.033443 0.976938
vn -0.210886 0.033443 0.976938
vn -0.210886 0.033443 0.976938
vn -0.210886 0.033443 0.976939
vn -0.026565 0.991974 -0.123622
vn -0.026565 0.991974 -0.123622
vn -0.026565 0.991974 -0.123622
vn -0.026565 0.991974 -0.123622
vn 0.966202 0.114660 0.230882
vn 0.966202 0.114660 0.230882
vn 0.966202 0.114660 0.230882
vn 0.966202 0.114660 0.230882
vn 0.038630 -0.987751 0.151182
vn 0.038630 -0.987751 0.151182
vn 0.038630 -0.987751 0.151182
vn 0.038630 -0.987751 0.151182
vn -0.037243 -0.995117 0.091408
vn -0.037243 -0.995117 0.091408
vn -0.037243 -0.995117 0.091408
vn -0.037243 -0.995117 0.091408
vn 0.224767 -0.211051 -0.951282
vn 0.224767 -0.211051 -0.951282
vn 0.224767 -0.211051 -0.951282
vn 0.224767 -0.211051 -0.951282
vn -0.278680 0.069794 0.957845
vn -0.278680 0.069794 0.957845
vn -0.278680 0.069794 0.957845
vn -0.278680 0.069794 0.957845
vn -0.086769 -0.992938 0.080902
vn -0.086769 -0.992938 0.080902
vn -0.086769 -0.992938 0.080902
vn -0.086769 -0.992938 0.080902
vn 0.259828 -0.147296 -0.954355
vn 0.259827 -0.147296 -0.954355
vn 0.259828 -0.147296 -0.954355
vn 0.259828 -0.147296 -0.954355
vn 0.040664 0.999140 0.008124
vn 0.040664 0.999140 0.008124
vn 0.040664 0.999140 0.008124
vn 0.040664 0.999140 0.008124
vn -0.336366 -0.006667 0.941708
vn -0.336366 -0.006667 0.941708
vn -0.336366 -0.006667 0.941708
vn -0.336366 -0.006667 0.941708
vn -0.839410 -0.173503 0.515061
vn -0.839410 -0.173503 0.515061
vn -0.839410 -0.173503 0.515061
vn -0.839410 -0.173503 0.515061
vn 0.597957 0.124219 0.791844
vn 0.597957 0.124219 0.791844
vn 0.597957 0.124219 0.791844
vn 0.597957 0.124219 0.791844
vn -0.529638 0.074574 -0.844939
vn -0.529638 0.074574 -0.844939
vn -0.529638 0.074574 -0.844939
vn -0.529638 0.074574 -0.844939
vn -0.055511 -0.998226 0.021537
vn -0.055511 -0.998226 0.021537
vn -0.055511 -0.998226 0.021537
vn -0.055511 -0.998226 0.021537
vn 0.846148 -0.111994 -0.521049
vn 0.846148 -0.111994 -0.521048
vn 0.846148 -0.111994 -0.521049
vn 0.846148 -0.111994 -0.521049
vn 0.025884 0.997502 -0.065720
vn 0.025884 0.997502 -0.065720
vn 0.025884 0.997502 -0.065720
vn 0.025884 0.997502 -0.065720
vn -0.020705 0.998818 -0.043968
vn -0.020705 0.998818 -0.043968
vn -0.020705 0.998818 -0.043968
vn -0.020705 0.998818 -0.043968
vn 0.430968 0.228007 0.873086
vn 0.430968 0.228007 0.873086
vn 0.430968 0.228007 0.873086
vn 0.430968 0.228007 0.873086
vn -0.599406 0.012222 -0.800352
vn -0.599406 0.012222 -0.800352
vn -0.599406 0.012222 -0.800352
vn -0.599406 0.012222 -0.800352
vn -0.052373 0.997723 0.042495
vn -0.052373 0.997723 0.042495
vn -0.052373 0.997723 0.042495
vn -0.052373 0.997723 0.042495
vn 0.539290 0.033284 0.841462
vn 0.539290 0.033284 0.841462
vn 0.539290 0.033284 0.841462
vn 0.539290 0.033284 0.841462
vn 0.044855 -0.997356 -0.057176
vn 0.044855 -0.997356 -0.057176
vn 0.044855 -0.997356 -0.057176
vn 0.044855 -0.997356 -0.057176
vn -0.412241 0.210537 -0.886415
vn -0.412241 0.210537 -0.886415
vn -0.412241 0.210537 -0.886415
vn -0.412241 0.210537 -0.886415
s off
g _coll
usemtl initialShadingGroup
f 53/111/121 54/112/122 55/113/123 56/114/124
f 52/115/125 51/116/126 59/117/127 60/118/128
f 50/119/129 49/120/130 57/121/131 58/122/132
f 49/123/133 52/124/134 60/125/135 57/126/136
f 51/127/137 52/128/138 49/129/139 50/130/140
f 59/131/141 51/132/142 50/133/143 58/134/144
f 63/135/145 59/131/146 58/134/147 62/136/148
f 60/118/149 59/117/150 63/137/151 64/138/152
f 62/139/153 61/140/154 56/141/155 55/142/156
f 54/143/157 63/135/158 62/136/159 55/144/160
f 64/138/161 63/137/162 54/145/163 53/146/164
f 61/147/165 64/148/166 53/149/167 56/150/168
f 58/122/169 57/121/170 61/140/171 62/139/172
f 69/151/173 70/152/174 71/153/175 72/154/176
f 68/155/177 67/156/178 74/157/179 60/158/180
f 66/159/181 65/160/182 64/161/183 73/162/184
f 65/163/185 68/164/186 60/165/187 64/166/188
f 67/167/189 68/168/190 65/169/191 66/170/192
f 74/171/193 67/172/194 66/173/195 73/174/196
f 76/175/197 74/171/198 73/174/199 75/176/200
f 60/158/201 74/157/202 76/177/203 57/178/204
f 75/179/205 61/180/206 72/181/207 71/182/208
f 70/183/209 76/175/210 75/176/211 71/184/212
f 57/178/213 76/177/214 70/185/215 69/186/216
f 61/187/217 57/188/218 69/189/219 72/190/220
f 73/162/221 64/161/222 61/180/223 75/179/224
