# This file uses centimeters as units for non-parametric coordinates.

mtllib StoneSlab.mtl
g default
v -0.189000 -0.094702 0.189000
v 0.189000 -0.094702 0.189000
v -0.189000 -0.094702 -0.189000
v 0.189000 -0.094702 -0.189000
v -0.189000 0.283298 0.189000
v 0.189000 0.283298 0.189000
v -0.189000 0.283298 -0.189000
v 0.189000 0.283298 -0.189000
vt 1.000000 0.000000
vt 1.000000 1.000000
vt 0.000000 1.000000
vt 0.000000 0.000000
vt 0.000000 0.000000
vt 1.000000 0.000000
vt 1.000000 1.000000
vt 0.000000 1.000000
vt 0.000000 0.000000
vt 1.000000 0.000000
vt 1.000000 1.000000
vt 0.000000 1.000000
vt 0.000000 0.000000
vt 1.000000 0.000000
vt 1.000000 1.000000
vt 0.000000 1.000000
vt 0.000000 0.000000
vt 1.000000 0.000000
vt 1.000000 1.000000
vt 0.000000 1.000000
vt 0.000000 0.000000
vt 1.000000 0.000000
vt 1.000000 1.000000
vt 0.000000 1.000000
vn 0.000000 -1.000000 0.000000
vn 0.000000 -1.000000 0.000000
vn 0.000000 -1.000000 0.000000
vn 0.000000 -1.000000 0.000000
vn 0.000000 1.000000 0.000000
vn 0.000000 1.000000 0.000000
vn 0.000000 1.000000 0.000000
vn 0.000000 1.000000 0.000000
vn 0.000000 0.000000 1.000000
vn 0.000000 0.000000 1.000000
vn 0.000000 0.000000 1.000000
vn 0.000000 0.000000 1.000000
vn 1.000000 0.000000 0.000000
vn 1.000000 0.000000 0.000000
vn 1.000000 0.000000 0.000000
vn 1.000000 0.000000 0.000000
vn 0.000000 0.000000 -1.000000
vn 0.000000 0.000000 -1.000000
vn 0.000000 0.000000 -1.000000
vn 0.000000 0.000000 -1.000000
vn -1.000000 0.000000 -0.000000
vn -1.000000 0.000000 -0.000000
vn -1.000000 0.000000 -0.000000
vn -1.000000 0.000000 -0.000000
s off
g Conveyorbelt1:pivot group
usemtl initialShadingGroup
f 1/1/1 3/2/2 4/3/3 2/4/4
f 5/5/5 6/6/6 8/7/7 7/8/8
f 1/9/9 2/10/10 6/11/11 5/12/12
f 2/13/13 4/14/14 8/15/15 6/16/16
f 4/17/17 3/18/18 7/19/19 8/20/20
f 3/21/21 1/22/22 5/23/23 7/24/24
g default
v 4.308907 -0.084511 -4.565660
v -4.314629 -0.084511 -4.565660
v 4.308907 0.434125 -4.565660
v -4.314629 0.434125 -4.565660
v 4.308907 0.434125 4.506487
v -4.314629 0.434125 4.506487
v 4.308907 -0.084511 4.506487
v -4.314629 -0.084511 4.506487
vt 0.353936 0.128830
vt 0.707255 0.019350
vt 0.707255 0.019350
vt 0.353936 0.128830
vt 0.375000 0.477816
vt 0.625000 0.477816
vt 0.625000 0.772184
vt 0.375000 0.772184
vt 0.625000 0.977021
vt 0.375000 0.977021
vt 0.353936 0.128830
vt 0.707255 0.019350
vt 0.000000 0.073726
vt 1.000000 0.073726
vt 1.000000 0.000000
vt 0.000000 0.000000
vt 0.000000 0.193720
vt 0.729595 0.096860
vt 1.000000 0.267446
vt 0.000000 0.267446
vn 0.000000 0.000000 -1.000000
vn 0.000000 0.000000 -1.000000
vn 0.000000 0.000000 -1.000000
vn 0.000000 0.000000 -1.000000
vn 0.000000 0.000000 1.000000
vn 0.000000 0.000000 1.000000
vn 0.000000 0.000000 1.000000
vn 0.000000 0.000000 1.000000
vn 0.000000 -1.000000 0.000000
vn 0.000000 -1.000000 0.000000
vn 0.000000 -1.000000 0.000000
vn 0.000000 -1.000000 0.000000
vn 0.000000 1.000000 0.000000
vn 0.000000 1.000000 0.000000
vn 0.000000 1.000000 0.000000
vn 0.000000 1.000000 0.000000
vn -1.000000 0.000000 0.000000
vn -1.000000 0.000000 0.000000
vn -1.000000 0.000000 0.000000
vn -1.000000 0.000000 0.000000
vn 1.000000 0.000000 0.000000
vn 1.000000 0.000000 0.000000
vn 1.000000 0.000000 0.000000
vn 1.000000 0.000000 0.000000
s off
g group Conveyorbelt1:main
usemtl initialShadingGroup
f 9/25/25 10/26/26 12/27/27 11/28/28
f 13/29/29 14/30/30 16/31/31 15/32/32
f 15/32/33 16/31/34 10/33/35 9/34/36
f 11/35/37 12/36/38 14/30/39 13/29/40
f 14/37/41 12/38/42 10/39/43 16/40/44
f 15/41/45 9/42/46 11/43/47 13/44/48
g default
v 4.308907 -0.084511 -4.565660
v -4.314629 -0.084511 -4.565660
v 4.308907 0.434125 -4.565660
v -4.314629 0.434125 -4.565660
v 4.308907 0.434125 4.506487
v -4.314629 0.434125 4.506487
v 4.308907 -0.084511 4.506487
v -4.314629 -0.084511 4.506487
vt 0.353936 0.128830
vt 0.707255 0.019350
vt 0.707255 0.019350
vt 0.353936 0.128830
vt 0.375000 0.477816
vt 0.625000 0.477816
vt 0.625000 0.772184
vt 0.375000 0.772184
vt 0.625000 0.977021
vt 0.375000 0.977021
vt 0.353936 0.128830
vt 0.707255 0.019350
vt 0.000000 0.073726
vt 1.000000 0.073726
vt 1.000000 0.000000
vt 0.000000 0.000000
vt 0.000000 0.193720
vt 0.729595 0.096860
vt 1.000000 0.267446
vt 0.000000 0.267446
vn 0.000000 0.000000 -1.000000
vn 0.000000 0.000000 -1.000000
vn 0.000000 0.000000 -1.000000
vn 0.000000 0.000000 -1.000000
vn 0.000000 0.000000 1.000000
vn 0.000000 0.000000 1.000000
vn 0.000000 0.000000 1.000000
vn 0.000000 0.000000 1.000000
vn 0.000000 -1.000000 0.000000
vn 0.000000 -1.000000 0.000000
vn 0.000000 -1.000000 0.000000
vn 0.000000 -1.000000 0.000000
vn 0.000000 1.000000 0.000000
vn 0.000000 1.000000 0.000000
vn 0.000000 1.000000 0.000000
vn 0.000000 1.000000 0.000000
vn -1.000000 0.000000 0.000000
vn -1.000000 0.000000 0.000000
vn -1.000000 0.000000 0.000000
vn -1.000000 0.000000 0.000000
vn 1.000000 0.000000 0.000000
vn 1.000000 0.000000 0.000000
vn 1.000000 0.000000 0.000000
vn 1.000000 0.000000 0.000000
s off
g group Conveyorbelt1:_coll
usemtl initialShadingGroup
f 17/45/49 18/46/50 20/47/51 19/48/52
f 21/49/53 22/50/54 24/51/55 23/52/56
f 23/52/57 24/51/58 18/53/59 17/54/60
f 19/55/61 20/56/62 22/50/63 21/49/64
f 22/57/65 20/58/66 18/59/67 24/60/68
f 23/61/69 17/62/70 19/63/71 21/64/72
